<svg width="32" height="32" viewBox="0 0 32 32" fill="none" xmlns="http://www.w3.org/2000/svg">
<circle cx="16" cy="16" r="15.5" fill="#FFD028" stroke="#FFC400"/>
<line x1="9.98633" y1="23.75" x2="21.9863" y2="23.75" stroke="#0F0F0F" stroke-width="1.5"/>
<path fill-rule="evenodd" clip-rule="evenodd" d="M15.9992 9.5C16.2479 9.5 16.4863 9.5856 16.6621 9.73798C16.838 9.89035 16.9367 10.097 16.9367 10.3125V19.7261L20.9605 16.2372C21.0476 16.1617 21.1511 16.1018 21.265 16.0609C21.3789 16.02 21.501 15.999 21.6242 15.999C21.7475 15.999 21.8696 16.02 21.9835 16.0609C22.0973 16.1018 22.2008 16.1617 22.288 16.2372C22.3751 16.3128 22.4443 16.4025 22.4915 16.5012C22.5386 16.5999 22.5629 16.7057 22.5629 16.8125C22.5629 16.9193 22.5386 17.0251 22.4915 17.1238C22.4443 17.2225 22.3751 17.3122 22.288 17.3877L16.663 22.2627C16.5759 22.3384 16.4724 22.3984 16.3585 22.4394C16.2446 22.4804 16.1225 22.5015 15.9992 22.5015C15.8759 22.5015 15.7538 22.4804 15.6399 22.4394C15.526 22.3984 15.4226 22.3384 15.3355 22.2627L9.71048 17.3877C9.62332 17.3122 9.55417 17.2225 9.507 17.1238C9.45983 17.0251 9.43555 16.9193 9.43555 16.8125C9.43555 16.7057 9.45983 16.5999 9.507 16.5012C9.55417 16.4025 9.62332 16.3128 9.71048 16.2372C9.88652 16.0847 10.1253 15.999 10.3742 15.999C10.4975 15.999 10.6196 16.02 10.7335 16.0609C10.8473 16.1018 10.9508 16.1617 11.038 16.2372L15.0617 19.7261V10.3125C15.0617 10.097 15.1605 9.89035 15.3363 9.73798C15.5121 9.5856 15.7506 9.5 15.9992 9.5V9.5Z" fill="#0F0F0F"/>
</svg>
