<svg width="32" height="32" viewBox="0 0 32 32" fill="none" xmlns="http://www.w3.org/2000/svg">
<g clip-path="url(#clip0_432_8410)">
<path d="M32 16C32 7.16343 24.8365 0 16 0C7.16343 0 0 7.16343 0 16C0 23.9859 5.85093 30.6053 13.5 31.8056V20.625H9.43749V16H13.5V12.475C13.5 8.46499 15.8887 6.24999 19.5434 6.24999C21.2934 6.24999 23.125 6.56249 23.125 6.56249V10.5H21.1075C19.12 10.5 18.5 11.7334 18.5 13V16H22.9375L22.2281 20.625H18.5V31.8056C26.149 30.6053 32 23.9859 32 16Z" fill="#D0D0D0"/>
</g>
<defs>
<clipPath id="clip0_432_8410">
<rect width="32" height="32" fill="white"/>
</clipPath>
</defs>
</svg>
