<svg width="33" height="32" viewBox="0 0 33 32" fill="none" xmlns="http://www.w3.org/2000/svg">
<g clip-path="url(#clip0_432_8412)">
<path d="M16.5547 2.88125C20.8297 2.88125 21.3359 2.9 23.0172 2.975C24.5797 3.04375 25.4234 3.30625 25.9859 3.525C26.7297 3.8125 27.2672 4.16249 27.8234 4.71874C28.3859 5.28124 28.7297 5.81249 29.0172 6.55624C29.2359 7.11874 29.4984 7.96874 29.5672 9.52499C29.6422 11.2125 29.6609 11.7187 29.6609 15.9875C29.6609 20.2625 29.6422 20.7687 29.5672 22.45C29.4984 24.0125 29.2359 24.8562 29.0172 25.4187C28.7297 26.1625 28.3797 26.7 27.8234 27.2562C27.2609 27.8187 26.7297 28.1625 25.9859 28.45C25.4234 28.6687 24.5734 28.9312 23.0172 29C21.3297 29.075 20.8234 29.0937 16.5547 29.0937C12.2797 29.0937 11.7734 29.075 10.0922 29C8.52968 28.9312 7.68593 28.6687 7.12343 28.45C6.37968 28.1625 5.84218 27.8125 5.28593 27.2562C4.72343 26.6937 4.37968 26.1625 4.09218 25.4187C3.87343 24.8562 3.61093 24.0062 3.54218 22.45C3.46718 20.7625 3.44843 20.2562 3.44843 15.9875C3.44843 11.7125 3.46718 11.2062 3.54218 9.52499C3.61093 7.96249 3.87343 7.11874 4.09218 6.55624C4.37968 5.81249 4.72968 5.27499 5.28593 4.71874C5.84843 4.15624 6.37968 3.8125 7.12343 3.525C7.68593 3.30625 8.53593 3.04375 10.0922 2.975C11.7734 2.9 12.2797 2.88125 16.5547 2.88125ZM16.5547 0C12.2109 0 11.6672 0.01875 9.96093 0.0937499C8.26093 0.16875 7.09218 0.443749 6.07968 0.837499C5.02343 1.25 4.12968 1.79375 3.24218 2.6875C2.34844 3.575 1.80469 4.46874 1.39219 5.51874C0.998437 6.53749 0.723437 7.69999 0.648437 9.39999C0.573437 11.1125 0.554688 11.6562 0.554688 16C0.554688 20.3437 0.573437 20.8875 0.648437 22.5937C0.723437 24.2937 0.998437 25.4625 1.39219 26.475C1.80469 27.5312 2.34844 28.425 3.24218 29.3125C4.12968 30.2 5.02343 30.75 6.07343 31.1562C7.09218 31.55 8.25468 31.825 9.95468 31.9C11.6609 31.975 12.2047 31.9937 16.5484 31.9937C20.8922 31.9937 21.4359 31.975 23.1422 31.9C24.8422 31.825 26.0109 31.55 27.0234 31.1562C28.0734 30.75 28.9672 30.2 29.8547 29.3125C30.7421 28.425 31.2921 27.5312 31.6984 26.4812C32.0921 25.4625 32.3671 24.3 32.4421 22.6C32.5171 20.8937 32.5359 20.35 32.5359 16.0062C32.5359 11.6625 32.5171 11.1187 32.4421 9.41249C32.3671 7.71249 32.0921 6.54374 31.6984 5.53124C31.3046 4.46874 30.7609 3.575 29.8672 2.6875C28.9797 1.8 28.0859 1.25 27.0359 0.843749C26.0172 0.449999 24.8547 0.175 23.1547 0.0999999C21.4422 0.01875 20.8984 0 16.5547 0Z" fill="#D0D0D0"/>
<path d="M16.5547 7.78125C12.0172 7.78125 8.33594 11.4625 8.33594 16C8.33594 20.5375 12.0172 24.2187 16.5547 24.2187C21.0922 24.2187 24.7734 20.5375 24.7734 16C24.7734 11.4625 21.0922 7.78125 16.5547 7.78125ZM16.5547 21.3312C13.6109 21.3312 11.2234 18.9437 11.2234 16C11.2234 13.0562 13.6109 10.6687 16.5547 10.6687C19.4984 10.6687 21.8859 13.0562 21.8859 16C21.8859 18.9437 19.4984 21.3312 16.5547 21.3312Z" fill="#D0D0D0"/>
<path d="M27.0172 7.45586C27.0172 8.51836 26.1547 9.37461 25.0984 9.37461C24.0359 9.37461 23.1797 8.51211 23.1797 7.45586C23.1797 6.39336 24.0422 5.53711 25.0984 5.53711C26.1547 5.53711 27.0172 6.39961 27.0172 7.45586Z" fill="#D0D0D0"/>
</g>
<defs>
<clipPath id="clip0_432_8412">
<rect width="32" height="32" fill="white" transform="translate(0.554688)"/>
</clipPath>
</defs>
</svg>
