<svg width="33" height="32" viewBox="0 0 33 32" fill="none" xmlns="http://www.w3.org/2000/svg">
<g clip-path="url(#clip0_432_8411)">
<path d="M30.4151 0H3.13956C2.51306 0 1.91222 0.248876 1.46922 0.691878C1.02622 1.13488 0.777344 1.73572 0.777344 2.36222V29.6377C0.777344 30.2642 1.02622 30.8651 1.46922 31.3081C1.91222 31.7511 2.51306 32 3.13956 32H30.4151C31.0416 32 31.6424 31.7511 32.0854 31.3081C32.5284 30.8651 32.7773 30.2642 32.7773 29.6377V2.36222C32.7773 1.73572 32.5284 1.13488 32.0854 0.691878C31.6424 0.248876 31.0416 0 30.4151 0ZM10.3151 27.26H5.50401V11.9778H10.3151V27.26ZM7.90622 9.85999C7.36049 9.85691 6.82789 9.69225 6.37565 9.38677C5.92341 9.08129 5.57179 8.6487 5.36517 8.14357C5.15856 7.63845 5.1062 7.08345 5.21471 6.5486C5.32322 6.01375 5.58774 5.52303 5.97488 5.13837C6.36201 4.75371 6.85442 4.49235 7.38996 4.38728C7.92549 4.2822 8.48015 4.33812 8.98394 4.54797C9.48772 4.75783 9.91805 5.11222 10.2206 5.56641C10.5232 6.0206 10.6844 6.55425 10.684 7.09999C10.6891 7.46537 10.6207 7.82804 10.4827 8.1664C10.3447 8.50475 10.14 8.81186 9.88076 9.06941C9.62155 9.32697 9.31313 9.5297 8.9739 9.66552C8.63467 9.80135 8.27156 9.86748 7.90622 9.85999ZM28.0484 27.2733H23.2395V18.9244C23.2395 16.4622 22.1929 15.7022 20.8418 15.7022C19.4151 15.7022 18.0151 16.7778 18.0151 18.9866V27.2733H13.204V11.9889H17.8307V14.1066H17.8929C18.3573 13.1667 19.984 11.56 22.4662 11.56C25.1506 11.56 28.0506 13.1533 28.0506 17.82L28.0484 27.2733Z" fill="#D0D0D0"/>
</g>
<defs>
<clipPath id="clip0_432_8411">
<rect width="32" height="32" fill="white" transform="translate(0.777344)"/>
</clipPath>
</defs>
</svg>
