<svg width="34" height="32" viewBox="0 0 34 32" fill="none" xmlns="http://www.w3.org/2000/svg">
<g clip-path="url(#clip0_432_8413)">
<path d="M10.8285 29.0007C23.4237 29.0007 30.3127 18.9962 30.3127 10.3204C30.3127 10.0362 30.3127 9.75332 30.2927 9.47172C31.6329 8.54233 32.7898 7.39157 33.7092 6.07332C32.4595 6.60453 31.1336 6.95273 29.776 7.10628C31.2057 6.28587 32.2756 4.99533 32.7867 3.47493C31.4425 4.23974 29.9718 4.77869 28.4383 5.06853C27.4058 4.01596 26.0403 3.31898 24.553 3.08544C23.0657 2.8519 21.5396 3.09481 20.2109 3.7766C18.8821 4.45838 17.8248 5.54102 17.2024 6.85699C16.5801 8.17295 16.4275 9.64887 16.7683 11.0564C14.0457 10.9254 11.3823 10.2471 8.95093 9.06533C6.51954 7.88359 4.37451 6.22487 2.65508 4.19685C1.77939 5.64217 1.51118 7.35315 1.90507 8.9814C2.29896 10.6097 3.32533 12.0328 4.7752 12.961C3.68537 12.9304 2.61927 12.6485 1.66712 12.1392V12.2224C1.66755 13.7382 2.21485 15.2072 3.2162 16.3803C4.21754 17.5533 5.61127 18.3581 7.161 18.6583C6.15284 18.9219 5.09506 18.9605 4.06894 18.7709C4.5067 20.0753 5.35867 21.216 6.50575 22.0335C7.65283 22.851 9.03767 23.3043 10.4667 23.3303C9.04686 24.4002 7.42095 25.1913 5.68194 25.6583C3.94293 26.1252 2.12496 26.2588 0.332031 26.0515C3.46369 27.9782 7.10749 29.0002 10.8285 28.9955" fill="#D0D0D0"/>
</g>
<defs>
<clipPath id="clip0_432_8413">
<rect width="33.3772" height="32" fill="white" transform="translate(0.332031)"/>
</clipPath>
</defs>
</svg>
