<svg width="148" height="50" viewBox="0 0 148 50" fill="none" xmlns="http://www.w3.org/2000/svg">
<rect x="0.25" y="0.25" width="147.5" height="49.5" rx="24.75" fill="#FFD028"/>
<path d="M21.2 30V18.8H27.664V20.448H23.04V24H27.664V25.648H23.04V30H21.2ZM29.5488 30V22.544H31.2928V23.984C31.4208 23.4827 31.6714 23.104 32.0448 22.848C32.4181 22.5813 32.8288 22.448 33.2768 22.448C33.5648 22.448 33.7941 22.4693 33.9648 22.512V24.112C33.7834 24.0907 33.5541 24.08 33.2768 24.08C32.6581 24.08 32.1728 24.3093 31.8208 24.768C31.4688 25.216 31.2928 25.8613 31.2928 26.704V30H29.5488ZM41.8858 25.888C41.8858 26.08 41.8698 26.4 41.8378 26.848H36.3018C36.3231 27.4347 36.5151 27.888 36.8778 28.208C37.2404 28.5173 37.7418 28.672 38.3818 28.672C39.2031 28.672 39.7578 28.3893 40.0458 27.824H41.8058C41.6884 28.5173 41.3098 29.088 40.6698 29.536C40.0404 29.9733 39.2778 30.192 38.3818 30.192C37.2084 30.192 36.2804 29.84 35.5978 29.136C34.9151 28.432 34.5738 27.4773 34.5738 26.272C34.5738 25.0773 34.9098 24.128 35.5818 23.424C36.2644 22.7093 37.1764 22.352 38.3178 22.352C39.3844 22.352 40.2431 22.6827 40.8938 23.344C41.5551 23.9947 41.8858 24.8427 41.8858 25.888ZM36.3018 25.52H40.1738C40.1631 24.944 39.9924 24.5013 39.6618 24.192C39.3418 23.8827 38.8831 23.728 38.2858 23.728C37.6778 23.728 37.1978 23.8933 36.8458 24.224C36.4938 24.5547 36.3124 24.9867 36.3018 25.52ZM50.4395 25.888C50.4395 26.08 50.4235 26.4 50.3915 26.848H44.8555C44.8768 27.4347 45.0688 27.888 45.4315 28.208C45.7942 28.5173 46.2955 28.672 46.9355 28.672C47.7568 28.672 48.3115 28.3893 48.5995 27.824H50.3595C50.2422 28.5173 49.8635 29.088 49.2235 29.536C48.5942 29.9733 47.8315 30.192 46.9355 30.192C45.7622 30.192 44.8342 29.84 44.1515 29.136C43.4688 28.432 43.1275 27.4773 43.1275 26.272C43.1275 25.0773 43.4635 24.128 44.1355 23.424C44.8182 22.7093 45.7302 22.352 46.8715 22.352C47.9382 22.352 48.7968 22.6827 49.4475 23.344C50.1088 23.9947 50.4395 24.8427 50.4395 25.888ZM44.8555 25.52H48.7275C48.7168 24.944 48.5462 24.5013 48.2155 24.192C47.8955 23.8827 47.4368 23.728 46.8395 23.728C46.2315 23.728 45.7515 23.8933 45.3995 24.224C45.0475 24.5547 44.8662 24.9867 44.8555 25.52ZM56.125 30V18.8H59.917C61.6877 18.8 63.069 19.3493 64.061 20.448C65.0637 21.536 65.565 22.8533 65.565 24.4C65.565 25.9467 65.0637 27.2693 64.061 28.368C63.069 29.456 61.6877 30 59.917 30H56.125ZM57.965 28.352H59.757C61.037 28.352 62.0077 27.968 62.669 27.2C63.341 26.432 63.677 25.4987 63.677 24.4C63.677 23.3013 63.341 22.368 62.669 21.6C62.0077 20.832 61.037 20.448 59.757 20.448H57.965V28.352ZM73.37 29.088C72.666 29.824 71.7113 30.192 70.506 30.192C69.3007 30.192 68.3407 29.824 67.626 29.088C66.922 28.3413 66.57 27.4027 66.57 26.272C66.57 25.1413 66.922 24.208 67.626 23.472C68.3407 22.7253 69.3007 22.352 70.506 22.352C71.7113 22.352 72.666 22.7253 73.37 23.472C74.0847 24.208 74.442 25.1413 74.442 26.272C74.442 27.4027 74.0847 28.3413 73.37 29.088ZM68.89 27.984C69.2847 28.4213 69.8233 28.64 70.506 28.64C71.1887 28.64 71.722 28.4213 72.106 27.984C72.5007 27.5467 72.698 26.976 72.698 26.272C72.698 25.568 72.5007 24.9973 72.106 24.56C71.722 24.1227 71.1887 23.904 70.506 23.904C69.8233 23.904 69.2847 24.1227 68.89 24.56C68.506 24.9973 68.314 25.568 68.314 26.272C68.314 26.976 68.506 27.5467 68.89 27.984ZM77.4739 30L74.7219 22.544H76.6419L78.1939 27.472L79.8099 22.544H81.6979L83.3139 27.472L84.8659 22.544H86.7859L84.0339 30H82.5619L80.7539 24.688L78.9459 30H77.4739ZM87.9406 30V22.544H89.6846V23.584C90.1646 22.7627 90.9753 22.352 92.1166 22.352C93.93 22.352 94.8366 23.3387 94.8366 25.312V30H93.0926V26.112C93.0926 25.3013 92.97 24.72 92.7246 24.368C92.4793 24.016 92.058 23.84 91.4606 23.84C90.8953 23.84 90.458 24.0213 90.1486 24.384C89.8393 24.736 89.6846 25.2427 89.6846 25.904V30H87.9406ZM96.9006 30V18.8H98.6446V30H96.9006ZM107.085 29.088C106.381 29.824 105.426 30.192 104.221 30.192C103.016 30.192 102.056 29.824 101.341 29.088C100.637 28.3413 100.285 27.4027 100.285 26.272C100.285 25.1413 100.637 24.208 101.341 23.472C102.056 22.7253 103.016 22.352 104.221 22.352C105.426 22.352 106.381 22.7253 107.085 23.472C107.8 24.208 108.157 25.1413 108.157 26.272C108.157 27.4027 107.8 28.3413 107.085 29.088ZM102.605 27.984C103 28.4213 103.538 28.64 104.221 28.64C104.904 28.64 105.437 28.4213 105.821 27.984C106.216 27.5467 106.413 26.976 106.413 26.272C106.413 25.568 106.216 24.9973 105.821 24.56C105.437 24.1227 104.904 23.904 104.221 23.904C103.538 23.904 103 24.1227 102.605 24.56C102.221 24.9973 102.029 25.568 102.029 26.272C102.029 26.976 102.221 27.5467 102.605 27.984ZM113.05 30.192C111.887 30.192 110.986 29.824 110.346 29.088C109.706 28.352 109.386 27.4133 109.386 26.272C109.386 25.1413 109.722 24.208 110.394 23.472C111.066 22.7253 111.967 22.352 113.098 22.352C113.599 22.352 114.058 22.4587 114.474 22.672C114.89 22.8853 115.21 23.1787 115.434 23.552V22.544H117.178V30H115.434V28.992C115.22 29.3547 114.884 29.648 114.426 29.872C113.978 30.0853 113.519 30.192 113.05 30.192ZM113.306 28.64C114.02 28.64 114.564 28.416 114.938 27.968C115.322 27.52 115.514 26.9547 115.514 26.272C115.514 25.5893 115.322 25.024 114.938 24.576C114.564 24.128 114.02 23.904 113.306 23.904C112.634 23.904 112.1 24.128 111.706 24.576C111.322 25.0133 111.13 25.5787 111.13 26.272C111.13 26.9653 111.322 27.536 111.706 27.984C112.1 28.4213 112.634 28.64 113.306 28.64ZM124.862 18.8H126.606V30H124.862V28.992C124.649 29.3547 124.313 29.648 123.854 29.872C123.406 30.0853 122.948 30.192 122.478 30.192C121.316 30.192 120.414 29.824 119.774 29.088C119.134 28.352 118.814 27.4133 118.814 26.272C118.814 25.1413 119.15 24.208 119.822 23.472C120.494 22.7253 121.396 22.352 122.526 22.352C123.028 22.352 123.486 22.4587 123.902 22.672C124.318 22.8853 124.638 23.1787 124.862 23.552V18.8ZM122.734 28.64C123.449 28.64 123.993 28.416 124.366 27.968C124.75 27.52 124.942 26.9547 124.942 26.272C124.942 25.5893 124.75 25.024 124.366 24.576C123.993 24.128 123.449 23.904 122.734 23.904C122.062 23.904 121.529 24.128 121.134 24.576C120.75 25.0133 120.558 25.5787 120.558 26.272C120.558 26.9653 120.75 27.536 121.134 27.984C121.529 28.4213 122.062 28.64 122.734 28.64Z" fill="#0B0B0B"/>
<rect x="0.25" y="0.25" width="147.5" height="49.5" rx="24.75" stroke="#FFC400" stroke-width="0.5"/>
</svg>
