<svg width="125" height="32" viewBox="0 0 125 32" fill="none" xmlns="http://www.w3.org/2000/svg">
<path d="M17.8688 12.4067C17.8698 13.4764 17.5411 14.5209 16.9266 15.4013C16.3121 16.2817 15.441 16.9561 14.429 17.3347V12.4067H14.4045C14.4045 11.9211 14.2094 11.4555 13.8622 11.1123C13.5151 10.769 13.0442 10.5761 12.5531 10.5761C12.0621 10.5761 11.5912 10.769 11.244 11.1123C10.8968 11.4555 10.7018 11.9211 10.7018 12.4067H10.6772V26.6673C10.6772 29.654 8.20515 32.0928 5.18436 31.9975C3.83905 31.9556 2.55982 31.4111 1.60434 30.4738C0.648862 29.5366 0.0881498 28.2761 0.035157 26.9464C0.035157 26.8771 0.035157 26.8095 0.035157 26.7401C0.0345747 25.6707 0.363868 24.6266 0.979099 23.747C1.59433 22.8674 2.46623 22.1942 3.47847 21.8172V26.9464H3.49075C3.54156 27.4002 3.75989 27.8195 4.10393 28.1241C4.44795 28.4286 4.89351 28.597 5.35529 28.597C5.81707 28.597 6.26263 28.4286 6.60666 28.1241C6.95069 27.8195 7.16902 27.4002 7.21983 26.9464H7.23035V12.4812C7.23035 9.4668 9.75849 7.01231 12.8038 7.15271C14.169 7.21772 15.4565 7.79961 16.3995 8.77777C17.3425 9.75593 17.8686 11.0553 17.8688 12.4067Z" fill="url(#paint0_linear_426_2408)"/>
<path d="M24.4837 8.47196C26.9381 16.3382 21.7013 23.5976 14.4237 24.6758C14.4221 23.7941 14.6582 22.9279 15.1075 22.1663C15.5567 21.4047 16.203 20.7751 16.9799 20.3423C20.5459 18.3697 22.6271 14.0881 21.1526 9.54321C20.3952 7.21005 17.8214 4.68969 15.4458 3.97033C9.2377 2.06358 3.53799 6.57042 3.47663 12.4068V15.8442C3.47493 16.4214 3.3037 16.9857 2.98374 17.4685C2.66379 17.9513 2.20889 18.3318 1.67432 18.5638H1.65679C1.0716 18.8256 0.516222 19.1481 0 19.5259V12.4068C0 4.2442 7.97363 -2.07924 16.638 0.640461C18.4877 1.22322 20.1674 2.23986 21.5336 3.60358C22.8998 4.96732 23.912 6.63763 24.4837 8.47196Z" fill="url(#paint1_linear_426_2408)"/>
<path d="M34.2219 25.1645C33.843 25.0594 33.4906 24.8768 33.1875 24.6285L33.5785 23.7408C33.8543 23.9543 34.165 24.1196 34.4971 24.2297C34.8486 24.3527 35.2186 24.4163 35.5915 24.4179C35.9436 24.4413 36.2952 24.3654 36.6053 24.199C36.7077 24.1398 36.7927 24.0549 36.8515 23.9529C36.9103 23.851 36.941 23.7355 36.9404 23.6181C36.9429 23.5366 36.9274 23.4556 36.8948 23.3806C36.8624 23.3057 36.8136 23.2388 36.7521 23.1845C36.6157 23.0623 36.4541 22.9709 36.2784 22.9165C36.086 22.851 35.8252 22.7774 35.4943 22.6956C35.1116 22.6087 34.7349 22.4973 34.3667 22.3622C34.0801 22.2504 33.8257 22.0706 33.6261 21.8386C33.4078 21.5662 33.2982 21.2242 33.3179 20.8772C33.3146 20.5485 33.4096 20.2261 33.591 19.9506C33.7964 19.655 34.0837 19.4242 34.4184 19.2858C34.8478 19.111 35.3094 19.0273 35.7736 19.0404C36.1436 19.0403 36.5123 19.0878 36.8701 19.1815C37.2022 19.2647 37.5178 19.403 37.8031 19.5906L37.4452 20.4783C37.1861 20.3236 36.908 20.2026 36.6176 20.1183C36.3434 20.0387 36.0593 19.9974 35.7736 19.9956C35.4254 19.9706 35.0777 20.0505 34.7764 20.2247C34.6729 20.2904 34.5884 20.3814 34.5312 20.4889C34.4738 20.5965 34.4457 20.7169 34.4495 20.8383C34.4464 20.9149 34.4594 20.9913 34.4875 21.0628C34.5156 21.1342 34.5583 21.1991 34.6129 21.2536C34.7523 21.3718 34.914 21.4615 35.0888 21.5174C35.2791 21.5808 35.5418 21.6545 35.8729 21.7363C36.2516 21.8188 36.6236 21.9288 36.9859 22.0656C37.2738 22.1772 37.5296 22.357 37.7307 22.5892C37.9493 22.8568 38.0598 23.1949 38.041 23.5383C38.0448 23.8661 37.949 24.1875 37.7659 24.4608C37.5606 24.7552 37.273 24.9841 36.9383 25.1195C36.5083 25.2944 36.0459 25.378 35.5812 25.365C35.1205 25.3666 34.6621 25.299 34.2219 25.1645Z" fill="white"/>
<path d="M41.6463 20.0954H39.625V19.1279H44.7971V20.0954H42.7758V25.2787H41.6463V20.0954Z" fill="white"/>
<path d="M47.5297 24.6507C47.0607 24.1734 46.8255 23.4916 46.8242 22.6053V19.1279H47.9579V22.5541C47.9579 23.7609 48.4744 24.3644 49.5075 24.3644C50.5406 24.3644 51.0543 23.7609 51.0487 22.5541V19.1279H52.1638V22.6053C52.1638 23.4957 51.9301 24.1775 51.4625 24.6507C50.995 25.1239 50.3405 25.3625 49.4992 25.3666C48.6564 25.3666 48 25.128 47.5297 24.6507Z" fill="white"/>
<path d="M55.0938 19.1276H57.7605C58.3604 19.1162 58.9542 19.2473 59.4921 19.5101C59.9816 19.7504 60.3904 20.1255 60.6693 20.5902C60.9434 21.0846 61.0871 21.6393 61.0871 22.2031C61.0871 22.7668 60.9434 23.3215 60.6693 23.8159C60.3904 24.2806 59.9816 24.6556 59.4921 24.8959C58.9542 25.1587 58.3604 25.2899 57.7605 25.2784H55.0938V19.1276ZM57.6964 24.3211C58.1054 24.3291 58.5105 24.24 58.8777 24.0613C59.2073 23.8974 59.4802 23.6404 59.6617 23.3229C59.8412 22.9792 59.9348 22.598 59.9348 22.2112C59.9348 21.8244 59.8412 21.4433 59.6617 21.0996C59.4802 20.7821 59.2073 20.525 58.8777 20.3611C58.5104 20.1831 58.1053 20.0947 57.6964 20.1033H56.2172V24.3211H57.6964Z" fill="white"/>
<path d="M68.1854 24.3214V25.2787H63.6133V19.1279H68.0634V20.0852H64.7533V21.6848H67.6972V22.6257H64.745V24.3214H68.1854Z" fill="white"/>
<path d="M76.1995 19.1279V25.2787H75.2665L71.9046 21.114V25.2787H70.7812V19.1279H71.7143L75.0761 23.2987V19.1279H76.1995Z" fill="white"/>
<path d="M80.402 20.0954H78.3828V19.1279H83.5549V20.0954H81.5357V25.2787H80.402V20.0954Z" fill="white"/>
<path d="M86.2063 25.1646C85.8276 25.059 85.4753 24.8765 85.1719 24.6287L85.565 23.741C85.8402 23.9552 86.151 24.1206 86.4835 24.2298C86.8344 24.3528 87.2037 24.4164 87.5759 24.418C87.928 24.4415 88.2795 24.3656 88.5896 24.1991C88.6924 24.14 88.7777 24.0552 88.8368 23.9533C88.896 23.8513 88.9271 23.7358 88.9269 23.6182C88.929 23.5368 88.9132 23.4559 88.8807 23.381C88.8483 23.3062 88.7997 23.2392 88.7386 23.1846C88.6018 23.0629 88.4402 22.9715 88.2649 22.9166C88.0724 22.8512 87.8117 22.7776 87.4807 22.6957C87.0979 22.6093 86.7211 22.498 86.3532 22.3622C86.0663 22.251 85.8118 22.071 85.6126 21.8386C85.3935 21.5665 85.2831 21.2245 85.3022 20.8772C85.2987 20.5482 85.3945 20.2256 85.5774 19.9507C85.7824 19.6546 86.0698 19.4237 86.4049 19.2859C86.8335 19.1108 87.2945 19.0272 87.7579 19.0404C88.1288 19.0402 88.4981 19.0877 88.8566 19.1816C89.1882 19.2643 89.5031 19.4027 89.7875 19.5907L89.4358 20.4722C89.1768 20.3175 88.8986 20.1965 88.6082 20.1122C88.3332 20.0329 88.0485 19.9916 87.7621 19.9895C87.4139 19.9645 87.0663 20.0444 86.7649 20.2186C86.6617 20.2846 86.5775 20.3757 86.5202 20.4831C86.463 20.5906 86.4347 20.7108 86.438 20.8322C86.4354 20.9134 86.4508 20.9942 86.4834 21.0688C86.516 21.1434 86.5647 21.21 86.6263 21.2638C86.7649 21.3821 86.9259 21.4718 87.1001 21.5277C87.2925 21.5911 87.5531 21.6647 87.8842 21.7465C88.2571 21.8286 88.6236 21.9373 88.9807 22.0718C89.268 22.1844 89.5235 22.364 89.7254 22.5954C89.9434 22.8633 90.0533 23.2014 90.0337 23.5446C90.0371 23.872 89.942 24.1931 89.7606 24.4671C89.5539 24.7602 89.2668 24.9888 88.933 25.1257C88.5022 25.3004 88.0392 25.384 87.5738 25.3712C87.11 25.3714 86.6489 25.3017 86.2063 25.1646Z" fill="white"/>
<path d="M38.3596 10.079C38.2191 10.3659 38.0147 10.6177 37.7617 10.8153C37.4966 11.018 37.1956 11.1699 36.8742 11.2633C36.5217 11.3667 36.1557 11.4177 35.788 11.4146H34.4019V13.6279H33.1875V6.7449H35.9329C36.3056 6.74025 36.6766 6.79551 37.0314 6.90853C37.3368 7.00581 37.6186 7.1646 37.8589 7.37491C38.0866 7.57648 38.2668 7.82507 38.3865 8.10308C38.513 8.40505 38.5758 8.72944 38.5706 9.05626C38.5797 9.4086 38.5076 9.75834 38.3596 10.079ZM36.9259 8.14808C36.6059 7.92615 36.2198 7.81668 35.8294 7.83717H34.4019V10.3244H35.8294C36.2266 10.3452 36.618 10.224 36.9321 9.98286C37.0642 9.87257 37.169 9.73406 37.2389 9.57779C37.3088 9.42151 37.3418 9.25156 37.3355 9.08081C37.3482 8.90423 37.3175 8.72724 37.2462 8.56487C37.1749 8.40249 37.0651 8.25951 36.9259 8.14808Z" fill="white"/>
<path d="M49.4783 13.6279H48.1915L47.486 11.967H44.1882L43.4704 13.6279H42.2188L45.2806 6.6958H46.4143L49.4783 13.6279ZM45.8289 8.14193L44.6352 10.8951H47.0309L45.8289 8.14193Z" fill="white"/>
<path d="M58.119 13.6279L56.3997 11.2306H54.8647V13.6279H53.6523V6.74492H56.7556C57.1215 6.74021 57.4858 6.79197 57.8356 6.89834C58.1337 6.98686 58.4109 7.13362 58.6507 7.32993C58.8696 7.51845 59.0416 7.75433 59.1534 8.01925C59.2764 8.30637 59.3377 8.61564 59.3334 8.92744C59.3376 9.19032 59.2956 9.45193 59.2092 9.70061C59.0527 10.1368 58.7469 10.5051 58.3444 10.7417C58.1373 10.8675 57.9129 10.9633 57.6783 11.026L59.5672 13.6279H58.119ZM57.7197 8.12766C57.4065 7.91596 57.0308 7.81373 56.6522 7.8372H54.8668V10.1567H56.6708C57.0422 10.174 57.408 10.0626 57.7052 9.84175C57.8322 9.73933 57.9334 9.60917 58.0009 9.46152C58.0684 9.31388 58.1003 9.15276 58.0942 8.99084C58.1057 8.82767 58.0776 8.66413 58.0122 8.51394C57.9466 8.36375 57.8456 8.23128 57.7176 8.12766H57.7197Z" fill="white"/>
<path d="M70.49 13.6279H69.197L68.4915 11.967H65.2L64.4842 13.6279H63.2305L66.2944 6.6958H67.4323L70.49 13.6279ZM66.8406 8.14193L65.6469 10.8951H68.0529L66.8406 8.14193Z" fill="white"/>
<path d="M78.0958 11.9364H78.0566L75.878 8.71285V13.622H74.6719V6.74512H75.9753L78.0855 10.0035L80.204 6.74921H81.4991V13.6281H80.2868V8.69239L78.0958 11.9364Z" fill="white"/>
<path d="M92.984 11.5542C92.8092 11.978 92.5519 12.3637 92.2268 12.6895C91.8968 13.018 91.5055 13.2799 91.0744 13.4607C90.6086 13.6555 90.1072 13.753 89.6015 13.7471C89.097 13.7528 88.5966 13.6575 88.1305 13.4668C87.7019 13.2897 87.3131 13.0304 86.9864 12.7038C86.6651 12.379 86.412 11.9946 86.2416 11.5727C85.883 10.6892 85.883 9.70299 86.2416 8.81951C86.4149 8.39544 86.6716 8.00957 86.9968 7.68428C87.3404 7.34321 87.7499 7.07399 88.2009 6.89266C88.6519 6.71134 89.1353 6.62161 89.6221 6.62882C90.1273 6.6219 90.6286 6.71727 91.0952 6.90905C91.5219 7.08369 91.9089 7.34111 92.2332 7.66607C92.5577 7.99103 92.8129 8.37698 92.984 8.8011C93.3426 9.68458 93.3426 10.6708 92.984 11.5542ZM91.7944 9.24906C91.6847 8.95947 91.5197 8.69349 91.3083 8.46564C91.0965 8.24099 90.841 8.06081 90.5573 7.93587C90.2574 7.80001 89.9313 7.73022 89.6015 7.73132C89.2847 7.7275 88.9707 7.78963 88.6798 7.91367C88.3889 8.03772 88.1278 8.22092 87.9133 8.45133C87.7037 8.67751 87.54 8.94138 87.4312 9.2286C87.1996 9.8406 87.1996 10.5147 87.4312 11.1267C87.5402 11.4151 87.7039 11.6803 87.9133 11.9081C88.1251 12.1328 88.3804 12.3129 88.6643 12.4379C88.9634 12.5734 89.2888 12.6432 89.6179 12.6424C89.9445 12.6463 90.2683 12.5814 90.5676 12.4522C90.8477 12.3298 91.0997 12.1523 91.3083 11.9306C91.5184 11.705 91.6822 11.4409 91.7902 11.1533C92.0219 10.5421 92.0219 9.86853 91.7902 9.25724L91.7944 9.24906Z" fill="white"/>
<path d="M103.564 10.6478C103.575 11.1056 103.505 11.5618 103.357 11.9958C103.23 12.3578 103.025 12.688 102.756 12.9633C102.493 13.2265 102.171 13.4254 101.816 13.5443C101.416 13.6769 100.996 13.7419 100.575 13.7365C100.159 13.7415 99.7456 13.6765 99.3521 13.5443C99.0004 13.425 98.6807 13.2285 98.4169 12.9695C98.1501 12.7004 97.9466 12.3763 97.8211 12.0203C97.6743 11.5981 97.6042 11.1535 97.6142 10.7071V6.74512H98.8265V10.658C98.8265 11.3003 98.9831 11.7885 99.2961 12.1226C99.464 12.2937 99.667 12.4272 99.8916 12.514C100.116 12.6008 100.357 12.6389 100.597 12.6258C100.834 12.6384 101.071 12.602 101.293 12.5188C101.516 12.4357 101.717 12.3078 101.887 12.143C102.201 11.8226 102.358 11.3453 102.358 10.7112V6.74512H103.571L103.564 10.6478Z" fill="white"/>
<path d="M113.08 6.74512H114.292V13.6281H113.271L109.441 8.73126V13.6281H108.227V6.74512H109.358L113.082 11.5048L113.08 6.74512Z" fill="white"/>
<path d="M122.011 13.6281H120.77V7.86603H118.57V6.74512H124.219V7.86603H122.011V13.6281Z" fill="white"/>
<defs>
<linearGradient id="paint0_linear_426_2408" x1="0.0316506" y1="19.5742" x2="17.8688" y2="19.5742" gradientUnits="userSpaceOnUse">
<stop stop-color="#F79632"/>
<stop offset="1" stop-color="#FFD028"/>
</linearGradient>
<linearGradient id="paint1_linear_426_2408" x1="0.815245" y1="30.5312" x2="16.353" y2="5.97843" gradientUnits="userSpaceOnUse">
<stop stop-color="#F79632"/>
<stop offset="1" stop-color="#FFD028"/>
</linearGradient>
</defs>
</svg>
