<svg width="428" height="44" viewBox="0 0 428 44" fill="none" xmlns="http://www.w3.org/2000/svg">
<path opacity="0.35" d="M388 15.5275H405C406.918 15.5275 408.472 17.0822 408.472 19V24C408.472 25.9178 406.918 27.4725 405 27.4725H388C386.082 27.4725 384.528 25.9178 384.528 24V19C384.528 17.0822 386.082 15.5275 388 15.5275Z" stroke="#FAFAFA" stroke-width="1.05509"/>
<path opacity="0.4" d="M410 20V24.2203C410.849 23.8629 411.401 23.0314 411.401 22.1102C411.401 21.1889 410.849 20.3574 410 20" fill="#FAFAFA"/>
<path d="M386 19C386 17.8954 386.895 17 388 17H405C406.105 17 407 17.8954 407 19V24C407 25.1046 406.105 26 405 26H388C386.895 26 386 25.1046 386 24V19Z" fill="#FAFAFA"/>
<path fill-rule="evenodd" clip-rule="evenodd" d="M368.5 18.5875C370.967 18.5876 373.339 19.5551 375.127 21.2898C375.261 21.4237 375.477 21.4221 375.609 21.286L376.896 19.9604C376.963 19.8915 377.001 19.798 377 19.7008C376.999 19.6035 376.961 19.5105 376.893 19.4423C372.201 14.8526 364.799 14.8526 360.107 19.4423C360.039 19.5105 360.001 19.6034 360 19.7007C359.999 19.7979 360.037 19.8914 360.104 19.9604L361.391 21.286C361.523 21.4223 361.739 21.424 361.873 21.2898C363.661 19.5549 366.034 18.5875 368.5 18.5875ZM368.536 22.5894C369.891 22.5893 371.198 23.1035 372.203 24.032C372.338 24.1638 372.552 24.1609 372.685 24.0255L373.97 22.7C374.038 22.6304 374.075 22.5361 374.074 22.4381C374.073 22.3401 374.034 22.2466 373.965 22.1784C370.906 19.2739 366.169 19.2739 363.109 22.1784C363.04 22.2466 363.001 22.3401 363 22.4382C362.999 22.5362 363.037 22.6305 363.105 22.7L364.39 24.0255C364.522 24.1609 364.736 24.1638 364.872 24.032C365.876 23.1041 367.182 22.5899 368.536 22.5894ZM371.15 25.1767C371.152 25.275 371.114 25.3698 371.045 25.4386L368.822 27.7289C368.756 27.7962 368.668 27.834 368.575 27.834C368.482 27.834 368.393 27.7962 368.328 27.7289L366.105 25.4386C366.036 25.3697 365.998 25.2749 366 25.1766C366.002 25.0783 366.044 24.9853 366.115 24.9194C367.535 23.6935 369.615 23.6935 371.035 24.9194C371.106 24.9853 371.148 25.0784 371.15 25.1767Z" fill="#FAFAFA"/>
<path d="M344 19C344 18.4477 344.448 18 345 18H346C346.552 18 347 18.4477 347 19V27C347 27.5523 346.552 28 346 28H345C344.448 28 344 27.5523 344 27V19Z" fill="#FAFAFA"/>
<path d="M349 17C349 16.4477 349.448 16 350 16H351C351.552 16 352 16.4477 352 17V27C352 27.5523 351.552 28 351 28H350C349.448 28 349 27.5523 349 27V17Z" fill="#FAFAFA"/>
<path d="M339 22.5C339 21.9477 339.448 21.5 340 21.5H341C341.552 21.5 342 21.9477 342 22.5V27C342 27.5523 341.552 28 341 28H340C339.448 28 339 27.5523 339 27V22.5Z" fill="#FAFAFA"/>
<path d="M334 25C334 24.4477 334.448 24 335 24H336C336.552 24 337 24.4477 337 25V27C337 27.5523 336.552 28 336 28H335C334.448 28 334 27.5523 334 27V25Z" fill="#FAFAFA"/>
<path d="M29.3032 25.229C29.3032 24.923 29.3542 24.6227 29.4562 24.328L31.5642 24.787C31.4849 24.9797 31.4452 25.161 31.4452 25.331C31.4452 25.6937 31.5982 25.9827 31.9042 26.198C32.2216 26.402 32.6239 26.504 33.1112 26.504C33.8592 26.504 34.4712 26.164 34.9472 25.484C35.4232 24.804 35.7066 23.8577 35.7972 22.645C35.1852 23.4723 34.2729 23.886 33.0602 23.886C31.8362 23.886 30.8276 23.512 30.0342 22.764C29.2522 22.016 28.8612 21.0697 28.8612 19.925C28.8612 18.7577 29.2749 17.7887 30.1022 17.018C30.9409 16.2473 32.0006 15.862 33.2812 15.862C34.7772 15.862 35.9219 16.338 36.7152 17.29C37.5199 18.242 37.9222 19.5963 37.9222 21.353C37.9222 22.815 37.6842 24.1467 37.2082 25.348C36.8456 26.2773 36.3016 26.9913 35.5762 27.49C34.8622 27.9887 34.0179 28.238 33.0432 28.238C31.8759 28.238 30.9579 27.9603 30.2892 27.405C29.6319 26.8383 29.3032 26.113 29.3032 25.229ZM34.9302 21.455C35.3609 21.0583 35.5762 20.5313 35.5762 19.874C35.5762 19.2167 35.3609 18.6897 34.9302 18.293C34.4996 17.8963 33.9669 17.698 33.3322 17.698C32.7202 17.698 32.1819 17.8963 31.7172 18.293C31.2639 18.6783 31.0372 19.2053 31.0372 19.874C31.0372 20.5427 31.2639 21.0697 31.7172 21.455C32.1819 21.8517 32.7202 22.05 33.3322 22.05C33.9669 22.05 34.4996 21.8517 34.9302 21.455ZM38.9616 22.05V19.772H41.2396V22.05H38.9616ZM38.9616 28V25.722H41.2396V28H38.9616ZM48.0034 28V26.028H42.2064V23.954L48.0034 16.1H50.2474V23.954H51.4544V26.028H50.2474V28H48.0034ZM44.5864 23.954H48.0034V19.262L44.5864 23.954ZM54.4263 28V18.871C53.8823 19.4037 53.0493 19.67 51.9273 19.67V17.596C52.5847 17.596 53.1173 17.477 53.5253 17.239C53.9447 17.001 54.2903 16.6213 54.5623 16.1H56.6703V28H54.4263Z" fill="#FAFAFA"/>
</svg>
