<svg width="13" height="13" viewBox="0 0 13 13" fill="none" xmlns="http://www.w3.org/2000/svg">
<path d="M11.8507 10.6923C11.8507 10.9023 11.8039 11.1182 11.7044 11.3282C11.605 11.5382 11.4763 11.7365 11.3067 11.9232C11.0201 12.2382 10.7042 12.4657 10.3474 12.6115C9.99649 12.7573 9.61629 12.8332 9.20685 12.8332C8.61024 12.8332 7.97268 12.6932 7.30003 12.4073C6.62738 12.1215 5.95473 11.7365 5.28792 11.2523C4.61527 10.7623 3.97772 10.2198 3.3694 9.619C2.76694 9.01234 2.22297 8.3765 1.73749 7.7115C1.25786 7.0465 0.871819 6.3815 0.59106 5.72234C0.310301 5.05734 0.169922 4.4215 0.169922 3.81484C0.169922 3.41817 0.240112 3.039 0.380491 2.689C0.520871 2.33317 0.743138 2.0065 1.05314 1.71484C1.42749 1.34734 1.83693 1.1665 2.26977 1.1665C2.43354 1.1665 2.59732 1.2015 2.74355 1.2715C2.89562 1.3415 3.03015 1.4465 3.13544 1.59817L4.49244 3.50567C4.59773 3.6515 4.67376 3.78567 4.72641 3.914C4.77905 4.0365 4.8083 4.159 4.8083 4.26984C4.8083 4.40984 4.76735 4.54984 4.68546 4.684C4.60942 4.81817 4.49829 4.95817 4.35791 5.09817L3.91338 5.559C3.84903 5.62317 3.81979 5.699 3.81979 5.79234C3.81979 5.839 3.82564 5.87984 3.83734 5.9265C3.85488 5.97317 3.87243 6.00817 3.88413 6.04317C3.98941 6.23567 4.17074 6.4865 4.4281 6.78984C4.69131 7.09317 4.97207 7.40234 5.27623 7.7115C5.59208 8.02067 5.89624 8.3065 6.20624 8.569C6.5104 8.82567 6.76191 9.00067 6.96078 9.10567C6.99003 9.11734 7.02512 9.13484 7.06607 9.15234C7.11286 9.16984 7.15965 9.17567 7.21229 9.17567C7.31173 9.17567 7.38777 9.14067 7.45211 9.0765L7.89664 8.639C8.04287 8.49317 8.18325 8.38234 8.31778 8.31234C8.45231 8.23067 8.58684 8.18984 8.73307 8.18984C8.84421 8.18984 8.96119 8.21317 9.08987 8.26567C9.21855 8.31817 9.35308 8.394 9.49931 8.49317L11.4354 9.864C11.5875 9.969 11.6927 10.0915 11.7571 10.2373C11.8156 10.3832 11.8507 10.529 11.8507 10.6923Z" fill="white"/>
<path d="M9.82113 5.24967C9.82113 4.89967 9.54622 4.36301 9.13678 3.92551C8.76243 3.52301 8.26525 3.20801 7.77393 3.20801" stroke="white" stroke-linecap="round" stroke-linejoin="round"/>
<path d="M11.8683 5.24984C11.8683 2.99234 10.0375 1.1665 7.77393 1.1665" stroke="white" stroke-linecap="round" stroke-linejoin="round"/>
</svg>
