<svg width="447" height="515" viewBox="0 0 447 515" fill="none" xmlns="http://www.w3.org/2000/svg">
<g clip-path="url(#clip0_104_2181)">
<path fill-rule="evenodd" clip-rule="evenodd" d="M69.082 160.272C69.082 171.862 59.7056 181.238 48.1162 181.238C36.5268 181.238 27.1504 171.862 27.1504 160.272C27.1504 148.683 36.5268 139.307 48.1162 139.307C59.7056 139.307 69.082 148.683 69.082 160.272ZM55.396 160.272L48.1162 152.993L40.8364 160.272L48.1162 167.552L55.396 160.272Z" fill="#EB8500"/>
<path d="M53.1252 143.15H48.3496V139.306H53.1252V143.15Z" fill="#EB8500"/>
<path d="M53.1244 181.237H48.2324V177.394H53.1244V181.237Z" fill="#EB8500"/>
<path fill-rule="evenodd" clip-rule="evenodd" d="M73.8554 160.272C73.8554 171.861 64.4791 181.238 52.8896 181.238C41.3002 181.238 31.9238 171.861 31.9238 160.272C31.9238 148.683 41.3002 139.306 52.8896 139.306C64.4791 139.306 73.8554 148.683 73.8554 160.272ZM60.1694 160.272L52.8896 152.992L45.6098 160.272L52.8896 167.552L60.1694 160.272Z" fill="#FFB900"/>
<path fill-rule="evenodd" clip-rule="evenodd" d="M52.8911 178.499C42.8741 178.499 34.7207 170.346 34.7207 160.27C34.7207 150.253 42.8741 142.1 52.8911 142.1C62.9081 142.1 71.1197 150.253 71.1197 160.27C71.1197 170.346 62.9081 178.499 52.8911 178.499ZM52.8911 142.974C43.34 142.974 35.5943 150.778 35.5943 160.27C35.5943 169.822 43.34 177.567 52.8911 177.567C62.4422 177.567 70.1879 169.822 70.1879 160.27C70.1879 150.778 62.4422 142.974 52.8911 142.974Z" fill="#EB8500"/>
<path fill-rule="evenodd" clip-rule="evenodd" d="M278.389 396.485C278.389 408.075 269.013 417.451 257.423 417.451C245.892 417.451 236.516 408.075 236.516 396.485C236.516 384.896 245.892 375.52 257.423 375.52C269.013 375.52 278.389 384.896 278.389 396.485ZM264.761 396.485L257.423 389.206L250.143 396.485L257.423 403.765L264.761 396.485Z" fill="#EB8500"/>
<path d="M262.488 379.363H257.713V375.52H262.488V379.363Z" fill="#EB8500"/>
<path d="M262.493 417.452H257.543V413.608H262.493V417.452Z" fill="#EB8500"/>
<path fill-rule="evenodd" clip-rule="evenodd" d="M283.168 396.486C283.168 408.076 273.792 417.452 262.261 417.452C250.671 417.452 241.295 408.076 241.295 396.486C241.295 384.897 250.671 375.521 262.261 375.521C273.792 375.521 283.168 384.897 283.168 396.486ZM269.541 396.486L262.261 389.207L254.923 396.486L262.261 403.766L269.541 396.486Z" fill="#FFB900"/>
<path fill-rule="evenodd" clip-rule="evenodd" d="M262.258 414.715C252.183 414.715 244.029 406.562 244.029 396.486C244.029 386.469 252.183 378.316 262.258 378.316C272.275 378.316 280.428 386.469 280.428 396.486C280.428 406.562 272.275 414.715 262.258 414.715ZM262.258 379.189C252.707 379.189 244.961 386.993 244.961 396.486C244.961 406.037 252.707 413.783 262.258 413.783C271.751 413.783 279.496 406.037 279.496 396.486C279.496 386.993 271.751 379.189 262.258 379.189Z" fill="#EB8500"/>
<path d="M193.308 5.18262L192.667 74.6609C192.667 74.6609 113.055 71.5743 90.459 117.99V36.9225C90.459 36.9225 90.459 7.97806 193.308 5.18262Z" fill="#D1D0F4"/>
<path d="M185.155 21.9551C185.155 22.5374 184.572 23.0033 183.99 23.0033C183.815 22.9451 170.129 22.0715 152.658 24.6923C136.584 27.1383 113.987 33.1951 97.3311 48.1623C94.7104 50.5501 92.4391 53.0543 90.459 55.675V52.0643C92.0897 50.0842 93.8756 48.2205 95.8169 46.4734C103.388 39.7177 112.706 34.1269 123.597 29.8755C132.274 26.5559 141.942 24.0516 152.366 22.4792C170.071 19.742 183.99 20.7321 184.106 20.7321C184.747 20.7321 185.213 21.3144 185.155 21.9551Z" fill="white"/>
<path d="M185.155 35.2922C185.155 35.9328 184.63 36.3987 183.99 36.3405C183.815 36.3405 169.896 35.5251 152.541 38.3206C136.642 40.883 114.511 47.1145 99.6024 62.3147C95.9334 66.042 92.905 70.0022 90.459 74.0789V69.8857C92.7109 66.6244 95.2151 63.5572 97.9717 60.6841C104.786 53.812 113.521 48.1046 124.063 43.795C132.391 40.3007 141.883 37.7382 152.25 36.0493C169.78 33.2538 183.99 34.0692 184.106 34.0692C184.747 34.1274 185.213 34.6516 185.155 35.2922Z" fill="white"/>
<path d="M185.213 47.5805C185.155 48.1629 184.63 48.687 183.99 48.6288C183.873 48.6288 170.013 48.1046 152.774 51.1912C136.991 54.0449 114.977 60.6259 100.068 75.7678C96.1663 79.7863 93.0215 83.9794 90.459 88.2891V84.0377C92.8273 80.5045 95.5063 77.2238 98.4959 74.1954C105.252 67.265 113.987 61.5577 124.412 57.0733C132.74 53.5208 142.175 50.7836 152.425 48.9782C169.896 45.8333 183.932 46.3575 184.106 46.3575C184.747 46.4157 185.213 46.9399 185.213 47.5805Z" fill="white"/>
<path d="M184.745 60.4511C184.687 61.0917 184.221 61.5576 183.581 61.5576C183.406 61.5576 169.545 61.3247 152.423 64.819C136.699 68.0221 114.859 75.0689 100.3 90.6186C96.4561 94.6952 93.4277 98.9466 90.9235 103.314L90.8652 99.0631C93.1171 95.4912 95.7184 92.1522 98.6692 89.0461C105.25 81.9993 113.869 76.059 124.236 71.3417C132.447 67.6144 141.824 64.6443 152.016 62.6059C169.429 59.0534 183.464 59.2863 183.639 59.2863C184.221 59.3446 184.745 59.8105 184.745 60.4511Z" fill="white"/>
<path d="M113.055 58.1211V139.364C113.055 139.364 91.6238 133.947 90.459 117.175V36.5146C90.459 36.5146 97.3894 55.0927 113.055 58.1211Z" fill="#A9B7DE"/>
<path fill-rule="evenodd" clip-rule="evenodd" d="M39.7873 112.342C39.632 112.342 39.4767 112.303 39.3214 112.225C39.0302 112.051 38.8555 111.76 38.8555 111.41V89.8037C38.8555 89.4542 39.0884 89.1631 39.3796 88.9883L47.4165 84.7369C47.7077 84.6205 48.0571 84.6205 48.3483 84.7952C48.6395 84.9699 48.8142 85.2611 48.8142 85.6105V107.217C48.8142 107.566 48.5813 107.858 48.2901 108.032L40.2532 112.284C40.0979 112.322 39.9426 112.342 39.7873 112.342ZM40.7191 90.3861V109.896L46.9506 106.635V87.1247L40.7191 90.3861Z" fill="#A9B7DE"/>
<path fill-rule="evenodd" clip-rule="evenodd" d="M69.4914 108.149H47.8849C47.3608 108.149 46.9531 107.741 46.9531 107.217V85.6105C46.9531 85.0864 47.3608 84.6787 47.8849 84.6787H69.4914C70.0155 84.6787 70.4232 85.0864 70.4232 85.6105V107.217C70.4232 107.741 70.0155 108.149 69.4914 108.149ZM48.8168 106.285H68.5596V86.5423H48.8168V106.285Z" fill="#A9B7DE"/>
<path fill-rule="evenodd" clip-rule="evenodd" d="M61.4526 112.341H39.7879C39.3802 112.341 38.9726 112.05 38.9143 111.643C38.7979 111.235 38.9726 110.827 39.3802 110.594L47.4171 106.401C47.5724 106.324 47.7277 106.285 47.883 106.285H69.4895C69.8971 106.285 70.3048 106.576 70.4213 106.984C70.4795 107.391 70.3048 107.857 69.9554 108.032L61.8602 112.283C61.7438 112.322 61.6079 112.341 61.4526 112.341ZM43.5734 110.478H61.2196L65.704 108.148H48.116L43.5734 110.478Z" fill="#A9B7DE"/>
<path fill-rule="evenodd" clip-rule="evenodd" d="M410.821 270.109L402.784 265.916C402.493 265.741 402.26 265.392 402.26 265.043V243.436C402.26 243.087 402.434 242.795 402.726 242.621C403.017 242.446 403.366 242.446 403.657 242.621L411.694 246.814C411.986 246.989 412.219 247.338 412.219 247.688V269.294C412.219 269.585 412.044 269.935 411.753 270.109C411.597 270.187 411.442 270.226 411.287 270.226C411.131 270.226 410.976 270.187 410.821 270.109ZM404.123 245.009V264.518L410.355 267.721V248.212L404.123 245.009Z" fill="#A9B7DE"/>
<path fill-rule="evenodd" clip-rule="evenodd" d="M380.66 265.042V243.436C380.66 242.912 381.068 242.504 381.592 242.504H403.198C403.723 242.504 404.13 242.912 404.13 243.436V265.042C404.13 265.566 403.723 265.974 403.198 265.974H381.592C381.068 265.974 380.66 265.566 380.66 265.042ZM402.267 244.368H382.524V264.11H402.267V244.368Z" fill="#A9B7DE"/>
<path fill-rule="evenodd" clip-rule="evenodd" d="M389.216 270.109L381.18 265.916C380.772 265.683 380.597 265.275 380.655 264.867C380.772 264.402 381.18 264.11 381.587 264.11H403.194C403.349 264.11 403.504 264.149 403.66 264.227L411.697 268.478C412.104 268.653 412.279 269.119 412.162 269.527C412.104 269.934 411.697 270.225 411.289 270.225H389.624C389.469 270.225 389.333 270.187 389.216 270.109ZM402.961 265.974H385.373L389.857 268.362H407.503L402.961 265.974Z" fill="#A9B7DE"/>
<path d="M269.073 43.3293L274.781 55.5011L260.454 50.3179C256.843 52.1233 252.767 53.1133 248.457 53.1133C233.781 53.1133 221.9 41.2327 221.9 26.5567C221.9 11.8806 233.781 0 248.457 0C263.133 0 275.072 11.8806 275.072 26.5567C275.072 32.9046 272.801 38.7867 269.073 43.3293Z" fill="#0958D1"/>
<path d="M262.549 25.8578C262.549 27.1391 262.374 28.3815 262.025 29.5851C261.986 29.7404 261.947 29.8957 261.908 30.051C260.569 34.2441 257.366 37.5637 253.289 39.0779C253.134 39.1168 252.979 39.175 252.823 39.2526C251.426 39.6603 249.97 39.8933 248.455 39.8933C247.174 39.8933 245.932 39.738 244.728 39.4274C244.573 39.3497 244.418 39.2915 244.262 39.2526C241.874 38.4955 239.778 37.1561 238.089 35.3507C237.972 35.1954 237.856 35.0401 237.74 34.8848C236.051 32.9047 234.886 30.4587 234.536 27.7215C234.498 27.5273 234.478 27.3332 234.478 27.1391C234.439 26.712 234.42 26.2849 234.42 25.8578C234.42 20.3252 237.565 15.5497 242.224 13.2201C242.379 13.1425 242.534 13.0648 242.69 12.9872C244.437 12.2301 246.417 11.7642 248.455 11.7642C248.649 11.7642 248.844 11.7642 249.038 11.7642C249.193 11.7642 249.348 11.7836 249.504 11.8224C250.746 11.9 251.93 12.133 253.056 12.5213C253.212 12.5601 253.367 12.6183 253.522 12.696C257.541 14.2684 260.685 17.588 261.967 21.7812C262.005 21.9365 262.044 22.0918 262.083 22.2471C262.161 22.5188 262.219 22.7906 262.258 23.0624C262.297 23.2565 262.336 23.4312 262.374 23.5865C262.491 24.3242 262.549 25.0813 262.549 25.8578Z" fill="#FFB900"/>
<path d="M242.688 12.9868C242.572 15.5493 241.756 18.1118 240.533 20.3248C238.961 23.1203 236.806 25.5081 234.535 27.7211C234.496 27.527 234.477 27.3329 234.477 27.1387C236.515 25.1586 238.379 23.0038 239.835 20.5578C241.174 18.3447 242.048 15.7823 242.222 13.2198C242.378 13.1421 242.533 13.0645 242.688 12.9868Z" fill="#EB8500"/>
<path d="M262.087 22.2468C259.349 22.305 256.67 21.1985 254.981 18.9272C253.584 17.1218 252.885 14.7923 253.06 12.521C253.215 12.5598 253.37 12.6181 253.525 12.6957C253.351 15.7241 254.69 18.8107 257.253 20.4996C258.65 21.3732 260.339 21.8391 261.97 21.7809C262.009 21.9362 262.048 22.0915 262.087 22.2468Z" fill="#EB8500"/>
<path d="M262.377 23.5862C261.639 23.3532 260.882 23.2173 260.106 23.1785C254.981 22.9456 249.681 25.974 246.886 30.2254C245.08 32.9626 244.323 36.2821 244.731 39.427C244.576 39.3494 244.42 39.2911 244.265 39.2523C244.11 38.1652 244.11 37.0781 244.265 35.9909C244.847 30.6913 248.633 26.3234 253.408 24.1103C256.087 22.8873 259.407 22.3632 262.261 23.062C262.299 23.2562 262.338 23.4309 262.377 23.5862Z" fill="#EB8500"/>
<path d="M262.026 29.5852C261.987 29.7405 261.948 29.8958 261.909 30.0511C259.289 30.0511 256.784 31.5653 255.27 33.7201C254.105 35.2925 253.523 37.1562 253.29 39.078C253.135 39.1169 252.98 39.1751 252.824 39.2527C252.999 37.0397 253.698 34.9431 255.037 33.1377C256.726 30.9829 259.347 29.5269 262.026 29.5852Z" fill="#EB8500"/>
<path d="M249.446 14.3266C249.213 16.9474 248.398 19.5099 247 21.7812C245.544 24.1689 243.506 26.149 241.7 28.3038C240.012 30.4004 238.73 32.73 238.09 35.3507C237.973 35.1954 237.857 35.0401 237.74 34.8848C238.264 32.7882 239.196 30.8663 240.536 29.0609C242.225 26.7896 244.379 24.8095 246.01 22.4218C248.223 19.3351 249.213 15.5497 249.038 11.7642C249.194 11.7642 249.349 11.7836 249.504 11.8224C249.543 12.6377 249.524 13.4725 249.446 14.3266Z" fill="#EB8500"/>
<path d="M260.394 18.4024C261.908 18.3441 263.364 18.4024 264.82 18.6353C265.926 18.81 266.975 19.3342 267.382 20.4407C267.848 21.5472 267.324 22.712 266.625 23.5856C265.926 24.4591 265.053 25.0998 264.121 25.7404C263.577 26.1286 263.034 26.4975 262.49 26.8469C262.024 27.1575 261.539 27.4681 261.034 27.7787C258.938 29.06 256.783 30.2053 254.57 31.2148C250.086 33.2531 245.368 34.7673 240.534 35.6991C239.952 35.7768 239.35 35.8738 238.729 35.9903C238.108 36.068 237.487 36.1456 236.865 36.2233C235.584 36.398 234.303 36.5727 233.022 36.3398C230.983 35.9903 229.061 34.3014 229.469 32.0301C229.819 29.8753 232.265 28.3029 233.895 27.0216C234.089 26.9051 234.264 26.7887 234.419 26.6722L234.711 28.827C233.954 29.4094 233.196 30.05 232.498 30.6906C231.857 31.273 231.1 32.0884 231.391 33.0202C232.032 35.0003 234.944 34.5344 236.458 34.3596C236.73 34.3208 236.982 34.282 237.215 34.2432C239.04 34.0102 240.826 33.6802 242.573 33.2531C246.591 32.3213 250.493 31.0401 254.22 29.2929C256.045 28.3999 257.831 27.4487 259.578 26.4392C260.51 25.8569 261.559 25.2745 262.49 24.6339C263.189 24.1097 263.888 23.6438 264.529 23.0614C264.995 22.6537 266.043 21.6055 265.519 20.9066C265.111 20.3825 264.005 20.4407 263.364 20.3825C262.743 20.3436 262.102 20.3242 261.442 20.3242L260.394 18.4024Z" fill="#FBFFFD"/>
<path d="M398.71 363.698H278.448C274.953 363.698 272.1 360.903 272.1 357.409V290.609C272.1 287.115 274.953 284.261 278.448 284.261H398.71C402.204 284.261 405.058 287.115 405.058 290.609V357.409C405.058 360.903 402.204 363.698 398.71 363.698Z" fill="#D1D0F4"/>
<path fill-rule="evenodd" clip-rule="evenodd" d="M338.549 344.014C326.028 344.014 315.895 333.822 315.895 321.301C315.895 308.78 326.028 298.588 338.549 298.588C351.07 298.588 361.262 308.78 361.262 321.301C361.262 333.822 351.07 344.014 338.549 344.014ZM338.549 299.287C326.436 299.287 316.535 309.129 316.535 321.301C316.535 333.414 326.436 343.315 338.549 343.315C350.721 343.315 360.622 333.414 360.622 321.301C360.622 309.129 350.721 299.287 338.549 299.287ZM334.181 309.013L350.663 318.272C352.41 319.263 352.468 321.767 350.779 322.873L334.298 333.473C332.492 334.637 330.163 333.356 330.163 331.201V311.342C330.163 309.304 332.376 308.023 334.181 309.013Z" fill="white"/>
<path d="M393.469 353.914H283.689V351.992H393.469V353.914Z" fill="#A9B7DE"/>
<path d="M353.401 353.914H283.689V351.992H353.401V353.914Z" fill="white"/>
<path d="M356.489 352.516C356.489 354.263 355.091 355.661 353.344 355.661C351.597 355.661 350.199 354.263 350.199 352.516C350.199 350.827 351.597 349.371 353.344 349.371C355.091 349.371 356.489 350.827 356.489 352.516Z" fill="white"/>
<path d="M293.299 404.931C293.26 404.931 293.202 404.931 293.124 404.931C292.251 404.814 291.785 404.698 291.785 404.698C291.261 404.581 290.97 404.057 291.086 403.591C291.203 403.125 291.668 402.776 292.134 402.892C292.193 402.892 292.6 403.009 293.474 403.183C293.94 403.242 294.289 403.708 294.173 404.232C294.114 404.639 293.707 404.931 293.299 404.931Z" fill="#A9B7DE"/>
<path d="M305.823 405.921C305.299 405.921 304.891 405.571 304.891 405.047C304.891 404.523 305.299 404.115 305.823 404.115C306.677 404.115 307.531 404.096 308.385 404.057C308.851 404.057 309.317 404.465 309.317 404.931C309.317 405.455 308.968 405.862 308.444 405.862C307.589 405.901 306.716 405.921 305.823 405.921ZM300.814 405.804C300.814 405.804 300.795 405.804 300.756 405.804C299.902 405.765 299.028 405.707 298.135 405.63C297.669 405.571 297.262 405.105 297.32 404.64C297.378 404.115 297.844 403.766 298.31 403.824C299.164 403.902 300.018 403.96 300.873 403.999C301.397 403.999 301.746 404.465 301.746 404.931C301.688 405.455 301.338 405.804 300.814 405.804ZM313.394 405.513C312.928 405.513 312.52 405.164 312.52 404.698C312.462 404.232 312.811 403.766 313.277 403.708C314.132 403.63 314.986 403.514 315.84 403.358C316.306 403.3 316.772 403.649 316.888 404.115C316.946 404.639 316.597 405.105 316.131 405.164C315.238 405.319 314.364 405.435 313.51 405.513C313.471 405.513 313.433 405.513 313.394 405.513ZM320.848 404.232C320.441 404.232 320.091 403.941 319.975 403.533C319.858 403.067 320.149 402.543 320.674 402.485C321.489 402.252 322.304 402.038 323.12 401.844C323.644 401.669 324.11 401.961 324.284 402.426C324.401 402.951 324.11 403.417 323.644 403.591C322.79 403.824 321.935 404.038 321.081 404.232C321.004 404.232 320.926 404.232 320.848 404.232ZM328.128 402.019C327.779 402.019 327.429 401.786 327.255 401.436C327.08 400.97 327.313 400.446 327.779 400.272C328.594 399.961 329.39 399.631 330.166 399.282C330.632 399.107 331.157 399.282 331.331 399.747C331.564 400.213 331.331 400.738 330.865 400.97C330.089 401.32 329.273 401.65 328.419 401.961C328.342 401.999 328.245 402.019 328.128 402.019ZM334.942 398.757C334.651 398.757 334.36 398.583 334.185 398.292C333.952 397.884 334.068 397.301 334.534 397.069C335.233 396.641 335.951 396.195 336.689 395.729C337.097 395.438 337.679 395.554 337.912 395.962C338.203 396.428 338.087 396.952 337.679 397.243C336.942 397.748 336.184 398.214 335.408 398.641C335.253 398.719 335.097 398.757 334.942 398.757ZM341.174 394.448C340.941 394.448 340.649 394.331 340.475 394.098C340.125 393.691 340.183 393.167 340.591 392.817C341.251 392.274 341.892 391.711 342.513 391.128C342.862 390.779 343.445 390.779 343.794 391.186C344.144 391.536 344.085 392.118 343.736 392.468C343.076 393.05 342.416 393.632 341.756 394.215C341.581 394.331 341.348 394.448 341.174 394.448ZM346.531 389.09C346.357 389.09 346.124 389.032 345.949 388.857C345.6 388.566 345.541 387.983 345.833 387.576C346.376 386.954 346.92 386.294 347.463 385.596C347.754 385.188 348.337 385.13 348.686 385.421C349.094 385.712 349.21 386.294 348.861 386.702C348.356 387.401 347.813 388.08 347.23 388.74C347.056 388.973 346.823 389.09 346.531 389.09ZM350.958 382.917C350.802 382.917 350.647 382.878 350.492 382.8C350.026 382.509 349.909 381.985 350.142 381.577C350.608 380.839 351.035 380.082 351.423 379.306C351.656 378.898 352.181 378.723 352.646 378.956C353.112 379.189 353.287 379.714 352.996 380.179C352.608 380.956 352.181 381.732 351.715 382.509C351.54 382.742 351.249 382.917 350.958 382.917Z" fill="#A9B7DE"/>
<path d="M354.333 376.161C354.217 376.161 354.1 376.122 353.984 376.044C353.518 375.869 353.343 375.345 353.518 374.879C353.712 374.452 353.886 374.045 354.042 373.656C354.217 373.19 354.741 372.958 355.207 373.132C355.672 373.307 355.905 373.831 355.731 374.297C355.537 374.724 355.362 375.151 355.207 375.578C355.032 375.928 354.741 376.161 354.333 376.161Z" fill="#A9B7DE"/>
<path d="M22.4893 128.881C22.1981 128.881 21.9069 128.706 21.7322 128.415C21.6934 128.376 21.5963 128.202 21.441 127.891C21.1498 127.483 21.3245 126.901 21.7904 126.668C22.1981 126.435 22.7805 126.61 23.0134 127.018C23.1687 127.328 23.2658 127.503 23.3046 127.542C23.3823 127.658 23.4211 127.813 23.4211 128.008C23.4211 128.474 23.0134 128.881 22.4893 128.881ZM19.8686 123.698C19.5191 123.698 19.2279 123.523 19.0532 123.174C18.665 122.358 18.2961 121.504 17.9467 120.611C17.772 120.145 18.0049 119.621 18.4708 119.447C18.9368 119.272 19.4609 119.505 19.6356 119.971C19.985 120.786 20.3345 121.601 20.6839 122.417C20.9169 122.883 20.6839 123.407 20.2762 123.64C20.1209 123.679 19.9851 123.698 19.8686 123.698ZM16.9567 116.302C16.6072 116.302 16.2578 116.069 16.1413 115.661C15.8307 114.807 15.5395 113.933 15.2677 113.04C15.1513 112.574 15.4425 112.05 15.9084 111.934C16.3743 111.817 16.8984 112.05 17.0149 112.516C17.2867 113.409 17.5585 114.283 17.8302 115.137C18.0049 115.603 17.7138 116.127 17.2478 116.243C17.1702 116.282 17.0731 116.302 16.9567 116.302ZM14.8601 108.673C14.4524 108.673 14.0447 108.381 13.9865 107.974C13.7535 107.042 13.5594 106.129 13.4041 105.236C13.3459 104.771 13.6371 104.305 14.1612 104.188C14.6271 104.072 15.093 104.421 15.2095 104.945C15.3648 105.799 15.5395 106.673 15.7336 107.566C15.8501 108.032 15.5007 108.556 15.0348 108.614C14.9571 108.653 14.8989 108.673 14.8601 108.673ZM13.5788 100.81C13.1129 100.81 12.7053 100.461 12.7053 99.995C12.5888 99.0632 12.5111 98.1508 12.4723 97.2578C12.4723 96.7336 12.8217 96.326 13.3459 96.2677C13.8118 96.2677 14.2777 96.6754 14.2777 97.1413C14.3165 98.0343 14.3942 98.9273 14.5106 99.8203C14.5106 100.344 14.1612 100.752 13.6953 100.81C13.6565 100.81 13.6177 100.81 13.5788 100.81ZM13.3459 92.8899C13.3459 92.8899 13.3265 92.8899 13.2876 92.8899C12.8217 92.8899 12.4141 92.424 12.4141 91.9581C12.4529 91.0263 12.5111 90.0945 12.5888 89.1627C12.647 88.6968 13.1129 88.3473 13.5788 88.3473C14.103 88.4056 14.4524 88.8715 14.3942 89.3374C14.3165 90.2304 14.2583 91.1234 14.2194 92.0163C14.2194 92.4823 13.8118 92.8899 13.3459 92.8899ZM14.2777 85.0277C14.2 85.0277 14.1418 85.0083 14.103 84.9695C13.5788 84.9113 13.2876 84.4454 13.3459 83.9212C13.54 83.0282 13.7535 82.1352 13.9865 81.2423C14.103 80.7181 14.6271 80.4269 15.093 80.6016C15.5589 80.7181 15.8501 81.184 15.7336 81.7082C15.5007 82.5623 15.3066 83.4165 15.1513 84.2707C15.0348 84.7366 14.6854 85.0277 14.2777 85.0277ZM16.4325 77.3985C16.316 77.3985 16.219 77.3791 16.1413 77.3403C15.6754 77.1656 15.4425 76.6414 15.6172 76.1755C15.9278 75.3214 16.2772 74.4672 16.6655 73.613C16.8402 73.1471 17.4226 72.9142 17.8885 73.1471C18.2961 73.3801 18.5291 73.9042 18.2961 74.3701C17.9467 75.1467 17.6167 75.962 17.3061 76.8161C17.1314 77.1656 16.7819 77.3985 16.4325 77.3985ZM19.8686 70.2352C19.7133 70.2352 19.5774 70.1964 19.4609 70.1187C18.995 69.8858 18.8785 69.3034 19.1115 68.8957C19.5774 68.0804 20.0821 67.3039 20.6257 66.5662C20.8586 66.1003 21.441 66.0421 21.8487 66.275C22.2563 66.5662 22.3728 67.1486 22.0816 67.5563C21.6157 68.2939 21.1498 69.051 20.6839 69.8276C20.5092 70.1187 20.218 70.2352 19.8686 70.2352ZM24.5276 63.829C24.2947 63.829 24.0617 63.7125 23.9453 63.5961C23.5376 63.2466 23.4793 62.6642 23.8288 62.3148C24.45 61.6159 25.0712 60.9365 25.6924 60.2765C26.0418 59.927 26.6242 59.927 26.9737 60.2765C27.3813 60.6259 27.3813 61.2083 27.0319 61.5577C26.3719 62.1789 25.7506 62.8195 25.1683 63.4796C24.9935 63.7125 24.7606 63.829 24.5276 63.829ZM30.235 58.3546C30.002 58.3546 29.7109 58.2381 29.5361 58.0052C29.2449 57.5975 29.3032 57.0734 29.7109 56.7239C30.4485 56.1804 31.1862 55.6368 31.9239 55.0933C32.3898 54.8021 32.914 54.9185 33.2052 55.3262C33.4964 55.7339 33.3799 56.3163 32.9722 56.6075C32.2345 57.1122 31.5162 57.6363 30.8174 58.1799C30.6621 58.2964 30.468 58.3546 30.235 58.3546ZM36.9324 54.1032C36.583 54.1032 36.2918 53.9285 36.1171 53.5791C35.8841 53.1714 36.0588 52.589 36.5247 52.3561C37.3401 51.9678 38.1748 51.5795 39.029 51.1913C39.4949 50.9583 40.019 51.1913 40.1938 51.6572C40.4267 52.1231 40.1938 52.6473 39.7861 52.822C38.9319 53.2102 38.1166 53.5985 37.3401 53.9867C37.2236 54.0644 37.0877 54.1032 36.9324 54.1032ZM44.2704 51.0166C43.8628 51.0166 43.5133 50.7836 43.3969 50.4342C43.2222 49.9683 43.5133 49.4441 43.9793 49.2694C44.8334 48.9976 45.707 48.7259 46.6 48.4541C47.1241 48.3376 47.59 48.6288 47.7648 49.0947C47.8812 49.6189 47.59 50.0848 47.1241 50.2012C46.2311 50.473 45.377 50.7448 44.5616 51.0166C44.4452 51.0166 44.3481 51.0166 44.2704 51.0166ZM51.9579 49.0947C51.492 49.0947 51.1426 48.8035 51.0843 48.3376C50.9679 47.8717 51.3173 47.4058 51.7832 47.2893C52.6762 47.134 53.5886 46.9981 54.5204 46.8817C54.9863 46.7652 55.4522 47.1146 55.5105 47.6388C55.6269 48.1047 55.2775 48.5706 54.7534 48.6288C53.8604 48.7841 52.9868 48.9394 52.1326 49.0947C52.055 49.0947 51.9967 49.0947 51.9579 49.0947ZM78.3399 49.0365C78.3011 49.0365 78.2428 49.0365 78.1652 49.0365C78.1652 49.0365 77.2334 48.8035 75.5445 48.5706C75.0786 48.5123 74.7291 48.0464 74.7873 47.5805C74.8456 47.0564 75.3115 46.7069 75.7774 46.8234C77.5246 46.9981 78.5146 47.2311 78.5728 47.2311C79.0387 47.3476 79.3299 47.8135 79.2717 48.2794C79.1552 48.7453 78.8058 49.0365 78.3399 49.0365ZM59.8201 48.1047C59.3542 48.1047 58.9465 47.7552 58.9465 47.2893C58.8883 46.7652 59.2377 46.3575 59.7619 46.2993C60.6548 46.2216 61.5672 46.1828 62.4991 46.1828C63.0232 46.1246 63.4309 46.5322 63.4309 47.0564C63.4891 47.5223 63.0814 47.9299 62.5573 47.9882C61.6643 48.027 60.7713 48.0658 59.8783 48.1047C59.8783 48.1047 59.8589 48.1047 59.8201 48.1047ZM70.4777 48.1047C70.4777 48.1047 70.4583 48.1047 70.4195 48.1047C69.5265 48.027 68.6335 47.9882 67.7405 47.9882C67.2164 47.9299 66.8669 47.5223 66.8669 47.0564C66.8669 46.5322 67.2746 46.1246 67.7987 46.1828C68.7306 46.1828 69.643 46.2216 70.536 46.2993C71.0601 46.2993 71.4095 46.7652 71.4095 47.2311C71.3513 47.7552 70.9436 48.1047 70.4777 48.1047Z" fill="#A9B7DE"/>
<path d="M416.011 228.294C415.487 228.294 415.079 227.887 415.079 227.421V201.039H387.067C386.542 201.039 386.135 200.631 386.135 200.107C386.135 199.641 386.542 199.233 387.067 199.233H416.011C416.477 199.233 416.885 199.641 416.885 200.107V227.421C416.885 227.887 416.477 228.294 416.011 228.294Z" fill="#0958D1"/>
<path d="M391.081 200.107C391.081 202.378 389.276 204.184 387.063 204.184C384.792 204.184 382.986 202.378 382.986 200.107C382.986 197.894 384.792 196.03 387.063 196.03C389.276 196.03 391.081 197.894 391.081 200.107Z" fill="#0958D1"/>
<path d="M420.025 200.107C420.025 202.378 418.219 204.184 416.006 204.184C413.735 204.184 411.93 202.378 411.93 200.107C411.93 197.894 413.735 196.03 416.006 196.03C418.219 196.03 420.025 197.894 420.025 200.107Z" fill="#0958D1"/>
<path d="M420.025 227.421C420.025 229.634 418.219 231.498 416.006 231.498C413.735 231.498 411.93 229.634 411.93 227.421C411.93 225.15 413.735 223.344 416.006 223.344C418.219 223.344 420.025 225.15 420.025 227.421Z" fill="#0958D1"/>
<path d="M446.991 227.421C446.991 229.634 445.128 231.498 442.915 231.498C440.643 231.498 438.838 229.634 438.838 227.421C438.838 225.15 440.643 223.344 442.915 223.344C445.128 223.344 446.991 225.15 446.991 227.421Z" fill="#0958D1"/>
<path d="M442.914 228.294H416.008C415.484 228.294 415.076 227.886 415.076 227.421C415.076 226.896 415.484 226.489 416.008 226.489H442.914C443.438 226.489 443.846 226.896 443.846 227.421C443.846 227.886 443.438 228.294 442.914 228.294Z" fill="#0958D1"/>
<path d="M67.2189 431.837C66.6948 431.837 66.2871 431.429 66.2871 430.905V401.961C66.2871 401.436 66.6948 401.029 67.2189 401.029H94.4745C94.9986 401.029 95.4063 401.436 95.4063 401.961C95.4063 402.485 94.9986 402.892 94.4745 402.892H68.1507V430.905C68.1507 431.429 67.6848 431.837 67.2189 431.837Z" fill="#FF4B4A"/>
<path d="M67.2193 426.828C69.4323 426.828 71.2377 428.692 71.2377 430.905C71.2377 433.176 69.4323 434.981 67.2193 434.981C64.948 434.981 63.1426 433.176 63.1426 430.905C63.1426 428.692 64.948 426.828 67.2193 426.828Z" fill="#FF4B4A"/>
<path d="M67.2193 397.884C69.4323 397.884 71.2377 399.747 71.2377 401.96C71.2377 404.232 69.4323 406.037 67.2193 406.037C64.948 406.037 63.1426 404.232 63.1426 401.96C63.1426 399.747 64.948 397.884 67.2193 397.884Z" fill="#FF4B4A"/>
<path d="M94.4774 397.884C96.7487 397.884 98.5541 399.748 98.5541 401.961C98.5541 404.232 96.7487 406.038 94.4774 406.038C92.2644 406.038 90.459 404.232 90.459 401.961C90.459 399.748 92.2644 397.884 94.4774 397.884Z" fill="#FF4B4A"/>
<path d="M94.4774 370.978C96.7487 370.978 98.5541 372.783 98.5541 375.054C98.5541 377.267 96.7487 379.073 94.4774 379.073C92.2644 379.073 90.459 377.267 90.459 375.054C90.459 372.783 92.2644 370.978 94.4774 370.978Z" fill="#FF4B4A"/>
<path d="M94.4767 402.891C94.0108 402.891 93.5449 402.484 93.5449 401.959V375.053C93.5449 374.529 94.0108 374.122 94.4767 374.122C95.0009 374.122 95.4085 374.529 95.4085 375.053V401.959C95.4085 402.484 95.0009 402.891 94.4767 402.891Z" fill="#FF4B4A"/>
<path d="M376.579 17.4131C367.203 19.0437 365.864 20.3832 364.175 29.7596C362.544 20.3832 361.205 19.0437 351.828 17.4131C361.205 15.7242 362.544 14.3847 364.175 5.0083C365.864 14.3847 367.203 15.7242 376.579 17.4131Z" fill="#FFB900"/>
<path d="M25.6947 383.383C16.3183 385.013 14.9788 386.353 13.2899 395.729C11.6592 386.353 10.3197 385.013 0.943359 383.383C10.3197 381.694 11.6592 380.354 13.2899 370.978C14.9788 380.354 16.3183 381.694 25.6947 383.383Z" fill="#FFB900"/>
<path d="M444.486 288.804C435.109 290.434 433.77 291.774 432.081 301.15C430.45 291.774 429.111 290.434 419.734 288.804C429.111 287.115 430.45 285.775 432.081 276.399C433.77 285.775 435.109 287.115 444.486 288.804Z" fill="#FFB900"/>
<path d="M198.896 104.014C204.545 116.128 219.804 165.165 196.683 162.02C176.707 159.341 183.987 90.6777 183.987 90.6777C195.984 90.1536 193.247 91.9007 198.896 104.014Z" fill="#FE9174"/>
<path d="M198.081 101.044C197.032 106.577 192.606 113.157 186.491 113.856C184.278 114.089 181.774 113.157 180.726 111.061C179.852 109.197 180.551 106.984 182.298 105.878C182.881 105.528 183.405 106.46 182.764 106.868C180.26 108.44 181.716 111.818 184.162 112.575C186.2 113.216 188.297 112.459 190.102 111.352C193.829 108.964 196.217 105.004 197.032 100.753C197.207 100.054 198.255 100.345 198.081 101.044Z" fill="#000644"/>
<path d="M186.723 74.9535C186.723 74.9535 182.413 68.0813 180.899 65.2859C179.443 62.5487 174.784 58.6467 176.473 57.1908C178.162 55.6766 183.636 61.2675 183.636 61.2675L186.723 74.9535Z" fill="#D23E3C"/>
<path d="M184.392 96.443C184.392 96.443 180.082 92.4828 176.53 88.2314C172.919 83.98 167.095 82.2329 171.055 80.3692C175.015 78.5056 181.014 83.1065 182.819 82.5823C186.023 81.6505 185.091 76.2343 182.586 67.1492C179.267 55.2103 181.422 54.162 182.121 54.6279C184.858 56.2586 185.848 62.0824 190.041 70.8182C194.234 79.6122 194.584 90.1533 193.885 95.7442C193.885 95.7442 188.469 96.8507 184.392 96.443Z" fill="#FE9174"/>
<path d="M106.822 293.464L92.0299 333.823L75.4902 331.784L83.003 283.913L106.822 293.464Z" fill="#FE9174"/>
<path d="M46.0767 345.47C55.0454 341.161 68.5567 339.472 70.9444 335.57C73.3322 331.668 74.8464 324.912 75.6617 325.262C76.5353 325.611 79.389 332.425 82.5921 332.483C85.7952 332.6 91.852 328.872 92.9585 331.144C92.9585 331.144 96.6858 333.648 92.1432 339.821C90.5125 342.034 91.9685 347.159 90.6872 353.507C90.2796 355.545 89.6389 357.7 88.4742 359.913L37.6321 356.536C37.6321 356.536 37.4574 354.206 39.1463 351.352C40.311 349.43 42.4076 347.217 46.0767 345.47Z" fill="#0958D1"/>
<path d="M62.3237 338.773C64.1291 338.715 65.7598 339.589 66.7498 341.161C67.1575 341.743 66.1674 342.268 65.818 341.685C65.0027 340.462 63.7214 339.822 62.2655 339.88C61.5666 339.88 61.6248 338.831 62.3237 338.773Z" fill="white"/>
<path d="M59.4145 339.881C60.8705 340.172 62.21 340.929 63.2 342.094C63.6659 342.618 62.9088 343.375 62.4429 342.851C61.5111 341.842 60.4046 341.201 59.1233 340.929C58.4245 340.754 58.7157 339.706 59.4145 339.881Z" fill="white"/>
<path d="M55.8045 340.754C57.3187 341.181 58.6194 341.977 59.7065 343.142C60.1724 343.608 59.4153 344.365 58.8912 343.841C57.9593 342.87 56.814 342.19 55.4551 341.802C54.8145 341.628 55.1057 340.579 55.8045 340.754Z" fill="white"/>
<path d="M90.6872 353.507C90.2796 355.546 89.6389 357.701 88.4742 359.914L37.6321 356.536C37.6321 356.536 37.4574 354.206 39.1463 351.353L90.6872 353.507Z" fill="white"/>
<path d="M90.862 344.772C82.4757 343.258 74.2059 347.451 70.3039 355.022C70.0127 355.604 69.0809 355.022 69.3721 354.439C73.507 346.402 82.301 342.151 91.2115 343.724C91.8521 343.84 91.5609 344.888 90.862 344.772Z" fill="white"/>
<path d="M72.5185 350.538C62.5015 350.188 52.4845 349.839 42.4675 349.489C41.7686 349.489 41.7686 348.383 42.4675 348.441C52.4845 348.791 62.5015 349.121 72.5185 349.431C73.2174 349.489 73.2174 350.596 72.5185 350.538Z" fill="white"/>
<path d="M117.768 154.682C121.32 153.983 126.504 154.682 132.619 156.371C160.515 164.117 207.688 191.896 207.688 191.896C234.478 216.065 230.226 236.041 207.339 253.396L143.451 223.578L110.313 310.411L72.0508 296.317C72.0508 296.317 91.5606 192.246 109.731 162.486C112.468 158.001 115.147 155.206 117.768 154.682Z" fill="#14B74E"/>
<path d="M117.767 154.682C121.32 153.983 126.503 154.682 132.618 156.371C135.938 164.466 138.558 175.007 129.473 175.124C121.728 175.24 114.681 168.717 109.73 162.486C112.468 158.001 115.147 155.206 117.767 154.682Z" fill="#057F42"/>
<path d="M110.955 316.468L66.752 301.151L70.188 288.979L113.925 304.18L110.955 316.468Z" fill="#057F42"/>
<path d="M105.947 300.395L140.773 207.738C140.812 207.582 140.909 207.485 141.065 207.447C141.181 207.388 141.356 207.388 141.472 207.447L199.711 235.284C200.002 235.401 200.118 235.75 200.002 235.983C199.827 236.274 199.536 236.391 199.303 236.216L141.53 208.611L106.937 300.744C106.82 301.035 106.529 301.152 106.296 301.035C106.257 301.035 106.219 301.035 106.18 301.035C105.947 300.861 105.889 300.628 105.947 300.395Z" fill="#057F42"/>
<path d="M148.463 442.146L136.582 481.165L120.625 476.157L123.828 436.497L148.463 442.146Z" fill="#FE9174"/>
<path d="M129.999 466.14C131.164 471.44 139.492 468.47 139.492 468.47L141.297 466.14C141.297 466.14 143.627 476.565 141.297 483.961C139.026 491.357 132.328 495.026 120.622 507.082C108.975 519.079 93.4833 515.992 94.4151 507.431C95.3469 498.87 112.527 483.204 116.429 477.147C118.875 473.42 118.992 469.285 118.759 466.781C118.526 464.568 120.098 462.529 122.311 462.18C125.456 461.714 129.242 462.762 129.999 466.14Z" fill="#0958D1"/>
<path d="M133.029 493.454C132.737 489.552 133.087 485.709 134.484 482.04C135.999 477.963 138.561 474.41 141.939 471.673C142.463 471.265 143.22 472.023 142.696 472.43C139.377 475.109 136.814 478.662 135.358 482.68C134.077 486.174 133.844 489.785 134.077 493.454C134.135 494.153 133.029 494.153 133.029 493.454Z" fill="white"/>
<path d="M133.551 488.271C133.473 488.814 133.435 489.358 133.435 489.901C133.046 490.289 132.677 490.678 132.328 491.066C129.067 494.444 125.747 497.647 122.486 500.966C119.399 504.053 116.545 507.373 112.935 509.819C109.557 512.09 105.364 513.546 101.287 512.731C97.9674 512.09 95.0555 509.819 93.8907 506.557C93.6577 505.917 94.6478 505.626 94.8807 506.266C96.3949 510.459 100.996 512.323 105.131 511.799C109.382 511.275 112.993 508.77 116.021 505.975C118.991 503.238 121.729 500.209 124.524 497.356C127.552 494.386 130.581 491.357 133.551 488.271Z" fill="white"/>
<path d="M105.246 488.737C108.449 487.863 111.594 489.61 112.526 492.813C112.701 493.454 111.711 493.745 111.478 493.105C110.721 490.426 108.158 489.028 105.538 489.785C104.839 489.96 104.548 488.912 105.246 488.737Z" fill="white"/>
<path d="M108.336 485.767C111.539 484.893 114.684 486.64 115.616 489.843C115.791 490.484 114.742 490.775 114.568 490.134C113.811 487.456 111.248 486.058 108.569 486.815C107.928 486.99 107.637 485.941 108.336 485.767Z" fill="white"/>
<path d="M111.013 482.796C114.216 481.865 117.419 483.612 118.351 486.815C118.526 487.514 117.478 487.805 117.303 487.106C116.546 484.485 113.925 483.087 111.304 483.786C110.664 484.019 110.373 482.971 111.013 482.796Z" fill="white"/>
<path d="M113.34 479.885C116.544 479.011 119.688 480.758 120.62 483.961C120.795 484.602 119.805 484.893 119.63 484.253C118.873 481.574 116.252 480.176 113.632 480.933C112.933 481.108 112.7 480.059 113.34 479.885Z" fill="white"/>
<path d="M153.931 304.588C170.762 281.176 233.368 211.639 233.368 211.639L282.288 257.939C282.288 257.939 204.249 326.951 192.834 341.045C188.583 346.344 156.785 461.889 156.785 461.889L117.008 446.98C117.008 446.98 133.955 364.107 144.788 326.252C147.117 318.273 149.155 312.275 150.67 309.538C151.368 308.257 152.475 306.626 153.931 304.588Z" fill="#14B74E"/>
<path d="M153.932 304.587C161.096 308.838 178.917 320.719 169.89 329.222C164.008 334.754 151.952 329.979 144.789 326.252C147.119 318.273 149.157 312.274 150.671 309.537C151.37 308.256 152.477 306.625 153.932 304.587Z" fill="#057F42"/>
<path d="M215.378 232.255C210.641 237.768 205.905 243.281 201.168 248.794C200.76 249.319 200.061 248.561 200.469 248.037C205.206 242.524 209.943 237.011 214.679 231.498C215.087 231.032 215.844 231.789 215.378 232.255Z" fill="#057F42"/>
<path d="M204.777 242.796C201.632 239.709 202.505 234.759 204.544 231.323C207.048 227.188 210.659 223.053 214.735 220.374C215.259 220.025 215.784 220.956 215.201 221.306C211.59 223.694 208.562 227.246 206.174 230.799C203.961 234.002 202.33 238.952 205.534 242.097C206.058 242.563 205.301 243.262 204.777 242.796Z" fill="#057F42"/>
<path d="M153.292 449.892C154.399 445.466 180.432 341.569 183.693 336.327C186.954 331.086 260.975 264.578 264.12 261.724C264.295 261.549 264.644 261.549 264.819 261.782C265.052 262.015 264.994 262.307 264.819 262.539C264.062 263.238 187.711 331.785 184.566 336.91C181.422 341.977 154.574 449.019 154.283 450.125C154.224 450.416 153.933 450.591 153.642 450.475C153.603 450.475 153.564 450.455 153.525 450.416C153.292 450.3 153.234 450.067 153.292 449.892Z" fill="#057F42"/>
<path d="M158.303 466.14L112.586 447.911L115.789 436.497L161.739 455.016L158.303 466.14Z" fill="#057F42"/>
<path d="M356.433 137.094C347.115 162.02 334.302 185.316 322.829 203.661C322.635 203.933 322.461 204.224 322.305 204.534C320.442 207.446 318.656 210.222 316.947 212.862C316.714 213.173 316.501 213.464 316.307 213.736C310.483 222.53 305.358 229.635 301.572 234.702C301.534 234.779 301.475 234.857 301.398 234.935C298.893 238.254 297.03 240.7 295.923 242.04C295.651 242.389 295.438 242.661 295.283 242.855C295.089 243.088 294.991 243.205 294.991 243.205L293.536 241.982C293.536 241.982 293.516 241.982 293.477 241.982L290.682 239.768L262.611 217.696L261.737 217.056L225.338 188.402L220.738 184.792L216.195 181.239L216.137 181.181C216.176 181.181 216.195 181.181 216.195 181.181C218.408 181.763 221.902 178.735 226.037 173.493C226.309 173.183 226.561 172.872 226.794 172.561C228.037 170.97 229.299 169.222 230.58 167.32C230.619 167.32 230.638 167.301 230.638 167.262C230.638 167.223 230.657 167.204 230.696 167.204C231.085 166.621 231.492 166.019 231.919 165.398C236.345 158.817 241.179 150.722 245.897 142.336C246.091 142.025 246.285 141.695 246.479 141.346C247.333 139.793 248.187 138.259 249.041 136.745C249.119 136.59 249.216 136.415 249.333 136.221C249.488 135.91 249.663 135.6 249.857 135.289C251.953 131.445 253.992 127.66 255.972 123.933C256.127 123.583 256.302 123.234 256.496 122.884C262.669 111.178 267.911 100.637 270.706 94.6969C270.939 94.1921 271.153 93.7262 271.347 93.2992C272.104 91.6685 272.628 90.5037 272.861 89.9213C273.152 89.2225 273.851 88.6983 274.957 88.3489C276.413 87.8248 278.568 87.5918 281.131 87.5918C281.558 87.5918 281.965 87.6112 282.354 87.65C299.185 88.0577 332.264 96.444 332.264 96.444C332.264 96.444 338.612 105.762 345.368 117.235C345.639 117.701 345.931 118.147 346.241 118.575C346.435 118.885 346.629 119.196 346.824 119.506C350.434 124.864 355.443 130.746 356.433 134.707C356.511 135.095 356.569 135.444 356.608 135.755C356.608 136.26 356.549 136.706 356.433 137.094Z" fill="#0958D1"/>
<path d="M322.826 203.661C322.632 203.933 322.457 204.224 322.302 204.534C319.448 202.845 316.828 200.865 314.44 198.536C301.744 186.422 297.318 169.125 289.98 153.75C284.272 141.695 275.071 128.941 261.851 125.039C259.948 124.495 257.987 124.127 255.969 123.932C255.813 123.932 255.658 123.932 255.503 123.932C254.804 123.874 254.804 122.768 255.503 122.826C255.852 122.826 256.182 122.845 256.493 122.884C258.434 123.078 260.336 123.467 262.2 124.049C267.907 125.796 273.091 129.174 277.4 133.367C290.038 145.597 294.464 162.894 301.802 178.269C306.403 187.995 313.333 198.128 322.826 203.661Z" fill="#0980F7"/>
<path d="M310.54 222.122C310.54 222.122 307.045 227.247 301.571 234.702C301.532 234.779 301.474 234.857 301.396 234.934C294.699 244.02 285.148 256.599 275.597 267.548C275.597 267.548 269.365 263.18 260.396 255.842C260.086 255.609 259.795 255.357 259.523 255.085C255.737 251.998 251.486 248.388 247.06 244.427C246.749 244.117 246.419 243.806 246.07 243.496C244.439 242.02 242.789 240.487 241.119 238.895C240.77 238.584 240.44 238.273 240.129 237.963C227.841 226.257 214.912 212.047 205.711 197.138C205.439 196.672 205.167 196.225 204.895 195.798C203.303 193.158 201.847 190.499 200.527 187.82C200.527 187.82 206.701 186.888 214.388 182.345C214.738 182.112 215.087 181.899 215.436 181.705C215.708 181.549 215.961 181.394 216.193 181.239C216.193 181.239 216.193 181.219 216.193 181.181C219.222 179.259 222.425 176.696 225.57 173.435C225.842 173.124 226.133 172.814 226.443 172.503C227.88 170.911 229.258 169.183 230.578 167.32C230.617 167.32 230.637 167.3 230.637 167.262C230.637 167.223 230.656 167.203 230.695 167.203C231.083 166.621 231.491 166.019 231.918 165.398L241.818 172.561L242.983 173.377L267.327 190.965L268.317 191.663L285.847 204.301L286.953 205.116L310.54 222.122Z" fill="#0958D1"/>
<path d="M295.92 242.04C295.649 242.39 295.435 242.662 295.28 242.856C294.697 242.545 294.115 242.254 293.533 241.982C293.533 241.982 293.513 241.982 293.474 241.982C292.581 241.594 291.669 241.244 290.737 240.934C282.759 238.43 273.906 239.827 267.558 245.36C264.355 248.155 261.851 251.824 260.395 255.843C260.084 255.61 259.793 255.358 259.521 255.086C259.754 254.465 260.026 253.824 260.337 253.164C264.006 245.418 271.344 239.769 279.963 238.779C283.516 238.371 287.243 238.721 290.679 239.769C292.484 240.352 294.29 241.109 295.92 242.04Z" fill="#0980F7"/>
<path d="M316.944 212.863C316.712 213.173 316.498 213.464 316.304 213.736C311.528 209.019 305.122 205.99 298.425 205C294.581 204.418 290.737 204.476 286.952 205.117C277.925 206.631 269.422 211.407 262.608 217.696C260.162 220.026 257.949 222.472 256.027 225.093C251.717 230.916 248.747 237.497 247.058 244.428C246.748 244.117 246.418 243.806 246.068 243.496C246.107 243.341 246.165 243.185 246.243 243.03C248.806 233.129 254.28 224.044 261.734 217.056C266.277 212.746 271.577 209.252 277.342 206.864C280.08 205.757 282.933 204.826 285.845 204.301C291.145 203.253 296.678 203.253 301.977 204.593C307.626 205.99 312.81 208.786 316.944 212.863Z" fill="#0980F7"/>
<path d="M273.382 186.946C271.984 188.868 270.237 190.441 268.315 191.664C266.568 192.712 264.646 193.585 262.666 194.168C252.533 197.138 241.176 194.925 231.509 191.139C229.412 190.324 227.354 189.412 225.336 188.402C221.608 186.597 217.939 184.558 214.387 182.345C214.736 182.112 215.086 181.899 215.435 181.705C217.182 182.753 218.949 183.782 220.735 184.791C225.103 187.237 229.645 189.392 234.362 191.023C243.622 194.284 254.629 196.031 264.122 192.479C265.248 192.052 266.316 191.547 267.325 190.965C270.237 189.218 272.625 186.772 274.023 183.568C276.003 179.259 276.178 174.309 275.653 169.708C273.965 155.905 264.646 143.5 252.183 137.502C251.252 137.036 250.3 136.609 249.33 136.221C249.019 136.104 248.709 135.988 248.398 135.871C247.971 135.367 247.544 134.842 247.117 134.299C248.048 134.609 248.961 134.939 249.854 135.289C250.98 135.716 252.067 136.201 253.115 136.745C259.056 139.657 264.239 144.025 268.257 149.266C273.499 156.138 276.818 164.641 276.993 173.377C277.051 178.094 276.119 183.044 273.382 186.946Z" fill="#0980F7"/>
<path d="M228.189 176.639C243.331 187.18 256.667 200.225 267.558 215.134C267.966 215.716 267.15 216.474 266.743 215.891C255.91 201.04 242.69 188.053 227.606 177.57C227.024 177.163 227.606 176.231 228.189 176.639Z" fill="#000644"/>
<path d="M315.548 118.866C307.453 123 297.552 119.331 294.174 110.887C293.941 110.304 294.757 109.897 294.99 110.421C298.193 118.4 307.394 121.952 315.082 118.05C315.606 117.759 316.072 118.633 315.548 118.866Z" fill="#000644"/>
<path d="M261.038 104.831C256.729 113.276 253.293 122.128 248.983 130.573C248.692 131.155 247.818 130.631 248.109 129.99C252.419 121.604 255.855 112.752 260.165 104.307C260.456 103.725 261.33 104.249 261.038 104.831Z" fill="#000644"/>
<path d="M333.48 100.404C333.48 100.404 321.832 119.448 303.895 110.362L306.865 93.7063L308.262 86.1935L309.252 80.9521L329.578 75.4194C329.519 85.0288 330.917 93.2404 333.48 100.404Z" fill="#FE9174"/>
<path d="M325.44 83.5723C317.228 95.3946 309.133 97.433 306.338 96.6176L308.26 86.193L325.44 83.5723Z" fill="#000644"/>
<path d="M297.026 51.0181C297.026 51.0181 292.425 58.1814 299.763 65.9853L297.026 51.0181Z" fill="#000644"/>
<path d="M331.329 69.5958C331.329 70.4111 331.29 71.1876 331.212 71.9253C331.038 73.6142 330.572 75.1284 329.873 76.7009C328.883 78.681 327.427 80.8358 325.447 83.6312C322.36 87.9991 317.06 89.8045 311.935 89.921C298.249 90.3286 296.735 81.0105 297.55 66.9168C298.016 58.1229 295.396 53.3473 297.492 49.9113C297.648 49.7559 297.803 49.6006 297.958 49.4453C301.452 45.7763 306.286 43.6797 311.353 43.4468C312.324 43.3691 313.255 43.3497 314.148 43.3886C314.343 43.3886 314.556 43.3886 314.789 43.3886C314.867 43.3886 314.944 43.3886 315.022 43.3886C315.255 43.3886 315.468 43.408 315.663 43.4468C315.857 43.4468 316.031 43.4468 316.187 43.4468C316.536 43.4856 316.886 43.5244 317.235 43.5633C328.184 44.7863 331.096 51.3672 331.62 57.9481C332.028 62.3742 331.329 66.8586 331.329 69.5958Z" fill="#FE9174"/>
<path d="M311.526 64.8797C310.594 64.705 309.662 65.1709 309.196 65.9863C308.847 66.5686 307.915 65.9863 308.265 65.4039C308.963 64.1226 310.419 63.5402 311.817 63.8314C312.516 64.0062 312.225 65.0544 311.526 64.8797Z" fill="#000644"/>
<path d="M302.38 66.393C301.798 65.5777 300.983 65.2282 299.934 65.3447C299.235 65.4612 299.002 64.4129 299.701 64.2964C301.215 64.0635 302.497 64.5876 303.37 65.8689C303.778 66.4513 302.788 66.9754 302.38 66.393Z" fill="#000644"/>
<path d="M316.945 68.6637C316.945 69.4208 315.78 70.0614 314.324 70.0614C312.926 70.0614 311.761 69.479 311.703 68.7219C311.703 67.9648 312.868 67.3825 314.324 67.3242C315.78 67.3242 316.945 67.9066 316.945 68.6637Z" fill="#D23E3C"/>
<path d="M297.435 68.7227C297.901 68.4315 298.6 68.2568 299.415 68.2568C300.871 68.2568 302.036 68.8392 302.036 69.5963C302.036 70.3534 300.871 70.9358 299.415 70.994C298.6 70.994 297.843 70.7611 297.377 70.4699L297.435 68.7227Z" fill="#D23E3C"/>
<path d="M308.558 59.8705C308.325 59.1717 308.733 58.5893 309.374 58.3563C311.529 57.4828 313.916 58.5893 314.79 60.6859C315.023 61.3265 314.499 62.0253 313.975 62.2001C313.276 62.3748 312.693 61.9671 312.46 61.3847C312.053 60.3947 310.83 60.3364 310.014 60.6859C309.432 60.9188 308.675 60.3947 308.558 59.8705Z" fill="#000644"/>
<path d="M298.25 60.0456C299.473 58.5897 301.278 58.0655 303.084 58.5314C304.598 58.8808 303.957 61.2104 302.501 60.8027C301.395 60.5698 300.638 60.9192 299.997 61.7345C299.007 62.9575 297.318 61.2686 298.25 60.0456Z" fill="#000644"/>
<path d="M303.839 69.4208C303.761 69.3431 303.723 69.2655 303.723 69.1878C303.723 69.0713 303.761 68.9743 303.839 68.8966C305.12 67.7319 305.295 65.1111 305.295 65.0529C305.353 64.8782 305.528 64.7617 305.703 64.7617C305.877 64.7617 306.052 64.9364 305.994 65.1111C305.994 65.2276 305.819 67.6736 304.596 69.0714C305.004 69.2461 305.703 69.479 306.635 69.4208C306.868 69.4208 306.984 69.5955 307.042 69.7702C307.042 69.9449 306.868 70.1196 306.693 70.1196C305.295 70.2361 304.363 69.7702 304.014 69.5373C303.897 69.4596 303.839 69.4208 303.839 69.4208Z" fill="#000644"/>
<path d="M326.434 73.439C328.414 73.4972 329.986 72.9149 331.209 71.9248C331.034 73.6137 330.569 75.1279 329.87 76.7004C328.472 76.0015 327.307 75.0114 326.434 73.439Z" fill="#000644"/>
<path d="M328.591 57.8894C323.117 59.4036 322.651 68.6635 319.856 67.0911C317.06 65.5186 324.398 54.2204 317.235 54.6863C310.013 55.1522 312.11 54.1622 308.79 54.4533C303.2 54.9192 299.763 50.5514 297.492 49.9108C297.647 49.7555 297.803 49.6002 297.958 49.4449C301.452 45.7758 306.286 43.6793 311.353 43.4463C312.324 43.3687 313.255 43.3492 314.148 43.3881C314.343 43.3881 314.556 43.3881 314.789 43.3881C314.867 43.3881 314.944 43.3881 315.022 43.3881C315.255 43.3881 315.468 43.4075 315.663 43.4463C315.818 43.4463 315.993 43.4463 316.187 43.4463C316.536 43.4851 316.886 43.524 317.235 43.5628C328.184 44.7858 331.096 51.3667 331.62 57.9476C330.805 57.5982 329.756 57.54 328.591 57.8894Z" fill="#000644"/>
<path d="M317.758 51.95C321.194 51.3094 326.028 50.7853 330.163 51.7753C331.502 52.0665 332.725 52.5324 333.832 53.173C334.53 53.6001 335.171 54.0854 335.753 54.629C335.87 54.7843 336.006 54.9202 336.161 55.0367C336.161 55.5414 336.103 56.0849 335.986 56.6673C335.521 59.4628 333.249 66.2184 331.211 71.8675C331.289 71.1687 331.327 70.4116 331.327 69.5962C331.327 66.859 332.026 62.3747 331.619 57.9486C330.803 57.5991 329.755 57.5409 328.59 57.8903C323.116 59.4045 322.65 68.6644 319.854 67.092C317.583 65.8107 320.553 55.4443 317.758 51.95Z" fill="#000644"/>
<path d="M301.275 74.3712C301.275 74.3712 304.478 73.9635 310.768 73.2646C310.768 73.2646 310.419 80.0203 305.818 80.0785C301.916 80.0785 301.275 74.3712 301.275 74.3712Z" fill="white"/>
<path d="M305.296 81.534C306.053 81.7669 306.81 81.8834 307.393 81.3593C307.8 80.9516 308.441 81.5922 308.033 81.9416C307.218 82.757 306.111 82.757 305.063 82.4075C304.539 82.2328 304.772 81.3593 305.296 81.534Z" fill="#D23E3C"/>
<path d="M322.073 70.1193C321.316 67.9062 321.724 65.5185 323.005 63.5384C324.577 61.0341 327.606 57.1321 330.518 57.5398C334.769 58.064 335.351 61.9077 334.944 65.7514C334.536 69.6534 332.032 74.7784 326.732 73.963C324.053 73.6136 322.714 71.9247 322.073 70.1193Z" fill="#FE9174"/>
<path d="M326.202 69.4785C325.852 67.149 325.852 64.6448 327.308 62.6064C328.298 61.2087 329.929 60.1604 331.676 60.7428C332.259 60.9175 331.909 61.8493 331.269 61.6164C329.463 61.0922 327.949 63.0723 327.425 64.4701C326.842 66.0425 326.959 67.7896 327.192 69.3621C327.25 70.0027 326.26 70.1192 326.202 69.4785Z" fill="#000644"/>
<path d="M231.795 111.235C234.066 109.663 236.163 108.207 237.91 107.042C241.171 104.829 243.268 103.489 243.268 103.489L258.293 127.076C258.293 127.076 253.576 131.211 246.122 137.035C244.083 138.549 241.928 140.179 239.599 141.927C232.843 146.877 224.806 152.409 216.245 157.418C200.23 166.794 191.145 163.009 191.552 152.118C191.96 140.995 216.711 121.893 231.795 111.235Z" fill="#FE9174"/>
<path d="M208.275 130.455C210.139 136.22 211.012 142.219 210.837 148.276C210.837 148.974 209.731 148.974 209.789 148.217C209.906 142.277 209.032 136.395 207.227 130.746C207.052 130.047 208.1 129.814 208.275 130.455Z" fill="#D23E3C"/>
<path d="M209.204 134.125C210.912 135.639 212.368 137.347 213.571 139.25C213.979 139.832 212.989 140.356 212.64 139.774C211.475 137.91 210.077 136.28 208.446 134.824C207.922 134.416 208.679 133.659 209.204 134.125Z" fill="#D23E3C"/>
<path d="M280.317 87.9413C278.919 88.116 277.579 88.5819 276.298 89.2808C275.56 89.7079 274.842 90.2514 274.143 90.9115C273.483 91.5327 272.843 92.2898 272.221 93.1827C272.027 93.4933 271.833 93.804 271.639 94.1146C271.484 94.3863 271.348 94.6581 271.231 94.9299C271.154 95.124 271.076 95.2987 270.998 95.454C268.727 100.637 267.213 110.014 262.204 124.049C262.088 124.36 261.971 124.69 261.855 125.039C261.078 127.058 260.244 129.193 259.351 131.445C256.846 133.658 254.692 135.464 253.119 136.745C252.77 137.017 252.459 137.269 252.187 137.502C251.256 138.259 250.731 138.667 250.731 138.667C250.149 138.046 249.586 137.405 249.043 136.745C248.81 136.473 248.596 136.182 248.402 135.871C247.975 135.367 247.548 134.843 247.121 134.299C243.044 128.941 239.783 122.943 237.395 117.992C237.24 117.643 237.084 117.313 236.929 117.002C234.366 111.47 232.969 107.451 232.969 107.451C240.889 101.22 248.402 96.9682 255.041 94.1146C255.468 93.9204 255.915 93.7263 256.381 93.5322C261.214 91.4938 265.524 90.2126 269.135 89.3973C269.484 89.3196 269.834 89.242 270.183 89.1643C271.988 88.7566 273.619 88.5237 274.959 88.349C278.395 87.8831 280.317 87.9413 280.317 87.9413Z" fill="#0958D1"/>
<path d="M314.789 43.3886C314.789 43.3886 334.998 35.4682 349.324 44.8446C360.506 52.1244 335.056 55.1528 335.056 55.1528L314.789 43.3886Z" fill="#0958D1"/>
<path fill-rule="evenodd" clip-rule="evenodd" d="M319.625 34.4197C340.066 39.137 336.164 55.036 336.164 55.036C336.164 55.036 331.272 55.6184 319.566 55.6767C302.037 55.7931 296.504 51.5417 296.504 51.5417C296.504 51.5417 297.785 29.353 319.625 34.4197ZM301.454 51.3088C304.89 52.59 308.443 53.1724 312.287 52.4736C312.17 50.0858 308.967 47.5233 306.404 47.3486C303.085 47.0574 301.454 51.3088 301.454 51.3088Z" fill="#FF4B4A"/>
<path d="M317.994 34.1284C325.565 38.0304 331.273 46.7661 328.885 55.4437C328.71 55.9096 327.953 55.7348 328.07 55.2107C330.399 46.8826 324.808 38.5545 317.587 34.8273C317.121 34.5943 317.528 33.8955 317.994 34.1284Z" fill="#000644"/>
<path d="M312.694 52.1821C313.393 52.9975 313.568 54.1622 313.16 55.2105C312.927 55.6764 312.112 55.4435 312.345 54.9776C312.694 54.2205 312.636 53.3469 312.112 52.7063C311.762 52.2986 312.345 51.7745 312.694 52.1821Z" fill="#000644"/>
<path d="M301.628 51.7163C301.24 52.1823 301.026 52.7064 300.987 53.2888C300.987 53.8129 300.172 53.8129 300.172 53.2888C300.23 52.5317 300.463 51.8328 300.929 51.2504C301.278 50.8428 301.977 51.2504 301.628 51.7163Z" fill="#000644"/>
<path d="M255.036 94.1136C253.405 99.2968 250.785 104.189 247.29 108.324C244.32 111.76 240.826 114.73 236.924 117.001C237.079 117.312 237.234 117.642 237.39 117.991C245.718 113.041 252.299 105.295 255.56 95.9773C255.871 95.1619 256.143 94.3466 256.375 93.5312C255.91 93.7254 255.463 93.9195 255.036 94.1136Z" fill="#0980F7"/>
<path d="M237.681 104.597C241.001 114.09 245.951 122.884 252.299 130.629C252.707 131.212 251.95 131.969 251.484 131.386C245.019 123.466 240.011 114.497 236.633 104.888C236.4 104.189 237.448 103.956 237.681 104.597Z" fill="#000644"/>
<path d="M304.944 104.306C299.295 103.374 294.054 101.219 289.453 97.6083C286.017 94.9293 283.105 91.4933 281.125 87.5913C281.552 87.5913 281.96 87.6107 282.348 87.6495C282.62 88.0766 282.892 88.5231 283.163 88.989C287.706 96.3853 295.393 101.277 303.896 103.024C304.362 103.083 304.712 103.141 305.177 103.257C305.177 103.607 305.003 103.956 304.944 104.306Z" fill="#0980F7"/>
<path d="M346.238 118.574C336.862 123.408 326.962 127.193 316.246 127.776C308.209 128.183 299.939 126.844 292.834 122.767C286.136 118.923 280.837 112.983 276.993 106.344C274.78 102.5 273.033 98.3652 271.635 94.1138C271.557 93.8421 271.46 93.5703 271.344 93.2985C270.917 91.9396 270.529 90.5613 270.179 89.1636C269.83 89.2412 269.48 89.3189 269.131 89.3965C269.597 91.1825 270.121 92.9491 270.703 94.6962C270.82 94.9292 270.917 95.1815 270.994 95.4533C274.664 105.994 280.371 115.72 289.805 122.185C303.783 131.736 322.011 129.989 337.037 123.99C340.415 122.709 343.676 121.195 346.821 119.506C346.627 119.195 346.433 118.885 346.238 118.574Z" fill="#0980F7"/>
<path d="M264.761 110.653C259.636 119.35 254.841 128.222 250.376 137.268C250.143 137.792 249.327 137.326 249.619 136.802C254.045 127.756 258.82 118.884 263.945 110.187C264.237 109.663 265.052 110.187 264.761 110.653Z" fill="#000644"/>
<path d="M252.243 166.154C250.555 170.114 247.002 172.386 242.984 173.376C242.479 173.531 241.974 173.648 241.469 173.725C236.403 174.599 231.103 174.308 226.036 173.492C225.881 173.492 225.726 173.473 225.57 173.434C225.842 173.123 226.133 172.813 226.444 172.502C226.56 172.502 226.677 172.522 226.793 172.56C226.832 172.56 226.871 172.56 226.91 172.56C231.744 173.259 236.927 173.492 241.761 172.56C241.761 172.56 241.78 172.56 241.819 172.56C246.536 171.629 250.38 168.95 251.836 164.174C254.107 156.545 251.195 148.1 245.896 142.335C246.09 142.024 246.284 141.694 246.478 141.345C249.39 144.373 251.545 148.159 252.709 152.235C253.991 156.72 254.165 161.845 252.243 166.154Z" fill="#0980F7"/>
<path d="M241.115 238.894C240.765 238.583 240.435 238.273 240.125 237.962C240.164 237.185 240.183 236.428 240.183 235.691C240.183 224.509 234.825 214.142 226.264 207.096C220.324 202.204 213.219 198.942 205.706 197.137C205.434 196.671 205.162 196.224 204.891 195.797C208.094 196.554 211.18 197.486 214.209 198.709C224.75 203.077 233.952 210.765 238.378 221.422C240.649 226.897 241.697 233.012 241.115 238.894Z" fill="#0980F7"/>
<path d="M305.997 92.1338C300.873 100.287 293.069 106.519 285.265 111.935C281.654 114.497 277.519 117.118 276.005 121.544C274.432 126.029 276.995 130.396 281.421 131.852C285.963 133.308 291.03 131.678 295.107 129.639C298.776 127.776 302.154 125.33 305.648 123.175C309.201 120.962 312.928 119.215 317.005 118.283C321.547 117.235 326.264 116.885 330.516 114.963C333.835 113.566 337.679 111.003 337.33 106.926C337.039 103.549 335.058 99.9377 332.554 97.6082C332.205 97.317 332.729 96.7929 333.078 97.1423C335.816 99.6466 337.97 103.723 338.087 107.509C338.145 111.702 333.894 114.381 330.458 115.779C325.799 117.7 320.732 117.992 315.956 119.273C311.355 120.438 307.337 122.884 303.435 125.446C299.708 127.834 295.98 130.338 291.787 131.852C287.652 133.308 282.644 133.891 278.8 131.328C275.364 129.115 274.025 125.213 275.306 121.369C276.82 117.06 280.547 114.381 284.1 111.877C292.079 106.402 300.115 100.171 305.357 91.7844C305.59 91.435 306.23 91.7844 305.997 92.1338Z" fill="white"/>
<path d="M356.604 135.753C354.546 135.481 352.469 135.307 350.372 135.229C337.676 134.88 324.223 140.063 318.574 152.118C316.128 157.418 315.662 163.591 317.875 169.007C320.03 174.307 324.456 178.616 330.047 180.072C330.687 180.247 330.396 181.295 329.697 181.121C323.466 179.49 318.69 174.482 316.536 168.483C312.051 156.078 320.554 143.091 331.678 137.791C339.54 134.064 348.042 133.54 356.429 134.705C356.506 135.093 356.565 135.442 356.604 135.753Z" fill="#0980F7"/>
<path d="M328.478 177.685C316.364 201.272 301.98 223.635 285.498 244.426C280.917 250.211 276.18 255.86 271.288 261.373C270.822 261.898 270.065 261.082 270.531 260.558C288.002 240.874 303.494 219.442 316.83 196.729C320.558 190.284 324.13 183.742 327.546 177.103C327.837 176.462 328.769 177.044 328.478 177.685Z" fill="#000644"/>
<path d="M368.43 179.433C368.43 179.433 368.605 180.772 368.896 183.16C369.187 185.955 369.653 190.148 370.002 195.099C371.458 213.851 370.526 241.981 360.859 248.62C351.075 255.375 339.544 251.823 336.166 233.187C333.312 217.462 334.127 201.796 333.021 191.896C332.943 190.925 332.846 190.013 332.73 189.158C332.206 184.15 331.973 181.122 331.973 181.122L368.43 179.433Z" fill="#FE9174"/>
<path d="M361.965 247.746C361.965 247.746 346.299 262.655 327.663 256.249C310.075 250.25 269.541 215.133 269.541 215.133L270.298 202.378C270.298 202.378 315.724 217.87 340.475 228.353L361.965 247.746Z" fill="#FE9174"/>
<path d="M277.875 209.95C277.35 214.551 272.983 217.754 268.324 217.347C265.819 217.114 263.14 217.114 261.044 217.754C255.977 219.152 250.444 222.297 247.707 222.297C243.63 222.297 246.601 219.094 247.008 218.744C249.745 216.531 253.997 214.085 253.997 214.085C253.997 214.085 245.436 216.473 242.699 218.686C239.961 220.899 236.875 220.2 238.272 216.706C239.67 213.212 248.522 208.611 251.318 207.97C251.318 207.97 245.669 208.087 241.883 210.94C238.098 213.794 236.351 214.318 234.429 214.551C232.507 214.784 232.449 210.94 237.865 207.097C243.223 203.253 246.251 203.136 249.454 202.671C249.454 202.671 246.95 202.03 242.64 201.913C238.331 201.797 234.196 205.408 231.925 204.243C229.595 203.02 234.545 199.002 238.214 198.012C241.942 197.08 244.562 196.031 249.396 196.672C254.288 197.313 258.889 198.07 261.684 199.176C264.538 200.225 275.021 202.729 277.35 206.456C277.933 207.388 278.049 208.611 277.875 209.95Z" fill="#FE9174"/>
<path d="M274.791 202.67C279.625 205.465 280.208 211.406 278.985 216.298C278.519 218.394 277.587 221.073 275.083 221.306C272.52 221.539 271.588 218.802 271.122 216.822C271.006 216.356 271.705 216.181 271.821 216.647C272.054 217.695 272.287 218.802 272.986 219.617C273.918 220.782 275.316 220.898 276.422 219.967C278.111 218.627 278.519 215.832 278.752 213.793C279.218 209.833 278.169 205.407 274.442 203.31C274.034 203.077 274.442 202.437 274.791 202.67Z" fill="white"/>
<path d="M256.442 199.233C256.442 199.233 251.026 196.321 251.608 194.283C252.191 192.303 256.5 194.807 259.529 195.39C262.615 195.972 269.546 201.971 269.546 201.971L256.442 199.233Z" fill="#FE9174"/>
<path d="M335.872 225.558C339.658 227.072 343.035 229.227 345.947 232.022C346.413 232.43 345.831 233.129 345.365 232.721C342.511 229.984 339.192 227.888 335.464 226.432C334.882 226.199 335.29 225.383 335.872 225.558Z" fill="#D23E3C"/>
<path d="M338.731 227.013C341.06 225.907 343.564 225.557 346.127 225.848C346.709 225.907 346.593 226.838 345.952 226.78C343.564 226.489 341.235 226.897 339.08 227.887C338.498 228.178 338.206 227.304 338.731 227.013Z" fill="#D23E3C"/>
<path d="M373.496 187.644C373.496 187.644 365.867 190.265 355.85 191.721H355.791C355.442 191.799 355.073 191.857 354.685 191.896C350.142 192.536 345.192 192.886 340.242 192.653C339.854 192.653 339.465 192.633 339.077 192.595C337.097 192.478 335.136 192.245 333.195 191.896C333.195 191.896 327.488 166.911 329.934 151.129C332.147 136.686 339.019 126.902 348.628 125.038C348.628 125.038 352.88 128.358 357.888 136.569C358.16 136.996 358.432 137.443 358.703 137.909C361.382 142.451 364.294 148.392 366.798 155.846C366.915 156.196 367.031 156.545 367.148 156.894C369.885 165.223 372.215 175.356 373.496 187.644Z" fill="#0958D1"/>
<path d="M358.702 137.909C358.586 138.375 358.45 138.86 358.294 139.365C356.897 143.733 354.392 147.576 351.131 150.721C347.52 154.216 343.211 157.127 340.59 161.495C334.882 171.046 337.561 182.578 340.24 192.653C339.852 192.653 339.464 192.633 339.076 192.595C337.561 186.945 336.105 181.18 336.105 175.298C336.105 170.522 336.979 165.689 339.309 161.495C341.755 157.127 345.715 154.216 349.326 150.896C352.995 147.576 355.79 143.616 357.304 138.899C357.537 138.122 357.731 137.346 357.887 136.569C358.158 136.996 358.43 137.443 358.702 137.909Z" fill="#0980F7"/>
<path d="M367.149 156.894C366.14 157.477 365.15 158.117 364.179 158.816C358.588 163.01 354.628 169.241 353.58 176.171C352.764 181.471 353.58 186.945 355.793 191.721C355.443 191.799 355.074 191.857 354.686 191.896C353.813 189.916 353.114 187.819 352.706 185.664C351.308 178.326 352.822 170.639 357.132 164.524C359.636 160.913 363.014 157.943 366.8 155.846C366.916 156.196 367.033 156.545 367.149 156.894Z" fill="#0980F7"/>
<path d="M371.691 181.354C359.228 185.664 345.891 187.062 332.788 185.373C332.089 185.315 332.089 184.208 332.788 184.324C345.833 185.955 359.053 184.557 371.458 180.306C372.099 180.073 372.332 181.121 371.691 181.354Z" fill="#000644"/>
<path d="M331.913 189.159C326.031 168.368 328.651 149.324 328.71 149.149C328.71 148.858 329.001 148.683 329.234 148.683C329.525 148.741 329.7 148.974 329.7 149.265C329.642 149.44 327.021 168.309 332.845 188.868C332.903 189.1 332.786 189.392 332.495 189.508C332.418 189.508 332.34 189.508 332.262 189.508C332.088 189.45 331.971 189.333 331.913 189.159Z" fill="#000644"/>
<path d="M328.005 159.049C325.501 156.02 324.452 152.002 324.394 151.827C324.336 151.536 324.511 151.245 324.744 151.186C325.035 151.128 325.326 151.303 325.384 151.594C325.384 151.594 326.432 155.554 328.762 158.466C328.937 158.641 328.937 158.99 328.704 159.165C328.587 159.223 328.413 159.282 328.296 159.223C328.18 159.223 328.083 159.165 328.005 159.049Z" fill="#000644"/>
</g>
<defs>
<clipPath id="clip0_104_2181">
<rect width="447" height="515" fill="white"/>
</clipPath>
</defs>
</svg>
