<svg width="177" height="205" viewBox="0 0 177 205" fill="none" xmlns="http://www.w3.org/2000/svg">
<path fill-rule="evenodd" clip-rule="evenodd" d="M26.9827 64.4357C26.9827 69.0248 23.2699 72.7376 18.6808 72.7376C14.0917 72.7376 10.3789 69.0248 10.3789 64.4357C10.3789 59.8466 14.0917 56.1338 18.6808 56.1338C23.2699 56.1338 26.9827 59.8466 26.9827 64.4357ZM21.5634 64.4357L18.6808 61.5531L15.7982 64.4357L18.6808 67.3183L21.5634 64.4357Z" fill="#EB8500"/>
<path d="M20.6605 57.6563H18.7695V56.1343H20.6605V57.6563Z" fill="#EB8500"/>
<path d="M20.6637 72.7388H18.7266V71.2168H20.6637V72.7388Z" fill="#EB8500"/>
<path fill-rule="evenodd" clip-rule="evenodd" d="M28.8733 64.4362C28.8733 69.0253 25.1605 72.7381 20.5714 72.7381C15.9823 72.7381 12.2695 69.0253 12.2695 64.4362C12.2695 59.8471 15.9823 56.1343 20.5714 56.1343C25.1605 56.1343 28.8733 59.8471 28.8733 64.4362ZM23.454 64.4362L20.5714 61.5536L17.6888 64.4362L20.5714 67.3188L23.454 64.4362Z" fill="#FFB900"/>
<path fill-rule="evenodd" clip-rule="evenodd" d="M20.57 71.6547C16.6035 71.6547 13.375 68.4262 13.375 64.4367C13.375 60.4702 16.6035 57.2417 20.57 57.2417C24.5364 57.2417 27.788 60.4702 27.788 64.4367C27.788 68.4262 24.5364 71.6547 20.57 71.6547ZM20.57 57.5876C16.788 57.5876 13.7209 60.6778 13.7209 64.4367C13.7209 68.2186 16.788 71.2857 20.57 71.2857C24.352 71.2857 27.419 68.2186 27.419 64.4367C27.419 60.6778 24.352 57.5876 20.57 57.5876Z" fill="#EB8500"/>
<path fill-rule="evenodd" clip-rule="evenodd" d="M109.858 157.974C109.858 162.563 106.145 166.276 101.556 166.276C96.9901 166.276 93.2773 162.563 93.2773 157.974C93.2773 153.385 96.9901 149.672 101.556 149.672C106.145 149.672 109.858 153.385 109.858 157.974ZM104.462 157.974L101.556 155.091L98.6736 157.974L101.556 160.856L104.462 157.974Z" fill="#EB8500"/>
<path d="M103.567 151.193H101.676V149.671H103.567V151.193Z" fill="#EB8500"/>
<path d="M103.566 166.276H101.605V164.754H103.566V166.276Z" fill="#EB8500"/>
<path fill-rule="evenodd" clip-rule="evenodd" d="M111.753 157.973C111.753 162.562 108.04 166.275 103.474 166.275C98.8847 166.275 95.1719 162.562 95.1719 157.973C95.1719 153.384 98.8847 149.671 103.474 149.671C108.04 149.671 111.753 153.384 111.753 157.973ZM106.356 157.973L103.474 155.091L100.568 157.973L103.474 160.856L106.356 157.973Z" fill="#FFB900"/>
<path fill-rule="evenodd" clip-rule="evenodd" d="M103.472 165.184C99.4824 165.184 96.2539 161.955 96.2539 157.966C96.2539 154 99.4824 150.771 103.472 150.771C107.438 150.771 110.667 154 110.667 157.966C110.667 161.955 107.438 165.184 103.472 165.184ZM103.472 151.117C99.69 151.117 96.6229 154.207 96.6229 157.966C96.6229 161.748 99.69 164.815 103.472 164.815C107.231 164.815 110.298 161.748 110.298 157.966C110.298 154.207 107.231 151.117 103.472 151.117Z" fill="#EB8500"/>
<path d="M76.1746 3.02344L75.921 30.535C75.921 30.535 44.3968 29.3128 35.4492 47.6922V15.5916C35.4492 15.5916 35.4492 4.13036 76.1746 3.02344V3.02344Z" fill="#D1D0F4"/>
<path d="M72.9461 9.6681C72.9461 9.89871 72.7155 10.0832 72.4849 10.0832C72.4157 10.0601 66.9964 9.71422 60.0782 10.752C53.7134 11.7205 44.7658 14.1188 38.1704 20.0455C37.1327 20.991 36.2333 21.9826 35.4492 23.0203V21.5905C36.0949 20.8065 36.8021 20.0685 37.5708 19.3767C40.5687 16.7016 44.2585 14.4878 48.5708 12.8044C52.0069 11.4899 55.835 10.4983 59.9629 9.87564C66.9734 8.79179 72.4849 9.18382 72.531 9.18382C72.7847 9.18382 72.9692 9.41443 72.9461 9.6681V9.6681Z" fill="white"/>
<path d="M72.9461 14.9446C72.9461 15.1983 72.7386 15.3828 72.4849 15.3597C72.4157 15.3597 66.9042 15.0368 60.0321 16.1438C53.7365 17.1584 44.9733 19.6259 39.0698 25.6448C37.6169 27.1207 36.4178 28.6888 35.4492 30.3031V28.6427C36.3409 27.3513 37.3325 26.1368 38.4241 24.9991C41.1222 22.2779 44.5813 20.018 48.7553 18.3115C52.053 16.9278 55.8119 15.9132 59.9168 15.2444C66.8581 14.1375 72.4849 14.4603 72.531 14.4603C72.7847 14.4834 72.9692 14.6909 72.9461 14.9446Z" fill="white"/>
<path d="M72.9692 19.8127C72.9461 20.0433 72.7386 20.2508 72.4849 20.2278C72.4388 20.2278 66.9503 20.0202 60.1243 21.2424C53.8748 22.3724 45.1578 24.9783 39.2543 30.9741C37.7092 32.5653 36.4639 34.2257 35.4492 35.9322V34.2487C36.387 32.8497 37.4478 31.5506 38.6316 30.3515C41.3067 27.6072 44.7658 25.3473 48.8937 23.5716C52.1914 22.1649 55.9272 21.081 59.9859 20.3661C66.9042 19.1209 72.4619 19.3284 72.531 19.3284C72.7847 19.3515 72.9692 19.559 72.9692 19.8127V19.8127Z" fill="white"/>
<path d="M72.7873 24.9102C72.7643 25.1639 72.5798 25.3484 72.3261 25.3484C72.2569 25.3484 66.7685 25.2561 59.9886 26.6398C53.7622 27.9081 45.1143 30.6985 39.3491 36.8557C37.8271 38.47 36.628 40.1534 35.6363 41.883L35.6133 40.1995C36.505 38.7851 37.535 37.463 38.7034 36.2331C41.3093 33.4427 44.7223 31.0905 48.8271 29.2226C52.0787 27.7467 55.7915 26.5706 59.8272 25.7635C66.7223 24.3568 72.28 24.449 72.3492 24.449C72.5798 24.4721 72.7873 24.6565 72.7873 24.9102V24.9102Z" fill="white"/>
<path d="M44.3968 23.9862V56.1561C44.3968 56.1561 35.9104 54.0114 35.4492 47.3699V15.4307C35.4492 15.4307 38.1935 22.7871 44.3968 23.9862V23.9862Z" fill="#A9B7DE"/>
<path fill-rule="evenodd" clip-rule="evenodd" d="M15.3807 45.4595C15.3192 45.4595 15.2577 45.4442 15.1962 45.4134C15.0809 45.3442 15.0117 45.2289 15.0117 45.0906V36.535C15.0117 36.3967 15.104 36.2813 15.2193 36.2122L18.4017 34.5287C18.517 34.4826 18.6553 34.4826 18.7706 34.5518C18.8859 34.621 18.9551 34.7363 18.9551 34.8746V43.4302C18.9551 43.5686 18.8629 43.6839 18.7476 43.753L15.5652 45.4365C15.5037 45.4519 15.4422 45.4595 15.3807 45.4595V45.4595ZM15.7497 36.7656V44.491L18.2172 43.1996V35.4742L15.7497 36.7656Z" fill="#A9B7DE"/>
<path fill-rule="evenodd" clip-rule="evenodd" d="M27.1433 43.7955H18.5877C18.3802 43.7955 18.2188 43.634 18.2188 43.4265V34.8709C18.2188 34.6634 18.3802 34.502 18.5877 34.502H27.1433C27.3508 34.502 27.5123 34.6634 27.5123 34.8709V43.4265C27.5123 43.634 27.3508 43.7955 27.1433 43.7955ZM18.9567 43.0575H26.7743V35.2399H18.9567V43.0575Z" fill="#A9B7DE"/>
<path fill-rule="evenodd" clip-rule="evenodd" d="M23.9581 45.4545H15.3795C15.218 45.4545 15.0566 45.3392 15.0336 45.1777C14.9874 45.0163 15.0566 44.8549 15.218 44.7627L18.4004 43.1023C18.4619 43.0715 18.5234 43.0562 18.5849 43.0562H27.1405C27.3019 43.0562 27.4633 43.1715 27.5095 43.3329C27.5325 43.4943 27.4633 43.6788 27.325 43.748L24.1195 45.4314C24.0734 45.4468 24.0196 45.4545 23.9581 45.4545V45.4545ZM16.8784 44.7165H23.8659L25.6415 43.7941H18.6772L16.8784 44.7165Z" fill="#A9B7DE"/>
<path fill-rule="evenodd" clip-rule="evenodd" d="M162.304 107.926L159.122 106.265C159.006 106.196 158.914 106.058 158.914 105.92V97.364C158.914 97.2256 158.983 97.1103 159.099 97.0411C159.214 96.972 159.352 96.972 159.468 97.0411L162.65 98.7015C162.765 98.7707 162.857 98.9091 162.857 99.0474V107.603C162.857 107.718 162.788 107.857 162.673 107.926C162.611 107.957 162.55 107.972 162.488 107.972C162.427 107.972 162.366 107.957 162.304 107.926V107.926ZM159.652 97.9866V105.712L162.12 106.98V99.255L159.652 97.9866Z" fill="#A9B7DE"/>
<path fill-rule="evenodd" clip-rule="evenodd" d="M150.355 105.919V97.3636C150.355 97.1561 150.517 96.9946 150.724 96.9946H159.28C159.488 96.9946 159.649 97.1561 159.649 97.3636V105.919C159.649 106.127 159.488 106.288 159.28 106.288H150.724C150.517 106.288 150.355 106.127 150.355 105.919ZM158.911 97.7326H151.093V105.55H158.911V97.7326Z" fill="#A9B7DE"/>
<path fill-rule="evenodd" clip-rule="evenodd" d="M153.742 107.928L150.56 106.268C150.398 106.175 150.329 106.014 150.352 105.853C150.398 105.668 150.56 105.553 150.721 105.553H159.277C159.338 105.553 159.4 105.568 159.461 105.599L162.643 107.282C162.805 107.351 162.874 107.536 162.828 107.697C162.805 107.859 162.643 107.974 162.482 107.974H153.903C153.842 107.974 153.788 107.959 153.742 107.928V107.928ZM159.184 106.291H152.22L153.996 107.236H160.983L159.184 106.291Z" fill="#A9B7DE"/>
<path d="M106.171 18.1279L108.431 22.9477L102.758 20.8952C101.329 21.6101 99.7144 22.0022 98.0079 22.0022C92.1966 22.0022 87.4922 17.2978 87.4922 11.4864C87.4922 5.67511 92.1966 0.970703 98.0079 0.970703C103.819 0.970703 108.547 5.67511 108.547 11.4864C108.547 14.0001 107.647 16.3292 106.171 18.1279V18.1279Z" fill="#0958D1"/>
<path d="M103.592 11.2096C103.592 11.717 103.522 12.2089 103.384 12.6855C103.369 12.747 103.353 12.8085 103.338 12.87C102.807 14.5304 101.539 15.8448 99.9248 16.4444C99.8633 16.4598 99.8018 16.4829 99.7403 16.5136C99.1869 16.675 98.6104 16.7673 98.0108 16.7673C97.5034 16.7673 97.0115 16.7058 96.5349 16.5828C96.4734 16.552 96.4119 16.529 96.3504 16.5136C95.4049 16.2138 94.5747 15.6834 93.906 14.9685C93.8598 14.907 93.8137 14.8455 93.7676 14.784C93.0988 14 92.6376 13.0314 92.4992 11.9476C92.4839 11.8707 92.4762 11.7938 92.4762 11.717C92.4608 11.5478 92.4531 11.3787 92.4531 11.2096C92.4531 9.01885 93.6984 7.12786 95.5433 6.20543C95.6048 6.17468 95.6663 6.14393 95.7278 6.11318C96.4196 5.81339 97.2037 5.62891 98.0108 5.62891C98.0876 5.62891 98.1645 5.62891 98.2414 5.62891C98.3029 5.62891 98.3644 5.63659 98.4259 5.65197C98.9179 5.68271 99.3867 5.77496 99.8326 5.9287C99.8941 5.94407 99.9556 5.96713 100.017 5.99788C101.608 6.62052 102.854 7.93499 103.361 9.59537C103.376 9.65686 103.392 9.71836 103.407 9.77985C103.438 9.88747 103.461 9.99509 103.476 10.1027C103.492 10.1796 103.507 10.2488 103.522 10.3102C103.568 10.6024 103.592 10.9021 103.592 11.2096V11.2096Z" fill="#FFB900"/>
<path d="M95.7242 6.11572C95.6781 7.1304 95.3553 8.14508 94.871 9.02139C94.2483 10.1283 93.3951 11.0738 92.4957 11.9501C92.4804 11.8732 92.4727 11.7964 92.4727 11.7195C93.2798 10.9354 94.0177 10.0822 94.5943 9.11363C95.1247 8.23732 95.4706 7.22264 95.5398 6.20797C95.6013 6.17722 95.6627 6.14647 95.7242 6.11572Z" fill="#EB8500"/>
<path d="M103.409 9.7828C102.325 9.80586 101.264 9.3677 100.596 8.46833C100.042 7.75344 99.7655 6.83101 99.8347 5.93164C99.8962 5.94701 99.9577 5.97007 100.019 6.00082C99.95 7.19998 100.48 8.42221 101.495 9.09097C102.049 9.43688 102.717 9.62137 103.363 9.59831C103.378 9.6598 103.394 9.7213 103.409 9.7828Z" fill="#EB8500"/>
<path d="M103.527 10.309C103.235 10.2168 102.935 10.163 102.627 10.1476C100.598 10.0554 98.4994 11.2545 97.3925 12.938C96.6776 14.0218 96.3778 15.3363 96.5392 16.5816C96.4777 16.5508 96.4162 16.5278 96.3547 16.5124C96.2932 16.0819 96.2932 15.6515 96.3547 15.221C96.5853 13.1225 98.0843 11.3929 99.9753 10.5166C101.036 10.0323 102.351 9.82476 103.481 10.1015C103.496 10.1784 103.511 10.2475 103.527 10.309V10.309Z" fill="#EB8500"/>
<path d="M103.382 12.6852C103.367 12.7467 103.351 12.8082 103.336 12.8697C102.298 12.8697 101.306 13.4693 100.707 14.3226C100.246 14.9452 100.015 15.6831 99.9228 16.4441C99.8613 16.4595 99.7998 16.4826 99.7383 16.5133C99.8075 15.637 100.084 14.8068 100.615 14.0919C101.283 13.2387 102.321 12.6622 103.382 12.6852V12.6852Z" fill="#EB8500"/>
<path d="M98.4008 6.64309C98.3086 7.68083 97.9857 8.69551 97.4323 9.59488C96.8558 10.5404 96.0486 11.3244 95.3338 12.1777C94.665 13.0079 94.1577 13.9303 93.904 14.968C93.8579 14.9066 93.8117 14.8451 93.7656 14.7836C93.9732 13.9534 94.3421 13.1924 94.8725 12.4775C95.5413 11.5781 96.3946 10.794 97.0403 9.84854C97.9166 8.62632 98.3086 7.12737 98.2394 5.62842C98.3009 5.62842 98.3624 5.6361 98.4239 5.65148C98.4393 5.97433 98.4316 6.30487 98.4008 6.64309V6.64309Z" fill="#EB8500"/>
<path d="M102.74 8.25636C103.339 8.2333 103.916 8.25636 104.492 8.34861C104.931 8.41779 105.346 8.62534 105.507 9.06349C105.692 9.50165 105.484 9.96286 105.207 10.3088C104.931 10.6547 104.585 10.9084 104.216 11.162C104 11.3158 103.785 11.4618 103.57 11.6002C103.385 11.7232 103.193 11.8462 102.993 11.9692C102.163 12.4765 101.31 12.93 100.434 13.3297C98.658 14.1369 96.7901 14.7365 94.876 15.1054C94.6454 15.1362 94.4071 15.1746 94.1611 15.2207C93.9152 15.2515 93.6692 15.2822 93.4232 15.313C92.9159 15.3822 92.4085 15.4513 91.9012 15.3591C91.094 15.2207 90.333 14.552 90.4945 13.6526C90.6328 12.7993 91.6014 12.1767 92.2471 11.6694C92.324 11.6232 92.3931 11.5771 92.4546 11.531L92.5699 12.3842C92.2702 12.6149 91.9704 12.8685 91.6936 13.1222C91.44 13.3528 91.1402 13.6757 91.2555 14.0446C91.5091 14.8287 92.6622 14.6442 93.2618 14.575C93.3694 14.5597 93.4693 14.5443 93.5616 14.5289C94.2841 14.4367 94.9913 14.306 95.6832 14.1369C97.2744 13.7679 98.8194 13.2606 100.295 12.5687C101.018 12.2151 101.725 11.8385 102.417 11.4388C102.786 11.2081 103.201 10.9775 103.57 10.7239C103.847 10.5163 104.123 10.3318 104.377 10.1012C104.562 9.9398 104.977 9.52471 104.769 9.24798C104.608 9.04043 104.17 9.06349 103.916 9.04043C103.67 9.02506 103.416 9.01737 103.155 9.01737L102.74 8.25636Z" fill="#FBFFFD"/>
<path d="M157.505 144.984H109.885C108.501 144.984 107.371 143.877 107.371 142.494V116.043C107.371 114.659 108.501 113.529 109.885 113.529H157.505C158.889 113.529 160.019 114.659 160.019 116.043V142.494C160.019 143.877 158.889 144.984 157.505 144.984Z" fill="#D1D0F4"/>
<path fill-rule="evenodd" clip-rule="evenodd" d="M133.685 137.188C128.727 137.188 124.715 133.152 124.715 128.194C124.715 123.236 128.727 119.2 133.685 119.2C138.644 119.2 142.679 123.236 142.679 128.194C142.679 133.152 138.644 137.188 133.685 137.188ZM133.685 119.477C128.889 119.477 124.969 123.374 124.969 128.194C124.969 132.991 128.889 136.911 133.685 136.911C138.505 136.911 142.426 132.991 142.426 128.194C142.426 123.374 138.505 119.477 133.685 119.477ZM131.956 123.328L138.482 126.995C139.174 127.387 139.197 128.378 138.528 128.817L132.002 133.014C131.287 133.475 130.365 132.967 130.365 132.114V124.251C130.365 123.443 131.241 122.936 131.956 123.328Z" fill="white"/>
<path d="M155.431 141.109H111.961V140.348H155.431V141.109Z" fill="#A9B7DE"/>
<path d="M139.565 141.109H111.961V140.348H139.565V141.109Z" fill="white"/>
<path d="M140.784 140.556C140.784 141.248 140.23 141.801 139.538 141.801C138.846 141.801 138.293 141.248 138.293 140.556C138.293 139.887 138.846 139.311 139.538 139.311C140.23 139.311 140.784 139.887 140.784 140.556Z" fill="white"/>
<path d="M115.761 161.314C115.746 161.314 115.723 161.314 115.692 161.314C115.346 161.268 115.162 161.221 115.162 161.221C114.954 161.175 114.839 160.968 114.885 160.783C114.931 160.599 115.116 160.46 115.3 160.506C115.323 160.506 115.485 160.553 115.831 160.622C116.015 160.645 116.153 160.829 116.107 161.037C116.084 161.198 115.923 161.314 115.761 161.314Z" fill="#A9B7DE"/>
<path d="M120.717 161.705C120.509 161.705 120.348 161.566 120.348 161.359C120.348 161.151 120.509 160.99 120.717 160.99C121.055 160.99 121.393 160.982 121.731 160.967C121.916 160.967 122.1 161.128 122.1 161.313C122.1 161.52 121.962 161.682 121.754 161.682C121.416 161.697 121.07 161.705 120.717 161.705ZM118.734 161.659C118.734 161.659 118.726 161.659 118.71 161.659C118.372 161.643 118.026 161.62 117.673 161.59C117.488 161.566 117.327 161.382 117.35 161.197C117.373 160.99 117.557 160.852 117.742 160.875C118.08 160.905 118.418 160.928 118.757 160.944C118.964 160.944 119.102 161.128 119.102 161.313C119.079 161.52 118.941 161.659 118.734 161.659ZM123.715 161.543C123.53 161.543 123.369 161.405 123.369 161.221C123.346 161.036 123.484 160.852 123.669 160.828C124.007 160.798 124.345 160.752 124.683 160.69C124.868 160.667 125.052 160.805 125.098 160.99C125.121 161.197 124.983 161.382 124.799 161.405C124.445 161.467 124.099 161.513 123.761 161.543C123.745 161.543 123.73 161.543 123.715 161.543V161.543ZM126.666 161.036C126.505 161.036 126.367 160.921 126.321 160.759C126.274 160.575 126.39 160.367 126.597 160.344C126.92 160.252 127.243 160.167 127.566 160.091C127.773 160.021 127.958 160.137 128.027 160.321C128.073 160.529 127.958 160.713 127.773 160.782C127.435 160.875 127.097 160.959 126.759 161.036C126.728 161.036 126.697 161.036 126.666 161.036V161.036ZM129.549 160.16C129.411 160.16 129.272 160.067 129.203 159.929C129.134 159.745 129.226 159.537 129.411 159.468C129.734 159.345 130.049 159.214 130.356 159.076C130.541 159.007 130.748 159.076 130.817 159.26C130.91 159.445 130.817 159.652 130.633 159.745C130.325 159.883 130.003 160.014 129.664 160.137C129.634 160.152 129.595 160.16 129.549 160.16ZM132.247 158.868C132.132 158.868 132.017 158.799 131.947 158.684C131.855 158.522 131.901 158.292 132.086 158.2C132.362 158.03 132.647 157.854 132.939 157.669C133.1 157.554 133.331 157.6 133.423 157.761C133.539 157.946 133.492 158.153 133.331 158.269C133.039 158.469 132.739 158.653 132.432 158.822C132.37 158.853 132.309 158.868 132.247 158.868V158.868ZM134.715 157.162C134.622 157.162 134.507 157.116 134.438 157.023C134.3 156.862 134.323 156.654 134.484 156.516C134.745 156.301 134.999 156.078 135.245 155.847C135.383 155.709 135.614 155.709 135.752 155.87C135.891 156.009 135.868 156.239 135.729 156.378C135.468 156.608 135.207 156.839 134.945 157.07C134.876 157.116 134.784 157.162 134.715 157.162ZM136.836 155.04C136.767 155.04 136.675 155.017 136.606 154.948C136.467 154.833 136.444 154.602 136.56 154.441C136.775 154.195 136.99 153.933 137.205 153.657C137.321 153.495 137.551 153.472 137.69 153.587C137.851 153.703 137.897 153.933 137.759 154.095C137.559 154.371 137.344 154.641 137.113 154.902C137.044 154.994 136.952 155.04 136.836 155.04V155.04ZM138.589 152.596C138.527 152.596 138.466 152.58 138.404 152.55C138.22 152.434 138.174 152.227 138.266 152.065C138.451 151.773 138.62 151.473 138.773 151.166C138.866 151.005 139.073 150.935 139.258 151.028C139.442 151.12 139.511 151.327 139.396 151.512C139.242 151.819 139.073 152.127 138.889 152.434C138.819 152.527 138.704 152.596 138.589 152.596V152.596Z" fill="#A9B7DE"/>
<path d="M139.927 149.919C139.881 149.919 139.835 149.904 139.789 149.873C139.604 149.804 139.535 149.596 139.604 149.412C139.681 149.242 139.75 149.081 139.812 148.927C139.881 148.743 140.089 148.651 140.273 148.72C140.458 148.789 140.55 148.996 140.481 149.181C140.404 149.35 140.335 149.519 140.273 149.688C140.204 149.827 140.089 149.919 139.927 149.919Z" fill="#A9B7DE"/>
<path d="M8.53249 52.0064C8.41719 52.0064 8.30188 51.9372 8.2327 51.8219C8.21733 51.8065 8.17889 51.7373 8.1174 51.6143C8.00209 51.4529 8.07127 51.2223 8.25576 51.13C8.41719 51.0378 8.6478 51.107 8.74004 51.2684C8.80153 51.3914 8.83997 51.4606 8.85534 51.476C8.88609 51.5221 8.90146 51.5836 8.90146 51.6604C8.90146 51.8449 8.74004 52.0064 8.53249 52.0064V52.0064ZM7.49476 49.9539C7.35639 49.9539 7.24108 49.8848 7.1719 49.7464C7.01816 49.4235 6.87211 49.0853 6.73375 48.7317C6.66457 48.5472 6.75681 48.3397 6.94129 48.2705C7.12578 48.2013 7.33333 48.2936 7.40251 48.4781C7.54088 48.8009 7.67924 49.1238 7.81761 49.4466C7.90985 49.6311 7.81761 49.8386 7.65618 49.9309C7.59469 49.9463 7.54088 49.9539 7.49476 49.9539V49.9539ZM6.34171 47.0252C6.20335 47.0252 6.06498 46.933 6.01886 46.7716C5.89587 46.4333 5.78057 46.0874 5.67295 45.7338C5.62683 45.5493 5.74213 45.3418 5.92662 45.2957C6.11111 45.2495 6.31865 45.3418 6.36477 45.5263C6.47239 45.8799 6.58001 46.2258 6.68763 46.564C6.75681 46.7485 6.64151 46.956 6.45702 47.0022C6.42627 47.0175 6.38784 47.0252 6.34171 47.0252ZM5.51152 44.0043C5.3501 44.0043 5.18867 43.889 5.16561 43.7275C5.07337 43.3586 4.9965 42.9973 4.935 42.6437C4.91194 42.4592 5.02725 42.2747 5.23479 42.2286C5.41928 42.1825 5.60377 42.3208 5.64989 42.5284C5.71138 42.8666 5.78057 43.2125 5.85744 43.5661C5.90356 43.7506 5.76519 43.9581 5.58071 43.9812C5.54996 43.9966 5.5269 44.0043 5.51152 44.0043V44.0043ZM5.00419 40.891C4.8197 40.891 4.65827 40.7527 4.65827 40.5682C4.61215 40.1992 4.5814 39.8379 4.56603 39.4843C4.56603 39.2768 4.70439 39.1154 4.91194 39.0923C5.09643 39.0923 5.28091 39.2537 5.28091 39.4382C5.29629 39.7918 5.32703 40.1454 5.37316 40.499C5.37316 40.7066 5.23479 40.868 5.05031 40.891C5.03493 40.891 5.01956 40.891 5.00419 40.891V40.891ZM4.91194 37.7548C4.91194 37.7548 4.90426 37.7548 4.88888 37.7548C4.70439 37.7548 4.54297 37.5703 4.54297 37.3858C4.55834 37.0168 4.5814 36.6479 4.61215 36.2789C4.63521 36.0944 4.8197 35.956 5.00419 35.956C5.21173 35.9791 5.3501 36.1636 5.32704 36.3481C5.29629 36.7017 5.27323 37.0553 5.25785 37.4089C5.25785 37.5934 5.09643 37.7548 4.91194 37.7548V37.7548ZM5.28091 34.6416C5.25017 34.6416 5.22711 34.6339 5.21173 34.6185C5.00418 34.5954 4.88888 34.411 4.91194 34.2034C4.98881 33.8498 5.07337 33.4962 5.16561 33.1426C5.21173 32.9351 5.41928 32.8198 5.60376 32.8889C5.78825 32.9351 5.90356 33.1196 5.85744 33.3271C5.76519 33.6653 5.68832 34.0036 5.62683 34.3418C5.58071 34.5263 5.44234 34.6416 5.28091 34.6416V34.6416ZM6.13416 31.6206C6.08804 31.6206 6.04961 31.6129 6.01886 31.5975C5.83437 31.5284 5.74213 31.3208 5.81131 31.1363C5.93431 30.7981 6.07267 30.4599 6.22641 30.1217C6.29559 29.9372 6.5262 29.8449 6.71069 29.9372C6.87211 30.0294 6.96435 30.237 6.87211 30.4214C6.73375 30.7289 6.60307 31.0518 6.48008 31.39C6.41089 31.5284 6.27253 31.6206 6.13416 31.6206V31.6206ZM7.49476 28.7841C7.43326 28.7841 7.37945 28.7688 7.33333 28.738C7.14884 28.6458 7.10272 28.4151 7.19496 28.2537C7.37945 27.9309 7.57931 27.6234 7.79454 27.3313C7.88679 27.1468 8.1174 27.1237 8.27882 27.216C8.44025 27.3313 8.48637 27.5619 8.37106 27.7233C8.18658 28.0154 8.00209 28.3152 7.81761 28.6227C7.74842 28.738 7.63312 28.7841 7.49476 28.7841ZM9.33962 26.2474C9.24738 26.2474 9.15514 26.2013 9.10901 26.1552C8.94759 26.0168 8.92452 25.7862 9.06289 25.6479C9.30887 25.3711 9.55486 25.1021 9.80084 24.8407C9.9392 24.7024 10.1698 24.7024 10.3082 24.8407C10.4696 24.9791 10.4696 25.2097 10.3312 25.3481C10.0699 25.594 9.8239 25.8477 9.59329 26.1091C9.52411 26.2013 9.43187 26.2474 9.33962 26.2474ZM11.5996 24.0797C11.5073 24.0797 11.392 24.0336 11.3229 23.9414C11.2075 23.7799 11.2306 23.5724 11.392 23.434C11.6841 23.2188 11.9762 23.0035 12.2683 22.7883C12.4528 22.673 12.6604 22.7191 12.7757 22.8806C12.891 23.042 12.8449 23.2726 12.6834 23.3879C12.3913 23.5878 12.1069 23.7953 11.8302 24.0105C11.7687 24.0567 11.6918 24.0797 11.5996 24.0797V24.0797ZM14.2516 22.3963C14.1132 22.3963 13.9979 22.3271 13.9287 22.1887C13.8365 22.0273 13.9057 21.7967 14.0902 21.7045C14.413 21.5507 14.7435 21.397 15.0818 21.2432C15.2663 21.151 15.4738 21.2432 15.543 21.4277C15.6352 21.6122 15.543 21.8198 15.3816 21.8889C15.0433 22.0427 14.7205 22.1964 14.413 22.3502C14.3669 22.3809 14.3131 22.3963 14.2516 22.3963V22.3963ZM17.1572 21.1741C16.9958 21.1741 16.8575 21.0818 16.8113 20.9434C16.7421 20.759 16.8575 20.5514 17.0419 20.4822C17.3802 20.3746 17.7261 20.267 18.0797 20.1594C18.2872 20.1133 18.4717 20.2286 18.5409 20.413C18.587 20.6206 18.4717 20.8051 18.2872 20.8512C17.9336 20.9588 17.5954 21.0664 17.2725 21.1741C17.2264 21.1741 17.188 21.1741 17.1572 21.1741ZM20.2013 20.413C20.0168 20.413 19.8784 20.2977 19.8554 20.1133C19.8092 19.9288 19.9476 19.7443 20.1321 19.6982C20.4857 19.6367 20.847 19.5829 21.216 19.5367C21.4004 19.4906 21.5849 19.629 21.608 19.8365C21.6541 20.021 21.5157 20.2055 21.3082 20.2286C20.9546 20.2901 20.6087 20.3516 20.2705 20.413C20.2397 20.413 20.2166 20.413 20.2013 20.413V20.413ZM30.6478 20.39C30.6325 20.39 30.6094 20.39 30.5786 20.39C30.5786 20.39 30.2097 20.2977 29.5409 20.2055C29.3564 20.1824 29.2181 19.998 29.2411 19.8135C29.2642 19.6059 29.4487 19.4676 29.6332 19.5137C30.325 19.5829 30.717 19.6751 30.7401 19.6751C30.9246 19.7212 31.0399 19.9057 31.0168 20.0902C30.9707 20.2747 30.8323 20.39 30.6478 20.39V20.39ZM23.3145 20.021C23.13 20.021 22.9686 19.8827 22.9686 19.6982C22.9455 19.4906 23.0839 19.3292 23.2914 19.3061C23.645 19.2754 24.0063 19.26 24.3753 19.26C24.5828 19.2369 24.7443 19.3984 24.7443 19.6059C24.7673 19.7904 24.6059 19.9518 24.3983 19.9749C24.0447 19.9903 23.6911 20.0056 23.3375 20.021C23.3375 20.021 23.3299 20.021 23.3145 20.021ZM27.5346 20.021C27.5346 20.021 27.5269 20.021 27.5116 20.021C27.158 19.9903 26.8044 19.9749 26.4508 19.9749C26.2432 19.9518 26.1048 19.7904 26.1048 19.6059C26.1048 19.3984 26.2663 19.2369 26.4738 19.26C26.8428 19.26 27.2041 19.2754 27.5577 19.3061C27.7652 19.3061 27.9036 19.4906 27.9036 19.6751C27.8805 19.8827 27.7191 20.021 27.5346 20.021Z" fill="#A9B7DE"/>
<path d="M164.354 91.3692C164.146 91.3692 163.985 91.2077 163.985 91.0232V80.5767H152.892C152.685 80.5767 152.523 80.4153 152.523 80.2077C152.523 80.0232 152.685 79.8618 152.892 79.8618H164.354C164.538 79.8618 164.7 80.0232 164.7 80.2077V91.0232C164.7 91.2077 164.538 91.3692 164.354 91.3692V91.3692Z" fill="#0958D1"/>
<path d="M154.483 80.2056C154.483 81.1049 153.768 81.8198 152.892 81.8198C151.992 81.8198 151.277 81.1049 151.277 80.2056C151.277 79.3293 151.992 78.5913 152.892 78.5913C153.768 78.5913 154.483 79.3293 154.483 80.2056Z" fill="#0958D1"/>
<path d="M165.944 80.2056C165.944 81.1049 165.229 81.8198 164.353 81.8198C163.453 81.8198 162.738 81.1049 162.738 80.2056C162.738 79.3293 163.453 78.5913 164.353 78.5913C165.229 78.5913 165.944 79.3293 165.944 80.2056Z" fill="#0958D1"/>
<path d="M165.944 91.0239C165.944 91.9002 165.229 92.6382 164.353 92.6382C163.453 92.6382 162.738 91.9002 162.738 91.0239C162.738 90.1246 163.453 89.4097 164.353 89.4097C165.229 89.4097 165.944 90.1246 165.944 91.0239Z" fill="#0958D1"/>
<path d="M176.619 91.0239C176.619 91.9002 175.881 92.6382 175.005 92.6382C174.106 92.6382 173.391 91.9002 173.391 91.0239C173.391 90.1246 174.106 89.4097 175.005 89.4097C175.881 89.4097 176.619 90.1246 176.619 91.0239Z" fill="#0958D1"/>
<path d="M175.004 91.3687H164.349C164.142 91.3687 163.98 91.2073 163.98 91.0228C163.98 90.8152 164.142 90.6538 164.349 90.6538H175.004C175.211 90.6538 175.373 90.8152 175.373 91.0228C175.373 91.2073 175.211 91.3687 175.004 91.3687Z" fill="#0958D1"/>
<path d="M26.244 171.97C26.0364 171.97 25.875 171.808 25.875 171.601V160.139C25.875 159.932 26.0364 159.771 26.244 159.771H37.0364C37.244 159.771 37.4054 159.932 37.4054 160.139C37.4054 160.347 37.244 160.508 37.0364 160.508H26.6129V171.601C26.6129 171.808 26.4285 171.97 26.244 171.97Z" fill="#FF4B4A"/>
<path d="M26.2432 169.984C27.1195 169.984 27.8344 170.722 27.8344 171.599C27.8344 172.498 27.1195 173.213 26.2432 173.213C25.3438 173.213 24.6289 172.498 24.6289 171.599C24.6289 170.722 25.3438 169.984 26.2432 169.984Z" fill="#FF4B4A"/>
<path d="M26.2432 158.52C27.1195 158.52 27.8344 159.258 27.8344 160.134C27.8344 161.034 27.1195 161.749 26.2432 161.749C25.3438 161.749 24.6289 161.034 24.6289 160.134C24.6289 159.258 25.3438 158.52 26.2432 158.52Z" fill="#FF4B4A"/>
<path d="M37.0365 158.52C37.9359 158.52 38.6508 159.258 38.6508 160.134C38.6508 161.034 37.9359 161.749 37.0365 161.749C36.1602 161.749 35.4453 161.034 35.4453 160.134C35.4453 159.258 36.1602 158.52 37.0365 158.52Z" fill="#FF4B4A"/>
<path d="M37.0365 147.872C37.9359 147.872 38.6508 148.586 38.6508 149.486C38.6508 150.362 37.9359 151.077 37.0365 151.077C36.1602 151.077 35.4453 150.362 35.4453 149.486C35.4453 148.586 36.1602 147.872 37.0365 147.872Z" fill="#FF4B4A"/>
<path d="M37.0369 160.506C36.8525 160.506 36.668 160.344 36.668 160.137V149.483C36.668 149.275 36.8525 149.114 37.0369 149.114C37.2445 149.114 37.4059 149.275 37.4059 149.483V160.137C37.4059 160.344 37.2445 160.506 37.0369 160.506Z" fill="#FF4B4A"/>
<path d="M148.742 7.8641C145.029 8.5098 144.499 9.0402 143.83 12.753C143.185 9.0402 142.654 8.5098 138.941 7.8641C142.654 7.19534 143.185 6.66494 143.83 2.95215C144.499 6.66494 145.029 7.19534 148.742 7.8641Z" fill="#FFB900"/>
<path d="M9.80085 152.781C6.08806 153.427 5.55766 153.957 4.8889 157.67C4.24319 153.957 3.71279 153.427 0 152.781C3.71279 152.112 4.24319 151.582 4.8889 147.869C5.55766 151.582 6.08806 152.112 9.80085 152.781Z" fill="#FFB900"/>
<path d="M175.633 115.327C171.92 115.973 171.39 116.504 170.721 120.216C170.075 116.504 169.545 115.973 165.832 115.327C169.545 114.659 170.075 114.128 170.721 110.416C171.39 114.128 171.92 114.659 175.633 115.327Z" fill="#FFB900"/>
<path d="M78.3808 42.1607C80.6177 46.9573 86.6596 66.3745 77.5044 65.1292C69.5946 64.0684 72.4772 36.8797 72.4772 36.8797C77.2277 36.6722 76.1439 37.364 78.3808 42.1607Z" fill="#FE9174"/>
<path d="M78.0601 40.982C77.645 43.1727 75.8924 45.7786 73.471 46.0553C72.5947 46.1476 71.6031 45.7786 71.188 44.9484C70.8421 44.2105 71.1188 43.3342 71.8106 42.896C72.0412 42.7577 72.2488 43.1266 71.9951 43.2881C71.0035 43.9107 71.58 45.2482 72.5486 45.548C73.3557 45.8017 74.1859 45.5019 74.9008 45.0637C76.3767 44.1182 77.3222 42.5501 77.645 40.8667C77.7142 40.5899 78.1293 40.7052 78.0601 40.982Z" fill="#000644"/>
<path d="M73.5582 30.6507C73.5582 30.6507 71.8517 27.9295 71.2521 26.8226C70.6756 25.7388 68.8307 24.1937 69.4995 23.6172C70.1683 23.0176 72.336 25.2314 72.336 25.2314L73.5582 30.6507Z" fill="#D23E3C"/>
<path d="M72.6344 39.1607C72.6344 39.1607 70.9279 37.5926 69.5212 35.9091C68.0914 34.2257 65.7853 33.5339 67.3535 32.7959C68.9216 32.058 71.2969 33.8798 72.0118 33.6723C73.2801 33.3033 72.9111 31.1586 71.9195 27.5611C70.6051 22.8337 71.4583 22.4186 71.735 22.6031C72.8189 23.2488 73.2109 25.5548 74.8713 29.014C76.5317 32.4962 76.67 36.6702 76.3933 38.884C76.3933 38.884 74.2487 39.3221 72.6344 39.1607V39.1607Z" fill="#FE9174"/>
<path d="M41.9263 117.178L36.0688 133.16L29.5195 132.352L32.4944 113.396L41.9263 117.178Z" fill="#FE9174"/>
<path d="M17.8693 137.771C21.4207 136.065 26.7708 135.396 27.7163 133.851C28.6618 132.306 29.2613 129.631 29.5842 129.769C29.9301 129.908 31.0601 132.606 32.3284 132.629C33.5968 132.675 35.9951 131.199 36.4333 132.098C36.4333 132.098 37.9092 133.09 36.1104 135.535C35.4647 136.411 36.0412 138.44 35.5339 140.954C35.3725 141.761 35.1188 142.614 34.6576 143.491L14.5255 142.153C14.5255 142.153 14.4563 141.231 15.1251 140.101C15.5863 139.34 16.4165 138.463 17.8693 137.771V137.771Z" fill="#0958D1"/>
<path d="M24.3054 135.123C25.0203 135.1 25.666 135.446 26.058 136.068C26.2194 136.299 25.8274 136.506 25.689 136.276C25.3662 135.791 24.8588 135.538 24.2823 135.561C24.0056 135.561 24.0286 135.146 24.3054 135.123Z" fill="white"/>
<path d="M23.1529 135.563C23.7294 135.678 24.2598 135.978 24.6518 136.439C24.8363 136.647 24.5365 136.947 24.352 136.739C23.9831 136.339 23.5449 136.086 23.0376 135.978C22.7608 135.909 22.8761 135.494 23.1529 135.563Z" fill="white"/>
<path d="M21.7205 135.902C22.3201 136.071 22.8351 136.386 23.2656 136.847C23.4501 137.032 23.1503 137.332 22.9428 137.124C22.5738 136.74 22.1203 136.471 21.5822 136.317C21.3285 136.248 21.4438 135.833 21.7205 135.902V135.902Z" fill="white"/>
<path d="M35.5339 140.955C35.3725 141.762 35.1188 142.616 34.6576 143.492L14.5255 142.154C14.5255 142.154 14.4563 141.232 15.1251 140.102L35.5339 140.955Z" fill="white"/>
<path d="M35.6018 137.498C32.281 136.898 29.0064 138.559 27.4613 141.557C27.346 141.787 26.9771 141.557 27.0924 141.326C28.7297 138.144 32.2119 136.46 35.7402 137.083C35.9938 137.129 35.8785 137.544 35.6018 137.498Z" fill="white"/>
<path d="M28.3374 139.778C24.3709 139.639 20.4045 139.501 16.438 139.363C16.1613 139.363 16.1613 138.925 16.438 138.948C20.4045 139.086 24.3709 139.217 28.3374 139.34C28.6141 139.363 28.6141 139.801 28.3374 139.778V139.778Z" fill="white"/>
<path d="M46.2551 62.2256C47.6618 61.9489 49.7142 62.2256 52.1356 62.8943C63.1817 65.9614 81.861 76.9614 81.861 76.9614C92.469 86.5317 90.7856 94.4415 81.7227 101.314L56.4249 89.5065L43.3033 123.89L28.1523 118.309C28.1523 118.309 35.8777 77.0998 43.0727 65.3157C44.1566 63.5401 45.2174 62.4331 46.2551 62.2256V62.2256Z" fill="#14B74E"/>
<path d="M46.2566 62.2246C47.6633 61.9479 49.7157 62.2246 52.1371 62.8934C53.4516 66.0988 54.4893 70.2728 50.8918 70.319C47.8247 70.3651 45.0344 67.7823 43.0742 65.3148C44.1581 63.5391 45.2189 62.4322 46.2566 62.2246V62.2246Z" fill="#057F42"/>
<path d="M43.5618 126.287L26.0586 120.222L27.4192 115.402L44.7379 121.421L43.5618 126.287Z" fill="#057F42"/>
<path d="M41.5786 119.923L55.369 83.2337C55.3844 83.1722 55.4228 83.1337 55.4843 83.1184C55.5304 83.0953 55.5996 83.0953 55.6457 83.1184L78.7066 94.1414C78.8219 94.1876 78.868 94.3259 78.8219 94.4182C78.7527 94.5335 78.6374 94.5796 78.5451 94.5104L55.6688 83.5796L41.9707 120.062C41.9245 120.177 41.8092 120.223 41.717 120.177C41.7016 120.177 41.6862 120.177 41.6709 120.177C41.5786 120.108 41.5556 120.016 41.5786 119.923V119.923Z" fill="#057F42"/>
<path d="M58.4098 176.053L53.7054 191.504L47.3867 189.52L48.6551 173.816L58.4098 176.053Z" fill="#FE9174"/>
<path d="M51.1022 185.55C51.5634 187.648 54.8611 186.472 54.8611 186.472L55.576 185.55C55.576 185.55 56.4984 189.677 55.576 192.606C54.6766 195.535 52.0246 196.988 47.3894 201.761C42.7772 206.512 36.643 205.29 37.012 201.9C37.381 198.51 44.1839 192.306 45.729 189.908C46.6975 188.432 46.7437 186.795 46.6514 185.803C46.5592 184.927 47.1818 184.12 48.0581 183.981C49.3034 183.797 50.8024 184.212 51.1022 185.55V185.55Z" fill="#0958D1"/>
<path d="M52.3032 196.37C52.1879 194.825 52.3263 193.303 52.8797 191.85C53.4793 190.236 54.494 188.829 55.8315 187.745C56.0391 187.584 56.3389 187.883 56.1313 188.045C54.8169 189.106 53.8022 190.512 53.2257 192.104C52.7183 193.487 52.6261 194.917 52.7183 196.37C52.7414 196.647 52.3032 196.647 52.3032 196.37Z" fill="white"/>
<path d="M52.5113 194.312C52.4806 194.528 52.4652 194.743 52.4652 194.958C52.3115 195.112 52.1654 195.266 52.0271 195.419C50.7357 196.757 49.4212 198.025 48.1298 199.34C46.9076 200.562 45.7776 201.876 44.3478 202.845C43.0103 203.744 41.3499 204.321 39.7356 203.998C38.4212 203.744 37.2681 202.845 36.8069 201.554C36.7147 201.3 37.1067 201.185 37.1989 201.438C37.7985 203.099 39.6203 203.837 41.2577 203.629C42.9411 203.422 44.3709 202.43 45.57 201.323C46.7461 200.239 47.83 199.04 48.9369 197.91C50.1361 196.734 51.3352 195.535 52.5113 194.312V194.312Z" fill="white"/>
<path d="M41.2993 194.497C42.5676 194.151 43.8129 194.843 44.1819 196.111C44.2511 196.365 43.859 196.48 43.7668 196.227C43.467 195.166 42.4523 194.612 41.4146 194.912C41.1379 194.981 41.0226 194.566 41.2993 194.497Z" fill="white"/>
<path d="M42.5235 193.324C43.7918 192.978 45.0371 193.67 45.4061 194.938C45.4752 195.192 45.0601 195.307 44.991 195.054C44.6912 193.993 43.6765 193.439 42.6157 193.739C42.362 193.808 42.2467 193.393 42.5235 193.324Z" fill="white"/>
<path d="M43.5835 192.146C44.8519 191.777 46.1202 192.469 46.4892 193.737C46.5584 194.014 46.1433 194.129 46.0741 193.852C45.7743 192.815 44.7366 192.261 43.6988 192.538C43.4452 192.63 43.3298 192.215 43.5835 192.146V192.146Z" fill="white"/>
<path d="M44.5042 190.996C45.7725 190.65 47.0178 191.342 47.3868 192.61C47.456 192.864 47.0639 192.979 46.9948 192.726C46.695 191.665 45.6572 191.111 44.6195 191.411C44.3428 191.48 44.2505 191.065 44.5042 190.996Z" fill="white"/>
<path d="M60.5737 121.58C67.2383 112.31 92.0287 84.7749 92.0287 84.7749L111.4 103.108C111.4 103.108 80.4983 130.435 75.9783 136.016C74.2949 138.115 61.7037 183.867 61.7037 183.867L45.9531 177.964C45.9531 177.964 52.6638 145.148 56.9531 130.159C57.8756 126.999 58.6827 124.624 59.2823 123.54C59.559 123.033 59.9972 122.387 60.5737 121.58V121.58Z" fill="#14B74E"/>
<path d="M60.5776 121.582C63.4141 123.265 70.4707 127.969 66.8963 131.336C64.5671 133.527 59.7935 131.636 56.957 130.16C57.8795 127.001 58.6866 124.626 59.2862 123.542C59.5629 123.034 60.0011 122.389 60.5776 121.582V121.582Z" fill="#057F42"/>
<path d="M84.9095 92.9401C83.0338 95.1232 81.1582 97.3063 79.2826 99.4894C79.1212 99.697 78.8445 99.3972 79.0059 99.1896C80.8815 97.0065 82.7571 94.8234 84.6327 92.6403C84.7942 92.4559 85.0939 92.7557 84.9095 92.9401V92.9401Z" fill="#057F42"/>
<path d="M80.7093 97.1091C79.464 95.8869 79.8099 93.9267 80.6171 92.5662C81.6087 90.9288 83.0385 89.2915 84.6527 88.2307C84.8603 88.0924 85.0678 88.4613 84.8372 88.5997C83.4074 89.5452 82.2083 90.9519 81.2628 92.3586C80.3865 93.627 79.7408 95.5871 81.0091 96.8324C81.2166 97.0169 80.9169 97.2936 80.7093 97.1091Z" fill="#057F42"/>
<path d="M60.3208 179.115C60.759 177.363 71.0672 136.222 72.3586 134.147C73.65 132.071 102.96 105.736 104.206 104.606C104.275 104.537 104.413 104.537 104.482 104.629C104.575 104.721 104.551 104.837 104.482 104.929C104.183 105.206 73.9498 132.348 72.7045 134.377C71.4592 136.384 60.8282 178.77 60.7128 179.208C60.6898 179.323 60.5745 179.392 60.4592 179.346C60.4438 179.346 60.4284 179.338 60.4131 179.323C60.3208 179.277 60.2978 179.185 60.3208 179.115V179.115Z" fill="#057F42"/>
<path d="M62.3059 185.555L44.2031 178.337L45.4715 173.817L63.6665 181.151L62.3059 185.555Z" fill="#057F42"/>
<path d="M140.764 55.257C137.075 65.127 132.001 74.3513 127.458 81.6155C127.382 81.7231 127.312 81.8384 127.251 81.9614C126.513 83.1144 125.806 84.2136 125.129 85.2591C125.037 85.3821 124.952 85.4974 124.876 85.605C122.569 89.0872 120.54 91.9006 119.041 93.9069C119.026 93.9376 119.003 93.9684 118.972 93.9991C117.98 95.3136 117.242 96.2821 116.804 96.8125C116.697 96.9509 116.612 97.0585 116.551 97.1354C116.474 97.2276 116.435 97.2737 116.435 97.2737L115.859 96.7895C115.859 96.7895 115.851 96.7895 115.836 96.7895L114.729 95.9132L103.613 87.1731L103.268 86.9194L88.8546 75.5735L87.0327 74.1438L85.234 72.737L85.2109 72.714C85.2263 72.714 85.234 72.714 85.234 72.714C86.1103 72.9446 87.494 71.7454 89.1313 69.67C89.2389 69.547 89.3388 69.424 89.4311 69.301C89.923 68.6707 90.4227 67.9788 90.93 67.2255C90.9454 67.2255 90.9531 67.2178 90.9531 67.2025C90.9531 67.1871 90.9608 67.1794 90.9761 67.1794C91.1299 66.9488 91.2913 66.7105 91.4604 66.4645C93.213 63.8586 95.1271 60.6532 96.995 57.3324C97.0719 57.2094 97.1488 57.0788 97.2256 56.9404C97.5639 56.3254 97.9021 55.7182 98.2403 55.1186C98.271 55.0571 98.3095 54.9879 98.3556 54.911C98.4171 54.7881 98.4863 54.6651 98.5632 54.5421C99.3933 53.0201 100.2 51.5211 100.985 50.0452C101.046 49.9069 101.115 49.7685 101.192 49.6301C103.637 44.9949 105.712 40.8209 106.819 38.4687C106.911 38.2688 106.996 38.0843 107.073 37.9152C107.372 37.2695 107.58 36.8083 107.672 36.5777C107.787 36.301 108.064 36.0934 108.502 35.9551C109.079 35.7475 109.932 35.6553 110.947 35.6553C111.116 35.6553 111.277 35.663 111.431 35.6783C118.096 35.8398 131.194 39.1605 131.194 39.1605C131.194 39.1605 133.708 42.8502 136.383 47.3932C136.491 47.5777 136.606 47.7545 136.729 47.9236C136.806 48.0466 136.883 48.1696 136.959 48.2926C138.389 50.4142 140.372 52.7433 140.764 54.3115C140.795 54.4652 140.818 54.6036 140.834 54.7266C140.834 54.9264 140.811 55.1032 140.764 55.257V55.257Z" fill="#0958D1"/>
<path d="M127.456 81.6157C127.379 81.7233 127.31 81.8387 127.248 81.9616C126.118 81.2929 125.08 80.5088 124.135 79.5864C119.108 74.7897 117.355 67.9407 114.449 61.8526C112.189 57.079 108.546 52.0287 103.311 50.4836C102.558 50.2684 101.781 50.1224 100.982 50.0455C100.92 50.0455 100.859 50.0455 100.797 50.0455C100.521 50.0224 100.521 49.5843 100.797 49.6073C100.936 49.6073 101.066 49.615 101.189 49.6304C101.958 49.7073 102.711 49.861 103.449 50.0916C105.709 50.7834 107.762 52.121 109.468 53.7813C114.472 58.6241 116.225 65.4732 119.131 71.5612C120.953 75.4124 123.697 79.425 127.456 81.6157V81.6157Z" fill="#0980F7"/>
<path d="M122.589 88.9256C122.589 88.9256 121.206 90.9549 119.038 93.9067C119.023 93.9375 118.999 93.9682 118.969 93.999C116.317 97.5964 112.535 102.578 108.753 106.913C108.753 106.913 106.285 105.183 102.734 102.278C102.611 102.186 102.496 102.086 102.388 101.978C100.889 100.756 99.2056 99.326 97.453 97.7579C97.33 97.6349 97.1993 97.5119 97.0609 97.3889C96.4152 96.8047 95.7618 96.1974 95.1007 95.5671C94.9624 95.4441 94.8317 95.3211 94.7087 95.1981C89.8429 90.5629 84.7234 84.9361 81.0798 79.0325C80.9721 78.848 80.8645 78.6712 80.7569 78.5021C80.1266 77.4567 79.5501 76.4036 79.0273 75.3428C79.0273 75.3428 81.4718 74.9738 84.5158 73.1751C84.6542 73.0828 84.7926 72.9983 84.9309 72.9214C85.0385 72.8599 85.1385 72.7984 85.2307 72.7369C85.2307 72.7369 85.2307 72.7292 85.2307 72.7138C86.4299 71.9528 87.6982 70.9382 88.9435 69.6468C89.0511 69.5238 89.1664 69.4008 89.2894 69.2778C89.8582 68.6474 90.404 67.9633 90.9267 67.2254C90.9421 67.2254 90.9498 67.2177 90.9498 67.2023C90.9498 67.1869 90.9575 67.1792 90.9729 67.1792C91.1266 66.9486 91.288 66.7103 91.4571 66.4644L95.3775 69.3008L95.8387 69.6237L105.478 76.588L105.87 76.8648L112.811 81.869L113.25 82.1918L122.589 88.9256Z" fill="#0958D1"/>
<path d="M116.804 96.8121C116.696 96.9505 116.611 97.0581 116.55 97.135C116.319 97.012 116.089 96.8967 115.858 96.7891C115.858 96.7891 115.85 96.7891 115.835 96.7891C115.482 96.6353 115.12 96.497 114.751 96.374C111.592 95.3824 108.087 95.9358 105.573 98.1266C104.305 99.2335 103.313 100.686 102.737 102.278C102.614 102.185 102.498 102.085 102.391 101.978C102.483 101.732 102.59 101.478 102.713 101.217C104.166 98.1497 107.072 95.9128 110.485 95.5207C111.892 95.3593 113.368 95.4977 114.728 95.9128C115.443 96.1434 116.158 96.4432 116.804 96.8121Z" fill="#0980F7"/>
<path d="M125.124 85.2599C125.031 85.3829 124.947 85.4982 124.87 85.6059C122.979 83.7379 120.442 82.5388 117.79 82.1467C116.268 81.9161 114.746 81.9392 113.247 82.1929C109.673 82.7924 106.306 84.6834 103.608 87.174C102.639 88.0964 101.763 89.065 101.002 90.1027C99.2955 92.4088 98.1194 95.0147 97.4506 97.7589C97.3276 97.6359 97.197 97.5129 97.0586 97.3899C97.074 97.3284 97.097 97.2669 97.1278 97.2054C98.1425 93.2851 100.31 89.6876 103.262 86.9203C105.061 85.2138 107.159 83.8302 109.442 82.8847C110.526 82.4465 111.656 82.0776 112.809 81.87C114.908 81.4549 117.098 81.4549 119.197 81.9853C121.434 82.5388 123.486 83.6457 125.124 85.2599V85.2599Z" fill="#0980F7"/>
<path d="M107.876 74.9959C107.323 75.7569 106.631 76.3795 105.87 76.8638C105.178 77.2789 104.417 77.6248 103.633 77.8554C99.6205 79.0315 95.1236 78.1552 91.2955 76.6563C90.4653 76.3334 89.6505 75.9721 88.8511 75.5724C87.3752 74.8575 85.9223 74.0504 84.5156 73.1741C84.654 73.0818 84.7924 72.9973 84.9307 72.9204C85.6225 73.3355 86.3221 73.7429 87.0293 74.1426C88.7588 75.1112 90.5576 75.9644 92.4255 76.6101C96.0922 77.9016 100.451 78.5934 104.21 77.1867C104.655 77.0176 105.078 76.8177 105.478 76.5871C106.631 75.8953 107.576 74.9267 108.13 73.6584C108.914 71.9519 108.983 69.9917 108.776 68.1699C108.107 62.7045 104.417 57.7925 99.4821 55.4173C99.1131 55.2328 98.7365 55.0637 98.3521 54.9099C98.2291 54.8638 98.1061 54.8177 97.9831 54.7716C97.814 54.5717 97.6449 54.3642 97.4758 54.1489C97.8448 54.2719 98.2061 54.4026 98.5597 54.541C99.0055 54.7101 99.436 54.9022 99.8511 55.1175C102.203 56.2705 104.256 58.0001 105.847 60.0756C107.922 62.7967 109.237 66.1636 109.306 69.6227C109.329 71.4907 108.96 73.4508 107.876 74.9959V74.9959Z" fill="#0980F7"/>
<path d="M89.9824 70.916C95.9782 75.09 101.259 80.2556 105.572 86.1591C105.733 86.3897 105.41 86.6895 105.249 86.4589C100.959 80.5784 95.7245 75.4359 89.7518 71.2849C89.5212 71.1235 89.7518 70.7545 89.9824 70.916V70.916Z" fill="#000644"/>
<path d="M124.57 48.0377C121.364 49.675 117.444 48.2222 116.106 44.8784C116.014 44.6478 116.337 44.4863 116.429 44.6939C117.697 47.8532 121.341 49.2599 124.385 47.7148C124.593 47.5995 124.777 47.9455 124.57 48.0377V48.0377Z" fill="#000644"/>
<path d="M102.986 42.4838C101.28 45.8277 99.9194 49.3329 98.2129 52.6767C98.0976 52.9073 97.7517 52.6998 97.867 52.4461C99.5735 49.1254 100.934 45.6201 102.641 42.2763C102.756 42.0457 103.102 42.2532 102.986 42.4838V42.4838Z" fill="#000644"/>
<path d="M131.672 40.7261C131.672 40.7261 127.06 48.267 119.957 44.6695L121.133 38.0741L121.687 35.0993L122.079 33.0238L130.127 30.833C130.104 34.638 130.657 37.8896 131.672 40.7261V40.7261Z" fill="#FE9174"/>
<path d="M128.49 34.0645C125.238 38.7458 122.033 39.5529 120.926 39.2301L121.687 35.1022L128.49 34.0645Z" fill="#000644"/>
<path d="M117.24 21.1729C117.24 21.1729 115.418 24.0093 118.324 27.0995L117.24 21.1729Z" fill="#000644"/>
<path d="M130.822 28.5291C130.822 28.8519 130.807 29.1594 130.776 29.4515C130.707 30.1203 130.523 30.7199 130.246 31.3425C129.854 32.1266 129.277 32.9798 128.493 34.0867C127.271 35.8163 125.172 36.5312 123.143 36.5773C117.724 36.7387 117.124 33.049 117.447 27.4683C117.632 23.9861 116.594 22.0951 117.424 20.7345C117.486 20.673 117.547 20.6116 117.609 20.5501C118.992 19.0972 120.906 18.267 122.913 18.1748C123.297 18.144 123.666 18.1364 124.019 18.1517C124.096 18.1517 124.181 18.1517 124.273 18.1517C124.304 18.1517 124.335 18.1517 124.365 18.1517C124.458 18.1517 124.542 18.1594 124.619 18.1748C124.696 18.1748 124.765 18.1748 124.827 18.1748C124.965 18.1902 125.103 18.2055 125.242 18.2209C129.577 18.7052 130.73 21.3111 130.938 23.9169C131.099 25.6696 130.822 27.4452 130.822 28.5291V28.5291Z" fill="#FE9174"/>
<path d="M122.982 26.6669C122.613 26.5977 122.244 26.7822 122.06 27.1051C121.921 27.3357 121.552 27.1051 121.691 26.8745C121.967 26.3671 122.544 26.1365 123.097 26.2518C123.374 26.321 123.259 26.7361 122.982 26.6669V26.6669Z" fill="#000644"/>
<path d="M119.361 27.2626C119.13 26.9398 118.807 26.8014 118.392 26.8475C118.115 26.8936 118.023 26.4785 118.3 26.4324C118.899 26.3402 119.407 26.5477 119.753 27.0551C119.914 27.2857 119.522 27.4932 119.361 27.2626V27.2626Z" fill="#000644"/>
<path d="M125.126 28.1603C125.126 28.4601 124.665 28.7137 124.089 28.7137C123.535 28.7137 123.074 28.4831 123.051 28.1833C123.051 27.8836 123.512 27.6529 124.089 27.6299C124.665 27.6299 125.126 27.8605 125.126 28.1603Z" fill="#D23E3C"/>
<path d="M117.406 28.182C117.59 28.0667 117.867 27.9976 118.19 27.9976C118.766 27.9976 119.228 28.2282 119.228 28.528C119.228 28.8277 118.766 29.0584 118.19 29.0814C117.867 29.0814 117.567 28.9892 117.383 28.8739L117.406 28.182Z" fill="#D23E3C"/>
<path d="M121.804 24.683C121.711 24.4063 121.873 24.1757 122.126 24.0834C122.98 23.7375 123.925 24.1757 124.271 25.0058C124.363 25.2595 124.156 25.5362 123.948 25.6054C123.671 25.6746 123.441 25.5132 123.349 25.2826C123.187 24.8905 122.703 24.8675 122.38 25.0058C122.149 25.0981 121.85 24.8905 121.804 24.683V24.683Z" fill="#000644"/>
<path d="M117.725 24.7461C118.209 24.1695 118.924 23.962 119.639 24.1465C120.238 24.2848 119.985 25.2073 119.408 25.0458C118.97 24.9536 118.67 25.092 118.416 25.4148C118.024 25.8991 117.356 25.2303 117.725 24.7461Z" fill="#000644"/>
<path d="M119.937 28.4596C119.906 28.4289 119.891 28.3981 119.891 28.3674C119.891 28.3212 119.906 28.2828 119.937 28.2521C120.444 27.7908 120.513 26.7531 120.513 26.7301C120.536 26.6609 120.606 26.6147 120.675 26.6147C120.744 26.6147 120.813 26.6839 120.79 26.7531C120.79 26.7992 120.721 27.7678 120.237 28.3212C120.398 28.3904 120.675 28.4827 121.044 28.4596C121.136 28.4596 121.182 28.5288 121.205 28.598C121.205 28.6672 121.136 28.7363 121.067 28.7363C120.513 28.7825 120.144 28.598 120.006 28.5057C119.96 28.475 119.937 28.4596 119.937 28.4596V28.4596Z" fill="#000644"/>
<path d="M128.887 30.0517C129.671 30.0748 130.293 29.8442 130.778 29.4521C130.709 30.1209 130.524 30.7205 130.247 31.3431C129.694 31.0664 129.233 30.6744 128.887 30.0517V30.0517Z" fill="#000644"/>
<path d="M129.736 23.8934C127.569 24.493 127.384 28.1596 126.277 27.537C125.17 26.9144 128.076 22.4406 125.24 22.625C122.38 22.8095 123.21 22.4175 121.896 22.5328C119.682 22.7173 118.321 20.9877 117.422 20.7341C117.483 20.6726 117.545 20.6111 117.606 20.5496C118.99 19.0967 120.904 18.2665 122.91 18.1743C123.295 18.1436 123.664 18.1359 124.017 18.1512C124.094 18.1512 124.179 18.1512 124.271 18.1512C124.302 18.1512 124.332 18.1512 124.363 18.1512C124.455 18.1512 124.54 18.1589 124.617 18.1743C124.678 18.1743 124.748 18.1743 124.824 18.1743C124.963 18.1897 125.101 18.2051 125.24 18.2204C129.575 18.7047 130.728 21.3106 130.936 23.9164C130.613 23.7781 130.198 23.755 129.736 23.8934V23.8934Z" fill="#000644"/>
<path d="M125.449 21.5436C126.81 21.2899 128.724 21.0824 130.361 21.4744C130.892 21.5897 131.376 21.7742 131.814 22.0279C132.091 22.197 132.344 22.3892 132.575 22.6044C132.621 22.6659 132.675 22.7197 132.736 22.7658C132.736 22.9657 132.713 23.1809 132.667 23.4115C132.483 24.5184 131.583 27.1935 130.776 29.4304C130.807 29.1537 130.822 28.8539 130.822 28.531C130.822 27.4472 131.099 25.6715 130.938 23.9189C130.615 23.7805 130.2 23.7574 129.739 23.8958C127.571 24.4954 127.386 28.162 126.279 27.5394C125.38 27.0321 126.556 22.9272 125.449 21.5436V21.5436Z" fill="#000644"/>
<path d="M118.922 30.4191C118.922 30.4191 120.19 30.2577 122.681 29.981C122.681 29.981 122.542 32.656 120.721 32.6791C119.176 32.6791 118.922 30.4191 118.922 30.4191V30.4191Z" fill="white"/>
<path d="M120.51 33.2554C120.81 33.3477 121.11 33.3938 121.34 33.1862C121.502 33.0248 121.755 33.2785 121.594 33.4169C121.271 33.7397 120.833 33.7397 120.418 33.6013C120.21 33.5322 120.302 33.1862 120.51 33.2554Z" fill="#D23E3C"/>
<path d="M127.162 28.7384C126.862 27.8621 127.024 26.9166 127.531 26.1326C128.154 25.141 129.353 23.5959 130.506 23.7573C132.189 23.9649 132.42 25.4869 132.259 27.0089C132.097 28.554 131.105 30.5833 129.007 30.2605C127.946 30.1221 127.416 29.4533 127.162 28.7384V28.7384Z" fill="#FE9174"/>
<path d="M128.799 28.4807C128.66 27.5582 128.66 26.5666 129.237 25.7595C129.629 25.206 130.275 24.7909 130.966 25.0216C131.197 25.0907 131.059 25.4597 130.805 25.3675C130.09 25.1599 129.491 25.944 129.283 26.4975C129.052 27.1201 129.098 27.8119 129.191 28.4346C129.214 28.6882 128.822 28.7343 128.799 28.4807V28.4807Z" fill="#000644"/>
<path d="M91.4051 45.0139C92.3045 44.3912 93.1346 43.8147 93.8265 43.3535C95.1179 42.4772 95.9481 41.9468 95.9481 41.9468L101.898 51.2864C101.898 51.2864 100.03 52.9237 97.078 55.2298C96.2709 55.8294 95.4177 56.4751 94.4952 57.1669C91.8202 59.1271 88.6378 61.3179 85.2478 63.3011C78.9061 67.0139 75.3086 65.5149 75.4701 61.2025C75.6315 56.7979 85.4323 49.234 91.4051 45.0139Z" fill="#FE9174"/>
<path d="M82.0947 52.6277C82.8327 54.9107 83.1786 57.286 83.1094 59.6843C83.1094 59.9611 82.6712 59.9611 82.6943 59.6613C82.7404 57.3091 82.3945 54.9799 81.6796 52.743C81.6104 52.4663 82.0255 52.3741 82.0947 52.6277Z" fill="#D23E3C"/>
<path d="M82.4597 54.081C83.1361 54.6806 83.7127 55.3571 84.1893 56.1104C84.3507 56.341 83.9586 56.5485 83.8203 56.3179C83.3591 55.58 82.8056 54.9343 82.1599 54.3578C81.9524 54.1963 82.2521 53.8965 82.4597 54.081Z" fill="#D23E3C"/>
<path d="M110.62 35.7944C110.066 35.8636 109.536 36.048 109.028 36.3248C108.736 36.4939 108.452 36.7091 108.175 36.9705C107.914 37.2165 107.66 37.5163 107.414 37.8699C107.337 37.9928 107.26 38.1158 107.183 38.2388C107.122 38.3464 107.068 38.4541 107.022 38.5617C106.991 38.6385 106.961 38.7077 106.93 38.7692C106.03 40.8216 105.431 44.5344 103.448 50.0921C103.402 50.2151 103.355 50.3458 103.309 50.4841C103.002 51.2836 102.671 52.1291 102.318 53.0208C101.326 53.8971 100.473 54.612 99.8501 55.1193C99.7118 55.227 99.5888 55.3269 99.4812 55.4191C99.1122 55.7189 98.9046 55.8803 98.9046 55.8803C98.674 55.6344 98.4511 55.3807 98.2359 55.1193C98.1436 55.0117 98.0591 54.8964 97.9822 54.7734C97.8131 54.5736 97.644 54.366 97.4749 54.1508C95.8606 52.0292 94.5692 49.6539 93.6237 47.6938C93.5622 47.5554 93.5007 47.4247 93.4392 47.3017C92.4246 45.1109 91.8711 43.5198 91.8711 43.5198C95.0074 41.0522 97.9822 39.3688 100.611 38.2388C100.78 38.162 100.957 38.0851 101.142 38.0082C103.056 37.2011 104.762 36.6938 106.192 36.3709C106.33 36.3402 106.469 36.3094 106.607 36.2787C107.322 36.1172 107.968 36.025 108.498 35.9558C109.859 35.7713 110.62 35.7944 110.62 35.7944V35.7944Z" fill="#0958D1"/>
<path d="M124.27 18.1526C124.27 18.1526 132.272 15.0164 137.945 18.7291C142.372 21.6117 132.295 22.8109 132.295 22.8109L124.27 18.1526Z" fill="#0958D1"/>
<path fill-rule="evenodd" clip-rule="evenodd" d="M126.186 14.6011C134.281 16.469 132.736 22.7646 132.736 22.7646C132.736 22.7646 130.799 22.9952 126.163 23.0183C119.222 23.0644 117.031 21.381 117.031 21.381C117.031 21.381 117.539 12.5948 126.186 14.6011ZM118.991 21.2887C120.352 21.796 121.759 22.0267 123.281 21.7499C123.235 20.8044 121.966 19.7898 120.952 19.7206C119.637 19.6053 118.991 21.2887 118.991 21.2887Z" fill="#FF4B4A"/>
<path d="M125.544 14.4873C128.542 16.0324 130.802 19.4915 129.856 22.9276C129.787 23.1121 129.487 23.0429 129.533 22.8353C130.456 19.5376 128.242 16.2399 125.382 14.764C125.198 14.6718 125.359 14.3951 125.544 14.4873V14.4873Z" fill="#000644"/>
<path d="M123.445 21.6326C123.722 21.9555 123.791 22.4167 123.63 22.8318C123.537 23.0163 123.215 22.924 123.307 22.7395C123.445 22.4397 123.422 22.0938 123.215 21.8402C123.076 21.6787 123.307 21.4712 123.445 21.6326V21.6326Z" fill="#000644"/>
<path d="M119.065 21.4515C118.911 21.636 118.826 21.8435 118.811 22.0741C118.811 22.2817 118.488 22.2817 118.488 22.0741C118.511 21.7743 118.604 21.4976 118.788 21.267C118.926 21.1056 119.203 21.267 119.065 21.4515Z" fill="#000644"/>
<path d="M100.613 38.2409C99.9676 40.2933 98.9299 42.2304 97.5462 43.8677C96.3701 45.2283 94.9865 46.4044 93.4414 47.3038C93.5029 47.4267 93.5644 47.5574 93.6259 47.6958C96.9236 45.7356 99.5295 42.6685 100.821 38.9788C100.944 38.656 101.051 38.3331 101.144 38.0103C100.959 38.0871 100.782 38.164 100.613 38.2409V38.2409Z" fill="#0980F7"/>
<path d="M93.7409 42.3909C95.0553 46.1498 97.0155 49.632 99.5292 52.6991C99.6906 52.9297 99.3908 53.2295 99.2063 52.9989C96.6465 49.8626 94.6633 46.3112 93.3258 42.5062C93.2335 42.2295 93.6486 42.1372 93.7409 42.3909Z" fill="#000644"/>
<path d="M120.377 42.2796C118.14 41.9106 116.065 41.0574 114.243 39.6276C112.882 38.5668 111.729 37.2062 110.945 35.6611C111.114 35.6611 111.276 35.6688 111.43 35.6842C111.537 35.8533 111.645 36.0301 111.752 36.2146C113.551 39.1433 116.595 41.0804 119.962 41.7722C120.147 41.7953 120.285 41.8184 120.469 41.8645C120.469 42.0029 120.4 42.1412 120.377 42.2796V42.2796Z" fill="#0980F7"/>
<path d="M136.728 47.9284C133.015 49.8425 129.095 51.3414 124.852 51.572C121.669 51.7335 118.394 51.2031 115.581 49.5888C112.929 48.0668 110.831 45.7146 109.309 43.0857C108.432 41.5636 107.74 39.9263 107.187 38.2429C107.156 38.1353 107.118 38.0277 107.072 37.92C106.903 37.3819 106.749 36.8362 106.61 36.2827C106.472 36.3135 106.334 36.3442 106.195 36.375C106.38 37.0822 106.587 37.7817 106.818 38.4735C106.864 38.5657 106.903 38.6657 106.933 38.7733C108.386 42.9473 110.646 46.7984 114.382 49.3582C119.917 53.1402 127.135 52.4483 133.084 50.0731C134.422 49.5657 135.713 48.9662 136.958 48.2974C136.882 48.1744 136.805 48.0514 136.728 47.9284V47.9284Z" fill="#0980F7"/>
<path d="M104.466 44.7872C102.436 48.2309 100.538 51.7438 98.7697 55.3259C98.6774 55.5335 98.3546 55.349 98.4699 55.1415C100.223 51.5593 102.114 48.0464 104.143 44.6027C104.258 44.3951 104.581 44.6027 104.466 44.7872Z" fill="#000644"/>
<path d="M99.5072 66.7673C98.8384 68.3354 97.4317 69.2348 95.8405 69.6268C95.6406 69.6883 95.4408 69.7344 95.2409 69.7652C93.2346 70.1111 91.1361 69.9958 89.1298 69.6729C89.0683 69.6729 89.0068 69.6652 88.9453 69.6499C89.0529 69.5269 89.1682 69.4039 89.2912 69.2809C89.3373 69.2809 89.3835 69.2886 89.4296 69.304C89.445 69.304 89.4603 69.304 89.4757 69.304C91.3898 69.5807 93.4422 69.6729 95.3562 69.304C95.3562 69.304 95.3639 69.304 95.3793 69.304C97.2472 68.935 98.7692 67.8742 99.3458 65.9832C100.245 62.9622 99.0921 59.6184 96.9935 57.3354C97.0704 57.2124 97.1473 57.0817 97.2242 56.9434C98.3772 58.1425 99.2305 59.6415 99.6917 61.2557C100.199 63.0314 100.268 65.0608 99.5072 66.7673V66.7673Z" fill="#0980F7"/>
<path d="M95.1017 95.5704C94.9633 95.4474 94.8326 95.3244 94.7096 95.2014C94.725 94.8939 94.7327 94.5941 94.7327 94.302C94.7327 89.8743 92.6111 85.7695 89.2211 82.9792C86.8689 81.0421 84.0555 79.7507 81.0807 79.0358C80.9731 78.8513 80.8654 78.6745 80.7578 78.5054C82.0262 78.8052 83.2484 79.1741 84.4475 79.6584C88.6216 81.388 92.2652 84.432 94.0178 88.6521C94.9172 90.8198 95.3323 93.2412 95.1017 95.5704V95.5704Z" fill="#0980F7"/>
<path d="M120.791 37.4574C118.762 40.6859 115.672 43.1534 112.582 45.2981C111.152 46.3127 109.515 47.3505 108.915 49.1031C108.292 50.8788 109.307 52.6083 111.06 53.1849C112.859 53.7614 114.865 53.1157 116.479 52.3086C117.932 51.5706 119.269 50.6021 120.653 49.7488C122.06 48.8725 123.536 48.1807 125.15 47.8117C126.949 47.3966 128.817 47.2582 130.5 46.4972C131.815 45.9438 133.337 44.9291 133.198 43.3148C133.083 41.9773 132.299 40.5475 131.307 39.6251C131.169 39.5098 131.376 39.3023 131.515 39.4406C132.599 40.4322 133.452 42.0465 133.498 43.5454C133.521 45.2058 131.838 46.2666 130.477 46.8201C128.632 47.5811 126.626 47.6964 124.735 48.2037C122.913 48.665 121.322 49.6335 119.777 50.6482C118.301 51.5937 116.825 52.5853 115.165 53.1849C113.527 53.7614 111.544 53.992 110.022 52.9773C108.661 52.101 108.131 50.5559 108.638 49.0339C109.238 47.3274 110.714 46.2666 112.121 45.275C115.28 43.1073 118.462 40.6398 120.538 37.319C120.63 37.1807 120.884 37.319 120.791 37.4574V37.4574Z" fill="white"/>
<path d="M140.83 54.7267C140.015 54.6191 139.193 54.5499 138.362 54.5192C133.335 54.3808 128.008 56.4332 125.771 61.2068C124.803 63.3053 124.618 65.7498 125.494 67.8944C126.348 69.993 128.1 71.6995 130.314 72.276C130.568 72.3452 130.452 72.7603 130.176 72.6911C127.708 72.0454 125.817 70.0622 124.964 67.6869C123.188 62.775 126.555 57.6324 130.96 55.5339C134.073 54.058 137.44 53.8504 140.761 54.3116C140.791 54.4654 140.814 54.6037 140.83 54.7267V54.7267Z" fill="#0980F7"/>
<path d="M129.691 71.3284C124.894 80.6681 119.198 89.5234 112.672 97.7561C110.858 100.047 108.982 102.284 107.045 104.467C106.861 104.674 106.561 104.352 106.745 104.144C113.664 96.3494 119.798 87.8631 125.079 78.8693C126.555 76.3173 127.969 73.7268 129.322 71.0978C129.437 70.8442 129.806 71.0748 129.691 71.3284V71.3284Z" fill="#000644"/>
<path d="M145.514 72.0225C145.514 72.0225 145.583 72.5529 145.699 73.4984C145.814 74.6053 145.998 76.2656 146.137 78.2258C146.713 85.6514 146.344 96.7898 142.516 99.4187C138.642 102.094 134.076 100.687 132.739 93.3076C131.609 87.0812 131.931 80.8778 131.493 76.9575C131.462 76.5731 131.424 76.2118 131.378 75.8736C131.17 73.8904 131.078 72.6912 131.078 72.6912L145.514 72.0225Z" fill="#FE9174"/>
<path d="M142.949 99.0698C142.949 99.0698 136.746 104.973 129.366 102.437C122.402 100.061 106.352 86.1558 106.352 86.1558L106.651 81.1055C106.651 81.1055 124.639 87.2396 134.44 91.3906L142.949 99.0698Z" fill="#FE9174"/>
<path d="M109.671 84.1064C109.463 85.9282 107.734 87.1965 105.889 87.0351C104.897 86.9428 103.837 86.9428 103.006 87.1965C101 87.75 98.8093 88.9952 97.7255 88.9952C96.1112 88.9952 97.2873 87.7269 97.4487 87.5885C98.5326 86.7122 100.216 85.7437 100.216 85.7437C100.216 85.7437 96.8261 86.6892 95.7422 87.5655C94.6584 88.4418 93.4361 88.1651 93.9896 86.7814C94.5431 85.3978 98.0483 83.576 99.1552 83.3223C99.1552 83.3223 96.9183 83.3684 95.4194 84.4984C93.9204 85.6284 93.2286 85.8359 92.4676 85.9282C91.7066 86.0204 91.6835 84.4984 93.8282 82.9764C95.9498 81.4544 97.1489 81.4082 98.4173 81.2238C98.4173 81.2238 97.4257 80.9701 95.7192 80.924C94.0127 80.8778 92.3754 82.3076 91.476 81.8464C90.5536 81.3621 92.5137 79.7709 93.9666 79.3789C95.4424 79.0099 96.4802 78.5948 98.3942 78.8485C100.331 79.1022 102.153 79.4019 103.26 79.8401C104.39 80.2552 108.541 81.2468 109.463 82.7227C109.694 83.0917 109.74 83.576 109.671 84.1064V84.1064Z" fill="#FE9174"/>
<path d="M108.446 81.2235C110.36 82.3304 110.591 84.6826 110.107 86.6197C109.922 87.4499 109.553 88.5107 108.562 88.6029C107.547 88.6952 107.178 87.6113 106.993 86.8273C106.947 86.6428 107.224 86.5736 107.27 86.7581C107.362 87.1732 107.455 87.6113 107.731 87.9342C108.1 88.3954 108.654 88.4415 109.092 88.0725C109.761 87.5422 109.922 86.4352 110.014 85.6281C110.199 84.06 109.784 82.3073 108.308 81.4772C108.146 81.3849 108.308 81.1312 108.446 81.2235V81.2235Z" fill="white"/>
<path d="M101.174 79.8639C101.174 79.8639 99.0289 78.7108 99.2595 77.9037C99.4901 77.1196 101.197 78.1112 102.396 78.3418C103.618 78.5724 106.362 80.9477 106.362 80.9477L101.174 79.8639Z" fill="#FE9174"/>
<path d="M132.617 90.2845C134.116 90.8841 135.454 91.7374 136.607 92.8443C136.791 93.0057 136.561 93.2824 136.376 93.121C135.246 92.0372 133.932 91.207 132.456 90.6305C132.225 90.5382 132.387 90.2154 132.617 90.2845Z" fill="#D23E3C"/>
<path d="M133.753 90.8608C134.675 90.4227 135.667 90.2843 136.682 90.3996C136.912 90.4227 136.866 90.7917 136.612 90.7686C135.667 90.6533 134.744 90.8147 133.891 91.2068C133.661 91.3221 133.545 90.9761 133.753 90.8608V90.8608Z" fill="#D23E3C"/>
<path d="M147.522 75.2684C147.522 75.2684 144.501 76.3061 140.535 76.8827H140.512C140.373 76.9134 140.227 76.9365 140.073 76.9518C138.275 77.2055 136.314 77.3439 134.354 77.2516C134.201 77.2516 134.047 77.2439 133.893 77.2286C133.109 77.1824 132.333 77.0902 131.564 76.9518C131.564 76.9518 129.304 67.0587 130.273 60.8093C131.149 55.0902 133.87 51.216 137.675 50.478C137.675 50.478 139.359 51.7925 141.342 55.0441C141.449 55.2132 141.557 55.39 141.665 55.5745C142.725 57.3732 143.878 59.7254 144.87 62.6772C144.916 62.8156 144.962 62.9539 145.008 63.0923C146.092 66.39 147.015 70.4026 147.522 75.2684V75.2684Z" fill="#0958D1"/>
<path d="M141.662 55.5792C141.616 55.7637 141.563 55.9559 141.501 56.1558C140.948 57.8853 139.956 59.4073 138.665 60.6526C137.235 62.0363 135.528 63.1893 134.491 64.9189C132.231 68.7008 133.291 73.2669 134.352 77.2564C134.198 77.2564 134.045 77.2487 133.891 77.2333C133.291 74.9964 132.715 72.7134 132.715 70.3843C132.715 68.4933 133.061 66.5792 133.983 64.9189C134.952 63.1893 136.52 62.0363 137.95 60.7218C139.402 59.4073 140.509 57.8392 141.109 55.9713C141.201 55.6638 141.278 55.3563 141.34 55.0488C141.447 55.2179 141.555 55.3947 141.662 55.5792Z" fill="#0980F7"/>
<path d="M145.005 63.0977C144.605 63.3283 144.213 63.582 143.829 63.8587C141.615 65.5191 140.047 67.9866 139.632 70.7308C139.309 72.8294 139.632 74.9971 140.508 76.8881C140.37 76.9188 140.224 76.9419 140.07 76.9573C139.724 76.1732 139.447 75.343 139.286 74.4898C138.732 71.5841 139.332 68.5401 141.038 66.1187C142.03 64.6889 143.368 63.5128 144.867 62.6826C144.913 62.821 144.959 62.9593 145.005 63.0977V63.0977Z" fill="#0980F7"/>
<path d="M146.804 72.7829C141.869 74.4894 136.588 75.0428 131.399 74.3741C131.122 74.351 131.122 73.9128 131.399 73.959C136.565 74.6047 141.799 74.0512 146.711 72.3678C146.965 72.2755 147.057 72.6906 146.804 72.7829Z" fill="#000644"/>
<path d="M131.054 75.872C128.724 67.6393 129.762 60.0984 129.785 60.0292C129.785 59.9139 129.901 59.8447 129.993 59.8447C130.108 59.8678 130.177 59.96 130.177 60.0753C130.154 60.1445 129.116 67.6162 131.423 75.7567C131.446 75.8489 131.4 75.9642 131.284 76.0103C131.253 76.0103 131.223 76.0103 131.192 76.0103C131.123 75.9873 131.077 75.9412 131.054 75.872V75.872Z" fill="#000644"/>
<path d="M129.501 63.9497C128.509 62.7505 128.094 61.1593 128.071 61.0901C128.048 60.9748 128.117 60.8595 128.209 60.8364C128.325 60.8134 128.44 60.8826 128.463 60.9979C128.463 60.9979 128.878 62.566 129.8 63.7191C129.87 63.7882 129.87 63.9266 129.777 63.9958C129.731 64.0188 129.662 64.0419 129.616 64.0188C129.57 64.0188 129.531 63.9958 129.501 63.9497V63.9497Z" fill="#000644"/>
</svg>
