<svg width="356" height="84" viewBox="0 0 356 84" fill="none" xmlns="http://www.w3.org/2000/svg">
<rect x="0.25" y="0.40918" width="355.5" height="82.5" rx="41.25" fill="#FFD028"/>
<path d="M98.8 49.1592V32.3592H108.496V34.8312H101.56V40.1592H108.496V42.6312H101.56V49.1592H98.8ZM111.323 49.1592V37.9752H113.939V40.1352C114.131 39.3832 114.507 38.8152 115.067 38.4312C115.627 38.0312 116.243 37.8312 116.915 37.8312C117.347 37.8312 117.691 37.8632 117.947 37.9272V40.3272C117.675 40.2952 117.331 40.2792 116.915 40.2792C115.987 40.2792 115.259 40.6232 114.731 41.3112C114.203 41.9832 113.939 42.9512 113.939 44.2152V49.1592H111.323ZM129.829 42.9912C129.829 43.2792 129.805 43.7592 129.757 44.4312H121.453C121.485 45.3112 121.773 45.9912 122.317 46.4712C122.861 46.9352 123.613 47.1672 124.573 47.1672C125.805 47.1672 126.637 46.7432 127.069 45.8952H129.709C129.533 46.9352 128.965 47.7912 128.005 48.4632C127.061 49.1192 125.917 49.4472 124.573 49.4472C122.813 49.4472 121.421 48.9192 120.397 47.8632C119.373 46.8072 118.861 45.3752 118.861 43.5672C118.861 41.7752 119.365 40.3512 120.373 39.2952C121.397 38.2232 122.765 37.6872 124.477 37.6872C126.077 37.6872 127.365 38.1832 128.341 39.1752C129.333 40.1512 129.829 41.4232 129.829 42.9912ZM121.453 42.4392H127.261C127.245 41.5752 126.989 40.9112 126.493 40.4472C126.013 39.9832 125.325 39.7512 124.429 39.7512C123.517 39.7512 122.797 39.9992 122.269 40.4952C121.741 40.9912 121.469 41.6392 121.453 42.4392ZM142.659 42.9912C142.659 43.2792 142.635 43.7592 142.587 44.4312H134.283C134.315 45.3112 134.603 45.9912 135.147 46.4712C135.691 46.9352 136.443 47.1672 137.403 47.1672C138.635 47.1672 139.467 46.7432 139.899 45.8952H142.539C142.363 46.9352 141.795 47.7912 140.835 48.4632C139.891 49.1192 138.747 49.4472 137.403 49.4472C135.643 49.4472 134.251 48.9192 133.227 47.8632C132.203 46.8072 131.691 45.3752 131.691 43.5672C131.691 41.7752 132.195 40.3512 133.203 39.2952C134.227 38.2232 135.595 37.6872 137.307 37.6872C138.907 37.6872 140.195 38.1832 141.171 39.1752C142.163 40.1512 142.659 41.4232 142.659 42.9912ZM134.283 42.4392H140.091C140.075 41.5752 139.819 40.9112 139.323 40.4472C138.843 39.9832 138.155 39.7512 137.259 39.7512C136.347 39.7512 135.627 39.9992 135.099 40.4952C134.571 40.9912 134.299 41.6392 134.283 42.4392ZM151.188 49.1592V32.3592H156.876C159.532 32.3592 161.604 33.1832 163.092 34.8312C164.596 36.4632 165.348 38.4392 165.348 40.7592C165.348 43.0792 164.596 45.0632 163.092 46.7112C161.604 48.3432 159.532 49.1592 156.876 49.1592H151.188ZM153.948 46.6872H156.636C158.556 46.6872 160.012 46.1112 161.004 44.9592C162.012 43.8072 162.516 42.4072 162.516 40.7592C162.516 39.1112 162.012 37.7112 161.004 36.5592C160.012 35.4072 158.556 34.8312 156.636 34.8312H153.948V46.6872ZM177.055 47.7912C175.999 48.8952 174.567 49.4472 172.759 49.4472C170.951 49.4472 169.511 48.8952 168.439 47.7912C167.383 46.6712 166.855 45.2632 166.855 43.5672C166.855 41.8712 167.383 40.4712 168.439 39.3672C169.511 38.2472 170.951 37.6872 172.759 37.6872C174.567 37.6872 175.999 38.2472 177.055 39.3672C178.127 40.4712 178.663 41.8712 178.663 43.5672C178.663 45.2632 178.127 46.6712 177.055 47.7912ZM170.335 46.1352C170.927 46.7912 171.735 47.1192 172.759 47.1192C173.783 47.1192 174.583 46.7912 175.159 46.1352C175.751 45.4792 176.047 44.6232 176.047 43.5672C176.047 42.5112 175.751 41.6552 175.159 40.9992C174.583 40.3432 173.783 40.0152 172.759 40.0152C171.735 40.0152 170.927 40.3432 170.335 40.9992C169.759 41.6552 169.471 42.5112 169.471 43.5672C169.471 44.6232 169.759 45.4792 170.335 46.1352ZM183.211 49.1592L179.083 37.9752H181.963L184.291 45.3672L186.715 37.9752H189.547L191.971 45.3672L194.299 37.9752H197.179L193.051 49.1592H190.843L188.131 41.1912L185.419 49.1592H183.211ZM198.911 49.1592V37.9752H201.527V39.5352C202.247 38.3032 203.463 37.6872 205.175 37.6872C207.895 37.6872 209.255 39.1672 209.255 42.1272V49.1592H206.639V43.3272C206.639 42.1112 206.455 41.2392 206.087 40.7112C205.719 40.1832 205.087 39.9192 204.191 39.9192C203.343 39.9192 202.687 40.1912 202.223 40.7352C201.759 41.2632 201.527 42.0232 201.527 43.0152V49.1592H198.911ZM212.351 49.1592V32.3592H214.967V49.1592H212.351ZM227.628 47.7912C226.572 48.8952 225.14 49.4472 223.332 49.4472C221.524 49.4472 220.084 48.8952 219.012 47.7912C217.956 46.6712 217.428 45.2632 217.428 43.5672C217.428 41.8712 217.956 40.4712 219.012 39.3672C220.084 38.2472 221.524 37.6872 223.332 37.6872C225.14 37.6872 226.572 38.2472 227.628 39.3672C228.7 40.4712 229.236 41.8712 229.236 43.5672C229.236 45.2632 228.7 46.6712 227.628 47.7912ZM220.908 46.1352C221.5 46.7912 222.308 47.1192 223.332 47.1192C224.356 47.1192 225.156 46.7912 225.732 46.1352C226.324 45.4792 226.62 44.6232 226.62 43.5672C226.62 42.5112 226.324 41.6552 225.732 40.9992C225.156 40.3432 224.356 40.0152 223.332 40.0152C222.308 40.0152 221.5 40.3432 220.908 40.9992C220.332 41.6552 220.044 42.5112 220.044 43.5672C220.044 44.6232 220.332 45.4792 220.908 46.1352ZM236.574 49.4472C234.83 49.4472 233.478 48.8952 232.518 47.7912C231.558 46.6872 231.078 45.2792 231.078 43.5672C231.078 41.8712 231.582 40.4712 232.59 39.3672C233.598 38.2472 234.95 37.6872 236.646 37.6872C237.398 37.6872 238.086 37.8472 238.71 38.1672C239.334 38.4872 239.814 38.9272 240.15 39.4872V37.9752H242.766V49.1592H240.15V47.6472C239.83 48.1912 239.326 48.6312 238.638 48.9672C237.966 49.2872 237.278 49.4472 236.574 49.4472ZM236.958 47.1192C238.03 47.1192 238.846 46.7832 239.406 46.1112C239.982 45.4392 240.27 44.5912 240.27 43.5672C240.27 42.5432 239.982 41.6952 239.406 41.0232C238.846 40.3512 238.03 40.0152 236.958 40.0152C235.95 40.0152 235.15 40.3512 234.558 41.0232C233.982 41.6792 233.694 42.5272 233.694 43.5672C233.694 44.6072 233.982 45.4632 234.558 46.1352C235.15 46.7912 235.95 47.1192 236.958 47.1192ZM254.294 32.3592H256.91V49.1592H254.294V47.6472C253.974 48.1912 253.47 48.6312 252.782 48.9672C252.11 49.2872 251.422 49.4472 250.718 49.4472C248.974 49.4472 247.622 48.8952 246.662 47.7912C245.702 46.6872 245.222 45.2792 245.222 43.5672C245.222 41.8712 245.726 40.4712 246.734 39.3672C247.742 38.2472 249.094 37.6872 250.79 37.6872C251.542 37.6872 252.23 37.8472 252.854 38.1672C253.478 38.4872 253.958 38.9272 254.294 39.4872V32.3592ZM251.102 47.1192C252.174 47.1192 252.99 46.7832 253.55 46.1112C254.126 45.4392 254.414 44.5912 254.414 43.5672C254.414 42.5432 254.126 41.6952 253.55 41.0232C252.99 40.3512 252.174 40.0152 251.102 40.0152C250.094 40.0152 249.294 40.3512 248.702 41.0232C248.126 41.6792 247.838 42.5272 247.838 43.5672C247.838 44.6072 248.126 45.4632 248.702 46.1352C249.294 46.7912 250.094 47.1192 251.102 47.1192Z" fill="#0B0B0B"/>
<rect x="0.25" y="0.40918" width="355.5" height="82.5" rx="41.25" stroke="#FFC400" stroke-width="0.5"/>
</svg>
