<svg width="328" height="40" viewBox="0 0 328 40" fill="none" xmlns="http://www.w3.org/2000/svg">
<path d="M13.44 26V13.4H15.078V24.452H20.442V26H13.44ZM29.4835 21.374C29.4835 21.602 29.4655 21.914 29.4295 22.31H23.0035C23.0155 23.102 23.2555 23.726 23.7235 24.182C24.1915 24.626 24.8215 24.848 25.6135 24.848C26.7175 24.848 27.4495 24.44 27.8095 23.624H29.3755C29.2315 24.392 28.8115 25.016 28.1155 25.496C27.4195 25.976 26.5855 26.216 25.6135 26.216C24.3415 26.216 23.3275 25.826 22.5715 25.046C21.8275 24.254 21.4555 23.186 21.4555 21.842C21.4555 20.522 21.8275 19.466 22.5715 18.674C23.3155 17.882 24.3055 17.486 25.5415 17.486C26.7175 17.486 27.6655 17.846 28.3855 18.566C29.1175 19.286 29.4835 20.222 29.4835 21.374ZM23.0035 21.104H27.9355C27.9355 20.372 27.7195 19.796 27.2875 19.376C26.8675 18.956 26.2795 18.746 25.5235 18.746C24.7795 18.746 24.1795 18.962 23.7235 19.394C23.2795 19.826 23.0395 20.396 23.0035 21.104ZM35.0868 26.216C33.8028 26.216 32.7948 25.808 32.0628 24.992C31.3428 24.176 30.9828 23.132 30.9828 21.86C30.9828 20.6 31.3548 19.556 32.0988 18.728C32.8548 17.9 33.8628 17.486 35.1228 17.486C35.7708 17.486 36.3528 17.636 36.8688 17.936C37.3848 18.236 37.7748 18.644 38.0388 19.16V17.702H39.5868V26H38.0388V24.542C37.7748 25.046 37.3728 25.454 36.8328 25.766C36.2928 26.066 35.7108 26.216 35.0868 26.216ZM35.3028 24.812C36.1788 24.812 36.8628 24.53 37.3548 23.966C37.8588 23.39 38.1108 22.688 38.1108 21.86C38.1108 21.02 37.8588 20.318 37.3548 19.754C36.8628 19.178 36.1788 18.89 35.3028 18.89C34.4628 18.89 33.7908 19.172 33.2868 19.736C32.7828 20.288 32.5308 20.996 32.5308 21.86C32.5308 22.724 32.7828 23.432 33.2868 23.984C33.7908 24.536 34.4628 24.812 35.3028 24.812ZM42.2836 26V17.702H43.8496V19.592C44.0056 18.932 44.3116 18.434 44.7676 18.098C45.2236 17.75 45.7276 17.576 46.2796 17.576C46.6036 17.576 46.8556 17.6 47.0356 17.648V19.088C46.8556 19.052 46.5976 19.034 46.2616 19.034C45.4816 19.034 44.8816 19.346 44.4616 19.97C44.0536 20.594 43.8496 21.392 43.8496 22.364V26H42.2836ZM48.7875 26V17.702H50.3535V19.232C50.5815 18.692 50.9415 18.266 51.4335 17.954C51.9375 17.642 52.5435 17.486 53.2515 17.486C55.3155 17.486 56.3475 18.62 56.3475 20.888V26H54.7815V21.572C54.7815 20.636 54.6135 19.946 54.2775 19.502C53.9535 19.058 53.4255 18.836 52.6935 18.836C51.9375 18.836 51.3555 19.082 50.9475 19.574C50.5515 20.066 50.3535 20.744 50.3535 21.608V26H48.7875ZM63.608 26V13.4H65.192L69.512 23.678L73.832 13.4H75.416V26H73.832V16.802L70.142 26H68.882L65.192 16.748V26H63.608ZM81.8673 26.216C80.5473 26.216 79.4973 25.802 78.7173 24.974C77.9373 24.134 77.5473 23.09 77.5473 21.842C77.5473 20.594 77.9373 19.556 78.7173 18.728C79.4973 17.9 80.5473 17.486 81.8673 17.486C83.1753 17.486 84.2193 17.906 84.9993 18.746C85.7913 19.574 86.1873 20.606 86.1873 21.842C86.1873 23.09 85.7913 24.134 84.9993 24.974C84.2193 25.802 83.1753 26.216 81.8673 26.216ZM79.8333 23.984C80.3373 24.536 81.0153 24.812 81.8673 24.812C82.7193 24.812 83.3913 24.536 83.8833 23.984C84.3753 23.42 84.6213 22.706 84.6213 21.842C84.6213 20.99 84.3753 20.288 83.8833 19.736C83.3913 19.172 82.7193 18.89 81.8673 18.89C81.0153 18.89 80.3373 19.172 79.8333 19.736C79.3413 20.288 79.0953 20.996 79.0953 21.86C79.0953 22.712 79.3413 23.42 79.8333 23.984ZM88.2152 26V17.702H89.7812V19.592C89.9372 18.932 90.2432 18.434 90.6992 18.098C91.1552 17.75 91.6592 17.576 92.2112 17.576C92.5352 17.576 92.7872 17.6 92.9672 17.648V19.088C92.7872 19.052 92.5292 19.034 92.1932 19.034C91.4132 19.034 90.8132 19.346 90.3932 19.97C89.9852 20.594 89.7812 21.392 89.7812 22.364V26H88.2152ZM101.835 21.374C101.835 21.602 101.817 21.914 101.781 22.31H95.355C95.367 23.102 95.607 23.726 96.075 24.182C96.543 24.626 97.173 24.848 97.965 24.848C99.069 24.848 99.801 24.44 100.161 23.624H101.727C101.583 24.392 101.163 25.016 100.467 25.496C99.771 25.976 98.937 26.216 97.965 26.216C96.693 26.216 95.679 25.826 94.923 25.046C94.179 24.254 93.807 23.186 93.807 21.842C93.807 20.522 94.179 19.466 94.923 18.674C95.667 17.882 96.657 17.486 97.893 17.486C99.069 17.486 100.017 17.846 100.737 18.566C101.469 19.286 101.835 20.222 101.835 21.374ZM95.355 21.104H100.287C100.287 20.372 100.071 19.796 99.639 19.376C99.219 18.956 98.631 18.746 97.875 18.746C97.131 18.746 96.531 18.962 96.075 19.394C95.631 19.826 95.391 20.396 95.355 21.104ZM115.595 26L115.001 24.074H109.763L109.169 26H107.387L111.653 13.4H113.111L117.377 26H115.595ZM110.231 22.58H114.533L112.373 15.668L110.231 22.58ZM123.638 17.486C124.826 17.486 125.792 17.894 126.536 18.71C127.28 19.514 127.652 20.564 127.652 21.86C127.652 23.132 127.268 24.176 126.5 24.992C125.732 25.808 124.748 26.216 123.548 26.216C122.912 26.216 122.324 26.066 121.784 25.766C121.256 25.466 120.86 25.058 120.596 24.542V26H119.03V13.4H120.596V19.16C120.86 18.644 121.262 18.236 121.802 17.936C122.354 17.636 122.966 17.486 123.638 17.486ZM123.332 24.812C124.136 24.812 124.796 24.536 125.312 23.984C125.828 23.432 126.086 22.724 126.086 21.86C126.086 20.996 125.828 20.288 125.312 19.736C124.796 19.172 124.136 18.89 123.332 18.89C122.504 18.89 121.826 19.166 121.298 19.718C120.782 20.27 120.524 20.984 120.524 21.86C120.524 22.724 120.782 23.432 121.298 23.984C121.826 24.536 122.504 24.812 123.332 24.812ZM133.318 26.216C131.998 26.216 130.948 25.802 130.168 24.974C129.388 24.134 128.998 23.09 128.998 21.842C128.998 20.594 129.388 19.556 130.168 18.728C130.948 17.9 131.998 17.486 133.318 17.486C134.626 17.486 135.67 17.906 136.45 18.746C137.242 19.574 137.638 20.606 137.638 21.842C137.638 23.09 137.242 24.134 136.45 24.974C135.67 25.802 134.626 26.216 133.318 26.216ZM131.284 23.984C131.788 24.536 132.466 24.812 133.318 24.812C134.17 24.812 134.842 24.536 135.334 23.984C135.826 23.42 136.072 22.706 136.072 21.842C136.072 20.99 135.826 20.288 135.334 19.736C134.842 19.172 134.17 18.89 133.318 18.89C132.466 18.89 131.788 19.172 131.284 19.736C130.792 20.288 130.546 20.996 130.546 21.86C130.546 22.712 130.792 23.42 131.284 23.984ZM142.726 26.216C141.766 26.216 140.998 25.928 140.422 25.352C139.858 24.764 139.576 23.918 139.576 22.814V17.702H141.142V22.436C141.142 24.056 141.814 24.866 143.158 24.866C143.95 24.866 144.538 24.614 144.922 24.11C145.318 23.594 145.516 22.97 145.516 22.238V17.702H147.082V26H145.516V24.488C145.288 25.016 144.928 25.436 144.436 25.748C143.956 26.06 143.386 26.216 142.726 26.216ZM153.248 24.686C153.68 24.686 154.028 24.656 154.292 24.596V25.982C153.932 26.066 153.47 26.108 152.906 26.108C152.654 26.108 152.432 26.096 152.24 26.072C152.06 26.048 151.844 25.982 151.592 25.874C151.34 25.766 151.13 25.616 150.962 25.424C150.794 25.22 150.65 24.938 150.53 24.578C150.41 24.206 150.35 23.762 150.35 23.246V19.016H148.856V17.702H150.35V15.074H151.916V17.702H154.004V19.016H151.916V22.904C151.916 23.636 152.024 24.116 152.24 24.344C152.456 24.572 152.792 24.686 153.248 24.686ZM164.577 26.288C163.149 26.288 162.033 25.91 161.229 25.154C160.425 24.398 160.023 23.342 160.023 21.986H161.661C161.661 22.862 161.919 23.558 162.435 24.074C162.963 24.59 163.671 24.848 164.559 24.848C165.351 24.848 165.963 24.668 166.395 24.308C166.827 23.936 167.043 23.42 167.043 22.76C167.043 22.208 166.887 21.764 166.575 21.428C166.275 21.092 165.759 20.798 165.027 20.546L162.939 19.808C161.247 19.268 160.401 18.164 160.401 16.496C160.401 15.488 160.767 14.672 161.499 14.048C162.231 13.424 163.185 13.112 164.361 13.112C165.597 13.112 166.587 13.46 167.331 14.156C168.075 14.852 168.447 15.788 168.447 16.964H166.809C166.809 16.184 166.593 15.584 166.161 15.164C165.729 14.732 165.111 14.516 164.307 14.516C163.611 14.516 163.059 14.69 162.651 15.038C162.255 15.374 162.057 15.83 162.057 16.406C162.057 16.934 162.231 17.372 162.579 17.72C162.927 18.068 163.491 18.374 164.271 18.638L166.215 19.322C167.871 19.91 168.699 21.044 168.699 22.724C168.699 23.792 168.321 24.656 167.565 25.316C166.821 25.964 165.825 26.288 164.577 26.288ZM171.554 16.28C171.182 16.28 170.876 16.16 170.636 15.92C170.396 15.68 170.276 15.38 170.276 15.02C170.276 14.66 170.396 14.36 170.636 14.12C170.876 13.868 171.182 13.742 171.554 13.742C171.914 13.742 172.214 13.868 172.454 14.12C172.694 14.36 172.814 14.66 172.814 15.02C172.814 15.38 172.694 15.68 172.454 15.92C172.214 16.16 171.914 16.28 171.554 16.28ZM170.762 26V17.702H172.328V26H170.762ZM181.424 17.702H182.972V25.784C182.972 27.368 182.492 28.532 181.532 29.276C180.836 29.792 179.882 30.05 178.67 30.05C177.458 30.05 176.48 29.78 175.736 29.24C174.944 28.688 174.53 27.956 174.494 27.044H176.132C176.204 27.548 176.45 27.956 176.87 28.268C177.302 28.58 177.902 28.736 178.67 28.736C180.506 28.736 181.424 27.788 181.424 25.892V24.542C181.172 25.058 180.77 25.466 180.218 25.766C179.666 26.066 179.084 26.216 178.472 26.216C177.224 26.216 176.228 25.802 175.484 24.974C174.74 24.146 174.368 23.108 174.368 21.86C174.368 20.612 174.752 19.574 175.52 18.746C176.3 17.906 177.296 17.486 178.508 17.486C179.144 17.486 179.72 17.636 180.236 17.936C180.764 18.236 181.16 18.644 181.424 19.16V17.702ZM178.688 24.812C179.54 24.812 180.218 24.53 180.722 23.966C181.238 23.402 181.496 22.7 181.496 21.86C181.496 21.02 181.238 20.318 180.722 19.754C180.218 19.178 179.54 18.89 178.688 18.89C177.872 18.89 177.206 19.172 176.69 19.736C176.174 20.288 175.916 20.996 175.916 21.86C175.916 22.712 176.174 23.42 176.69 23.984C177.206 24.536 177.872 24.812 178.688 24.812ZM185.668 26V17.702H187.234V19.232C187.462 18.692 187.822 18.266 188.314 17.954C188.818 17.642 189.424 17.486 190.132 17.486C192.196 17.486 193.228 18.62 193.228 20.888V26H191.662V21.572C191.662 20.636 191.494 19.946 191.158 19.502C190.834 19.058 190.306 18.836 189.574 18.836C188.818 18.836 188.236 19.082 187.828 19.574C187.432 20.066 187.234 20.744 187.234 21.608V26H185.668ZM208.121 25.136C207.305 25.904 206.189 26.288 204.773 26.288C203.357 26.288 202.235 25.904 201.407 25.136C200.591 24.368 200.183 23.276 200.183 21.86V13.4H201.821V21.77C201.821 22.754 202.085 23.51 202.613 24.038C203.141 24.554 203.861 24.812 204.773 24.812C205.685 24.812 206.399 24.554 206.915 24.038C207.443 23.51 207.707 22.754 207.707 21.77V13.4H209.363V21.86C209.363 23.276 208.949 24.368 208.121 25.136ZM216.433 17.486C217.621 17.486 218.587 17.894 219.331 18.71C220.075 19.514 220.447 20.564 220.447 21.86C220.447 23.132 220.063 24.176 219.295 24.992C218.527 25.808 217.543 26.216 216.343 26.216C215.707 26.216 215.119 26.066 214.579 25.766C214.051 25.466 213.655 25.058 213.391 24.542V29.834H211.825V17.702H213.391V19.16C213.655 18.644 214.057 18.236 214.597 17.936C215.149 17.636 215.761 17.486 216.433 17.486ZM216.127 24.812C216.931 24.812 217.591 24.536 218.107 23.984C218.623 23.432 218.881 22.724 218.881 21.86C218.881 20.996 218.623 20.288 218.107 19.736C217.591 19.172 216.931 18.89 216.127 18.89C215.299 18.89 214.621 19.166 214.093 19.718C213.577 20.27 213.319 20.984 213.319 21.86C213.319 22.724 213.577 23.432 214.093 23.984C214.621 24.536 215.299 24.812 216.127 24.812ZM231.62 13.4C232.856 13.4 233.87 13.808 234.662 14.624C235.454 15.44 235.85 16.484 235.85 17.756C235.85 19.016 235.454 20.054 234.662 20.87C233.87 21.686 232.856 22.094 231.62 22.094H228.74V26H227.102V13.4H231.62ZM231.53 20.618C232.31 20.618 232.952 20.348 233.456 19.808C233.96 19.268 234.212 18.584 234.212 17.756C234.212 16.916 233.96 16.226 233.456 15.686C232.952 15.146 232.31 14.876 231.53 14.876H228.74V20.618H231.53ZM237.454 26V17.702H239.02V19.592C239.176 18.932 239.482 18.434 239.938 18.098C240.394 17.75 240.898 17.576 241.45 17.576C241.774 17.576 242.026 17.6 242.206 17.648V19.088C242.026 19.052 241.768 19.034 241.432 19.034C240.652 19.034 240.052 19.346 239.632 19.97C239.224 20.594 239.02 21.392 239.02 22.364V26H237.454ZM247.365 26.216C246.045 26.216 244.995 25.802 244.215 24.974C243.435 24.134 243.045 23.09 243.045 21.842C243.045 20.594 243.435 19.556 244.215 18.728C244.995 17.9 246.045 17.486 247.365 17.486C248.673 17.486 249.717 17.906 250.497 18.746C251.289 19.574 251.685 20.606 251.685 21.842C251.685 23.09 251.289 24.134 250.497 24.974C249.717 25.802 248.673 26.216 247.365 26.216ZM245.331 23.984C245.835 24.536 246.513 24.812 247.365 24.812C248.217 24.812 248.889 24.536 249.381 23.984C249.873 23.42 250.119 22.706 250.119 21.842C250.119 20.99 249.873 20.288 249.381 19.736C248.889 19.172 248.217 18.89 247.365 18.89C246.513 18.89 245.835 19.172 245.331 19.736C244.839 20.288 244.593 20.996 244.593 21.86C244.593 22.712 244.839 23.42 245.331 23.984ZM257.275 26.216C256.015 26.216 255.013 25.82 254.269 25.028C253.525 24.224 253.153 23.168 253.153 21.86C253.153 20.552 253.525 19.502 254.269 18.71C255.013 17.906 256.015 17.504 257.275 17.504C258.391 17.504 259.291 17.786 259.975 18.35C260.659 18.902 261.049 19.646 261.145 20.582H259.579C259.363 19.466 258.595 18.908 257.275 18.908C256.471 18.908 255.841 19.172 255.385 19.7C254.929 20.216 254.701 20.936 254.701 21.86C254.701 22.784 254.929 23.51 255.385 24.038C255.841 24.554 256.471 24.812 257.275 24.812C258.583 24.812 259.351 24.272 259.579 23.192H261.145C261.049 24.116 260.659 24.854 259.975 25.406C259.291 25.946 258.391 26.216 257.275 26.216ZM270.638 21.374C270.638 21.602 270.62 21.914 270.584 22.31H264.158C264.17 23.102 264.41 23.726 264.878 24.182C265.346 24.626 265.976 24.848 266.768 24.848C267.872 24.848 268.604 24.44 268.964 23.624H270.53C270.386 24.392 269.966 25.016 269.27 25.496C268.574 25.976 267.74 26.216 266.768 26.216C265.496 26.216 264.482 25.826 263.726 25.046C262.982 24.254 262.61 23.186 262.61 21.842C262.61 20.522 262.982 19.466 263.726 18.674C264.47 17.882 265.46 17.486 266.696 17.486C267.872 17.486 268.82 17.846 269.54 18.566C270.272 19.286 270.638 20.222 270.638 21.374ZM264.158 21.104H269.09C269.09 20.372 268.874 19.796 268.442 19.376C268.022 18.956 267.434 18.746 266.678 18.746C265.934 18.746 265.334 18.962 264.878 19.394C264.434 19.826 264.194 20.396 264.158 21.104ZM275.453 26.216C274.409 26.216 273.569 25.958 272.933 25.442C272.309 24.914 271.997 24.272 271.997 23.516H273.545C273.545 23.936 273.725 24.284 274.085 24.56C274.445 24.824 274.925 24.956 275.525 24.956C275.993 24.956 276.365 24.848 276.641 24.632C276.917 24.416 277.055 24.122 277.055 23.75C277.055 23.162 276.785 22.802 276.245 22.67L274.031 22.094C272.843 21.77 272.249 21.026 272.249 19.862C272.249 19.178 272.537 18.614 273.113 18.17C273.689 17.714 274.439 17.486 275.363 17.486C276.371 17.486 277.151 17.72 277.703 18.188C278.267 18.644 278.549 19.244 278.549 19.988H277.001C277.001 19.592 276.851 19.28 276.551 19.052C276.251 18.812 275.831 18.692 275.291 18.692C274.859 18.692 274.499 18.794 274.211 18.998C273.935 19.19 273.797 19.454 273.797 19.79C273.797 20.354 274.103 20.708 274.715 20.852L276.785 21.428C277.373 21.584 277.829 21.86 278.153 22.256C278.477 22.652 278.639 23.102 278.639 23.606C278.639 24.398 278.357 25.034 277.793 25.514C277.229 25.982 276.449 26.216 275.453 26.216ZM283.556 26.216C282.512 26.216 281.672 25.958 281.036 25.442C280.412 24.914 280.1 24.272 280.1 23.516H281.648C281.648 23.936 281.828 24.284 282.188 24.56C282.548 24.824 283.028 24.956 283.628 24.956C284.096 24.956 284.468 24.848 284.744 24.632C285.02 24.416 285.158 24.122 285.158 23.75C285.158 23.162 284.888 22.802 284.348 22.67L282.134 22.094C280.946 21.77 280.352 21.026 280.352 19.862C280.352 19.178 280.64 18.614 281.216 18.17C281.792 17.714 282.542 17.486 283.466 17.486C284.474 17.486 285.254 17.72 285.806 18.188C286.37 18.644 286.652 19.244 286.652 19.988H285.104C285.104 19.592 284.954 19.28 284.654 19.052C284.354 18.812 283.934 18.692 283.394 18.692C282.962 18.692 282.602 18.794 282.314 18.998C282.038 19.19 281.9 19.454 281.9 19.79C281.9 20.354 282.206 20.708 282.818 20.852L284.888 21.428C285.476 21.584 285.932 21.86 286.256 22.256C286.58 22.652 286.742 23.102 286.742 23.606C286.742 24.398 286.46 25.034 285.896 25.514C285.332 25.982 284.552 26.216 283.556 26.216Z" fill="#0B0B0B"/>
<path d="M303.426 26.5999L308.859 21.1666C309.501 20.5249 309.501 19.4749 308.859 18.8332L303.426 13.3999" stroke="#131313" stroke-width="1.5" stroke-miterlimit="10" stroke-linecap="round" stroke-linejoin="round"/>
<rect x="0.25" y="0.25" width="327.5" height="39.5" rx="19.75" stroke="#5151FD" stroke-width="0.5"/>
</svg>
