<svg width="156" height="54" viewBox="0 0 156 54" fill="none" xmlns="http://www.w3.org/2000/svg">
<rect x="0.25" y="0.25" width="155.5" height="53.5" rx="26.75" fill="#E8B707"/>
<path d="M25.2 32V20.8H31.664V22.448H27.04V26H31.664V27.648H27.04V32H25.2ZM33.5488 32V24.544H35.2928V25.984C35.4208 25.4827 35.6714 25.104 36.0448 24.848C36.4181 24.5813 36.8288 24.448 37.2768 24.448C37.5648 24.448 37.7941 24.4693 37.9648 24.512V26.112C37.7834 26.0907 37.5541 26.08 37.2768 26.08C36.6581 26.08 36.1728 26.3093 35.8208 26.768C35.4688 27.216 35.2928 27.8613 35.2928 28.704V32H33.5488ZM45.8858 27.888C45.8858 28.08 45.8698 28.4 45.8378 28.848H40.3018C40.3231 29.4347 40.5151 29.888 40.8778 30.208C41.2404 30.5173 41.7418 30.672 42.3818 30.672C43.2031 30.672 43.7578 30.3893 44.0458 29.824H45.8058C45.6884 30.5173 45.3098 31.088 44.6698 31.536C44.0404 31.9733 43.2778 32.192 42.3818 32.192C41.2084 32.192 40.2804 31.84 39.5978 31.136C38.9151 30.432 38.5738 29.4773 38.5738 28.272C38.5738 27.0773 38.9098 26.128 39.5818 25.424C40.2644 24.7093 41.1764 24.352 42.3178 24.352C43.3844 24.352 44.2431 24.6827 44.8938 25.344C45.5551 25.9947 45.8858 26.8427 45.8858 27.888ZM40.3018 27.52H44.1738C44.1631 26.944 43.9924 26.5013 43.6618 26.192C43.3418 25.8827 42.8831 25.728 42.2858 25.728C41.6778 25.728 41.1978 25.8933 40.8458 26.224C40.4938 26.5547 40.3124 26.9867 40.3018 27.52ZM54.4395 27.888C54.4395 28.08 54.4235 28.4 54.3915 28.848H48.8555C48.8768 29.4347 49.0688 29.888 49.4315 30.208C49.7942 30.5173 50.2955 30.672 50.9355 30.672C51.7568 30.672 52.3115 30.3893 52.5995 29.824H54.3595C54.2422 30.5173 53.8635 31.088 53.2235 31.536C52.5942 31.9733 51.8315 32.192 50.9355 32.192C49.7622 32.192 48.8342 31.84 48.1515 31.136C47.4688 30.432 47.1275 29.4773 47.1275 28.272C47.1275 27.0773 47.4635 26.128 48.1355 25.424C48.8182 24.7093 49.7302 24.352 50.8715 24.352C51.9382 24.352 52.7968 24.6827 53.4475 25.344C54.1088 25.9947 54.4395 26.8427 54.4395 27.888ZM48.8555 27.52H52.7275C52.7168 26.944 52.5462 26.5013 52.2155 26.192C51.8955 25.8827 51.4368 25.728 50.8395 25.728C50.2315 25.728 49.7515 25.8933 49.3995 26.224C49.0475 26.5547 48.8662 26.9867 48.8555 27.52ZM60.125 32V20.8H63.917C65.6877 20.8 67.069 21.3493 68.061 22.448C69.0637 23.536 69.565 24.8533 69.565 26.4C69.565 27.9467 69.0637 29.2693 68.061 30.368C67.069 31.456 65.6877 32 63.917 32H60.125ZM61.965 30.352H63.757C65.037 30.352 66.0077 29.968 66.669 29.2C67.341 28.432 67.677 27.4987 67.677 26.4C67.677 25.3013 67.341 24.368 66.669 23.6C66.0077 22.832 65.037 22.448 63.757 22.448H61.965V30.352ZM77.37 31.088C76.666 31.824 75.7113 32.192 74.506 32.192C73.3007 32.192 72.3407 31.824 71.626 31.088C70.922 30.3413 70.57 29.4027 70.57 28.272C70.57 27.1413 70.922 26.208 71.626 25.472C72.3407 24.7253 73.3007 24.352 74.506 24.352C75.7113 24.352 76.666 24.7253 77.37 25.472C78.0847 26.208 78.442 27.1413 78.442 28.272C78.442 29.4027 78.0847 30.3413 77.37 31.088ZM72.89 29.984C73.2847 30.4213 73.8233 30.64 74.506 30.64C75.1887 30.64 75.722 30.4213 76.106 29.984C76.5007 29.5467 76.698 28.976 76.698 28.272C76.698 27.568 76.5007 26.9973 76.106 26.56C75.722 26.1227 75.1887 25.904 74.506 25.904C73.8233 25.904 73.2847 26.1227 72.89 26.56C72.506 26.9973 72.314 27.568 72.314 28.272C72.314 28.976 72.506 29.5467 72.89 29.984ZM81.4739 32L78.7219 24.544H80.6419L82.1939 29.472L83.8099 24.544H85.6979L87.3139 29.472L88.8659 24.544H90.7859L88.0339 32H86.5619L84.7539 26.688L82.9459 32H81.4739ZM91.9406 32V24.544H93.6846V25.584C94.1646 24.7627 94.9753 24.352 96.1166 24.352C97.93 24.352 98.8366 25.3387 98.8366 27.312V32H97.0926V28.112C97.0926 27.3013 96.97 26.72 96.7246 26.368C96.4793 26.016 96.058 25.84 95.4606 25.84C94.8953 25.84 94.458 26.0213 94.1486 26.384C93.8393 26.736 93.6846 27.2427 93.6846 27.904V32H91.9406ZM100.901 32V20.8H102.645V32H100.901ZM111.085 31.088C110.381 31.824 109.426 32.192 108.221 32.192C107.016 32.192 106.056 31.824 105.341 31.088C104.637 30.3413 104.285 29.4027 104.285 28.272C104.285 27.1413 104.637 26.208 105.341 25.472C106.056 24.7253 107.016 24.352 108.221 24.352C109.426 24.352 110.381 24.7253 111.085 25.472C111.8 26.208 112.157 27.1413 112.157 28.272C112.157 29.4027 111.8 30.3413 111.085 31.088ZM106.605 29.984C107 30.4213 107.538 30.64 108.221 30.64C108.904 30.64 109.437 30.4213 109.821 29.984C110.216 29.5467 110.413 28.976 110.413 28.272C110.413 27.568 110.216 26.9973 109.821 26.56C109.437 26.1227 108.904 25.904 108.221 25.904C107.538 25.904 107 26.1227 106.605 26.56C106.221 26.9973 106.029 27.568 106.029 28.272C106.029 28.976 106.221 29.5467 106.605 29.984ZM117.05 32.192C115.887 32.192 114.986 31.824 114.346 31.088C113.706 30.352 113.386 29.4133 113.386 28.272C113.386 27.1413 113.722 26.208 114.394 25.472C115.066 24.7253 115.967 24.352 117.098 24.352C117.599 24.352 118.058 24.4587 118.474 24.672C118.89 24.8853 119.21 25.1787 119.434 25.552V24.544H121.178V32H119.434V30.992C119.22 31.3547 118.884 31.648 118.426 31.872C117.978 32.0853 117.519 32.192 117.05 32.192ZM117.306 30.64C118.02 30.64 118.564 30.416 118.938 29.968C119.322 29.52 119.514 28.9547 119.514 28.272C119.514 27.5893 119.322 27.024 118.938 26.576C118.564 26.128 118.02 25.904 117.306 25.904C116.634 25.904 116.1 26.128 115.706 26.576C115.322 27.0133 115.13 27.5787 115.13 28.272C115.13 28.9653 115.322 29.536 115.706 29.984C116.1 30.4213 116.634 30.64 117.306 30.64ZM128.862 20.8H130.606V32H128.862V30.992C128.649 31.3547 128.313 31.648 127.854 31.872C127.406 32.0853 126.948 32.192 126.478 32.192C125.316 32.192 124.414 31.824 123.774 31.088C123.134 30.352 122.814 29.4133 122.814 28.272C122.814 27.1413 123.15 26.208 123.822 25.472C124.494 24.7253 125.396 24.352 126.526 24.352C127.028 24.352 127.486 24.4587 127.902 24.672C128.318 24.8853 128.638 25.1787 128.862 25.552V20.8ZM126.734 30.64C127.449 30.64 127.993 30.416 128.366 29.968C128.75 29.52 128.942 28.9547 128.942 28.272C128.942 27.5893 128.75 27.024 128.366 26.576C127.993 26.128 127.449 25.904 126.734 25.904C126.062 25.904 125.529 26.128 125.134 26.576C124.75 27.0133 124.558 27.5787 124.558 28.272C124.558 28.9653 124.75 29.536 125.134 29.984C125.529 30.4213 126.062 30.64 126.734 30.64Z" fill="#0B0B0B"/>
<rect x="0.25" y="0.25" width="155.5" height="53.5" rx="26.75" stroke="#FFC400" stroke-width="0.5"/>
</svg>
