<svg width="125" height="32" viewBox="0 0 125 32" fill="none" xmlns="http://www.w3.org/2000/svg">
<path d="M17.8698 12.4067C17.8708 13.4764 17.5421 14.5209 16.9275 15.4013C16.3131 16.2817 15.4419 16.9561 14.43 17.3347V12.4067H14.4055C14.4055 11.9211 14.2104 11.4555 13.8632 11.1123C13.5161 10.769 13.0451 10.5761 12.5541 10.5761C12.0631 10.5761 11.5922 10.769 11.245 11.1123C10.8977 11.4555 10.7027 11.9211 10.7027 12.4067H10.6782V26.6673C10.6782 29.654 8.20612 32.0928 5.18533 31.9975C3.84003 31.9556 2.5608 31.4111 1.60532 30.4738C0.649839 29.5366 0.0891263 28.2761 0.0361336 26.9464C0.0361336 26.8771 0.0361336 26.8095 0.0361336 26.7401C0.0355513 25.6707 0.364845 24.6266 0.980075 23.747C1.5953 22.8674 2.46721 22.1942 3.47945 21.8172V26.9464H3.49173C3.54254 27.4002 3.76087 27.8195 4.1049 28.1241C4.44892 28.4286 4.89448 28.597 5.35627 28.597C5.81805 28.597 6.26361 28.4286 6.60763 28.1241C6.95166 27.8195 7.16999 27.4002 7.22081 26.9464H7.23133V12.4812C7.23133 9.4668 9.75947 7.01231 12.8048 7.15271C14.17 7.21772 15.4575 7.79961 16.4005 8.77777C17.3435 9.75593 17.8696 11.0553 17.8698 12.4067Z" fill="url(#paint0_linear_845_2503)"/>
<path d="M24.4837 8.47196C26.9381 16.3382 21.7013 23.5976 14.4237 24.6758C14.4221 23.7941 14.6582 22.9279 15.1075 22.1663C15.5567 21.4047 16.203 20.7751 16.9799 20.3423C20.5459 18.3697 22.6271 14.0881 21.1526 9.54321C20.3952 7.21005 17.8214 4.68969 15.4458 3.97033C9.2377 2.06358 3.53799 6.57042 3.47663 12.4068V15.8442C3.47493 16.4214 3.3037 16.9857 2.98374 17.4685C2.66379 17.9513 2.20889 18.3318 1.67432 18.5638H1.65679C1.0716 18.8256 0.516222 19.1481 0 19.5259V12.4068C0 4.2442 7.97363 -2.07924 16.638 0.640461C18.4877 1.22322 20.1674 2.23986 21.5336 3.60358C22.8998 4.96732 23.912 6.63763 24.4837 8.47196Z" fill="url(#paint1_linear_845_2503)"/>
<path d="M34.2209 25.1642C33.842 25.0591 33.4897 24.8765 33.1865 24.6283L33.5775 23.7406C33.8534 23.9541 34.164 24.1194 34.4961 24.2295C34.8476 24.3525 35.2176 24.4161 35.5905 24.4177C35.9426 24.4411 36.2942 24.3652 36.6043 24.1988C36.7067 24.1396 36.7917 24.0547 36.8506 23.9527C36.9093 23.8508 36.94 23.7353 36.9394 23.6179C36.9419 23.5364 36.9264 23.4554 36.8939 23.3804C36.8614 23.3055 36.8126 23.2386 36.7511 23.1843C36.6147 23.0621 36.4531 22.9707 36.2774 22.9163C36.085 22.8508 35.8243 22.7772 35.4933 22.6954C35.1106 22.6085 34.7339 22.4971 34.3658 22.362C34.0791 22.2502 33.8247 22.0704 33.6251 21.8384C33.4068 21.566 33.2972 21.224 33.3169 20.877C33.3137 20.5483 33.4086 20.2259 33.59 19.9504C33.7954 19.6548 34.0828 19.424 34.4174 19.2856C34.8468 19.1107 35.3084 19.027 35.7726 19.0401C36.1427 19.04 36.5113 19.0876 36.8691 19.1813C37.2012 19.2645 37.5168 19.4028 37.8021 19.5904L37.4442 20.4781C37.1852 20.3234 36.907 20.2024 36.6166 20.1181C36.3424 20.0385 36.0583 19.9972 35.7726 19.9954C35.4244 19.9704 35.0767 20.0503 34.7754 20.2245C34.6719 20.2902 34.5875 20.3812 34.5302 20.4887C34.4729 20.5963 34.4448 20.7167 34.4485 20.8381C34.4455 20.9147 34.4584 20.9911 34.4865 21.0626C34.5146 21.134 34.5573 21.1989 34.6119 21.2534C34.7513 21.3716 34.9131 21.4613 35.0878 21.5172C35.2781 21.5806 35.5409 21.6543 35.8719 21.7361C36.2506 21.8186 36.6226 21.9286 36.9849 22.0654C37.2728 22.177 37.5286 22.3568 37.7297 22.589C37.9483 22.8566 38.0588 23.1947 38.04 23.5381C38.0439 23.8659 37.948 24.1873 37.7649 24.4606C37.5596 24.7549 37.272 24.9838 36.9374 25.1192C36.5073 25.2941 36.045 25.3777 35.5802 25.3647C35.1195 25.3663 34.6611 25.2987 34.2209 25.1642Z" fill="white"/>
<path d="M41.6463 20.0953H39.625V19.1278H44.7971V20.0953H42.7758V25.2786H41.6463V20.0953Z" fill="white"/>
<path d="M47.5297 24.6506C47.0607 24.1733 46.8255 23.4915 46.8242 22.6051V19.1278H47.9579V22.5539C47.9579 23.7608 48.4744 24.3643 49.5075 24.3643C50.5406 24.3643 51.0543 23.7608 51.0487 22.5539V19.1278H52.1638V22.6051C52.1638 23.4956 51.9301 24.1774 51.4625 24.6506C50.995 25.1238 50.3405 25.3624 49.4992 25.3665C48.6564 25.3665 48 25.1279 47.5297 24.6506Z" fill="white"/>
<path d="M55.0947 19.1278H57.7615C58.3614 19.1164 58.9552 19.2475 59.4931 19.5103C59.9826 19.7506 60.3913 20.1257 60.6703 20.5903C60.9444 21.0847 61.0881 21.6394 61.0881 22.2032C61.0881 22.7669 60.9444 23.3216 60.6703 23.816C60.3913 24.2807 59.9826 24.6557 59.4931 24.896C58.9552 25.1588 58.3614 25.29 57.7615 25.2785H55.0947V19.1278ZM57.6974 24.3212C58.1064 24.3292 58.5115 24.2401 58.8786 24.0614C59.2083 23.8975 59.4811 23.6405 59.6627 23.323C59.8421 22.9793 59.9358 22.5981 59.9358 22.2113C59.9358 21.8245 59.8421 21.4434 59.6627 21.0997C59.4811 20.7822 59.2083 20.5251 58.8786 20.3612C58.5114 20.1833 58.1063 20.0949 57.6974 20.1035H56.2181V24.3212H57.6974Z" fill="white"/>
<path d="M68.1844 24.3213V25.2786H63.6123V19.1278H68.0624V20.0851H64.7523V21.6846H67.6962V22.6255H64.744V24.3213H68.1844Z" fill="white"/>
<path d="M76.1976 19.1278V25.2786H75.2645L71.9026 21.1139V25.2786H70.7793V19.1278H71.7124L75.0742 23.2985V19.1278H76.1976Z" fill="white"/>
<path d="M80.402 20.0953H78.3828V19.1278H83.5549V20.0953H81.5357V25.2786H80.402V20.0953Z" fill="white"/>
<path d="M86.2063 25.1643C85.8276 25.0587 85.4753 24.8762 85.1719 24.6284L85.565 23.7407C85.8402 23.9549 86.151 24.1203 86.4835 24.2295C86.8344 24.3525 87.2037 24.4161 87.5759 24.4177C87.928 24.4412 88.2795 24.3653 88.5896 24.1988C88.6924 24.1397 88.7777 24.0549 88.8368 23.953C88.896 23.851 88.9271 23.7355 88.9269 23.6179C88.929 23.5365 88.9132 23.4556 88.8807 23.3807C88.8483 23.3059 88.7997 23.2389 88.7386 23.1843C88.6018 23.0626 88.4402 22.9712 88.2649 22.9163C88.0724 22.8509 87.8117 22.7773 87.4807 22.6954C87.0979 22.6091 86.7211 22.4978 86.3532 22.362C86.0663 22.2508 85.8118 22.0708 85.6126 21.8384C85.3935 21.5663 85.2831 21.2243 85.3022 20.877C85.2987 20.548 85.3945 20.2254 85.5774 19.9505C85.7824 19.6544 86.0698 19.4235 86.4049 19.2857C86.8335 19.1106 87.2945 19.027 87.7579 19.0402C88.1288 19.04 88.4981 19.0875 88.8566 19.1814C89.1882 19.2641 89.5031 19.4025 89.7875 19.5905L89.4358 20.472C89.1768 20.3173 88.8986 20.1963 88.6082 20.112C88.3332 20.0327 88.0485 19.9914 87.7621 19.9893C87.4139 19.9643 87.0663 20.0442 86.7649 20.2184C86.6617 20.2844 86.5775 20.3755 86.5202 20.4829C86.463 20.5904 86.4347 20.7106 86.438 20.832C86.4354 20.9132 86.4508 20.994 86.4834 21.0686C86.516 21.1432 86.5647 21.2098 86.6263 21.2636C86.7649 21.3819 86.9259 21.4716 87.1001 21.5275C87.2925 21.5909 87.5531 21.6645 87.8842 21.7463C88.2571 21.8284 88.6236 21.9371 88.9807 22.0716C89.268 22.1842 89.5235 22.3638 89.7254 22.5952C89.9434 22.863 90.0533 23.2011 90.0337 23.5443C90.0371 23.8717 89.942 24.1928 89.7606 24.4668C89.5539 24.7599 89.2668 24.9885 88.933 25.1254C88.5022 25.3001 88.0392 25.3837 87.5738 25.3709C87.11 25.3711 86.6489 25.3014 86.2063 25.1643Z" fill="white"/>
<path d="M38.3586 10.0789C38.2181 10.3658 38.0137 10.6176 37.7608 10.8152C37.4957 11.0179 37.1947 11.1698 36.8732 11.2632C36.5207 11.3666 36.1547 11.4176 35.787 11.4145H34.401V13.6277H33.1865V6.74478H35.9319C36.3046 6.74013 36.6756 6.79539 37.0304 6.90841C37.3359 7.00569 37.6176 7.16448 37.858 7.37478C38.0856 7.57636 38.2658 7.82495 38.3855 8.10296C38.5121 8.40492 38.5748 8.72932 38.5696 9.05614C38.5787 9.40847 38.5066 9.75822 38.3586 10.0789ZM36.9249 8.14796C36.6049 7.92603 36.2188 7.81656 35.8284 7.83705H34.401V10.3243H35.8284C36.2256 10.3451 36.617 10.2239 36.9311 9.98274C37.0632 9.87245 37.1681 9.73394 37.238 9.57767C37.3078 9.42138 37.3408 9.25144 37.3345 9.08069C37.3472 8.90411 37.3165 8.72712 37.2452 8.56475C37.1739 8.40236 37.0641 8.25939 36.9249 8.14796Z" fill="white"/>
<path d="M49.4783 13.6277H48.1915L47.486 11.9668H44.1882L43.4704 13.6277H42.2188L45.2806 6.69568H46.4143L49.4783 13.6277ZM45.8289 8.14181L44.6352 10.895H47.0309L45.8289 8.14181Z" fill="white"/>
<path d="M58.1199 13.6277L56.4007 11.2305H54.8656V13.6277H53.6533V6.7448H56.7566C57.1225 6.74009 57.4868 6.79185 57.8365 6.89821C58.1347 6.98673 58.4118 7.1335 58.6517 7.32981C58.8705 7.51833 59.0426 7.75421 59.1543 8.01912C59.2773 8.30625 59.3386 8.61552 59.3344 8.92731C59.3385 9.1902 59.2966 9.45181 59.2102 9.70049C59.0537 10.1367 58.7478 10.505 58.3454 10.7416C58.1383 10.8674 57.9139 10.9632 57.6793 11.0259L59.5681 13.6277H58.1199ZM57.7206 8.12754C57.4075 7.91583 57.0317 7.81361 56.6532 7.83708H54.8678V10.1566H56.6718C57.0432 10.1739 57.409 10.0625 57.7062 9.84163C57.8332 9.73921 57.9343 9.60905 58.0019 9.4614C58.0694 9.31376 58.1012 9.15264 58.0952 8.99071C58.1067 8.82755 58.0786 8.66401 58.0131 8.51382C57.9476 8.36363 57.8466 8.23116 57.7186 8.12754H57.7206Z" fill="white"/>
<path d="M70.49 13.6277H69.197L68.4915 11.9668H65.2L64.4842 13.6277H63.2305L66.2944 6.69568H67.4323L70.49 13.6277ZM66.8406 8.14181L65.6469 10.895H68.0529L66.8406 8.14181Z" fill="white"/>
<path d="M78.0939 11.9362H78.0546L75.8761 8.7126V13.6217H74.6699V6.74487H75.9734L78.0835 10.0033L80.202 6.74896H81.4972V13.6278H80.2848V8.69214L78.0939 11.9362Z" fill="white"/>
<path d="M92.985 11.5542C92.8102 11.978 92.5529 12.3637 92.2277 12.6895C91.8978 13.018 91.5065 13.2799 91.0754 13.4607C90.6096 13.6555 90.1082 13.753 89.6024 13.7471C89.098 13.7528 88.5976 13.6575 88.1315 13.4668C87.7028 13.2897 87.314 13.0304 86.9873 12.7038C86.6661 12.379 86.413 11.9946 86.2426 11.5727C85.884 10.6892 85.884 9.70299 86.2426 8.81951C86.4159 8.39544 86.6726 8.00957 86.9978 7.68428C87.3414 7.34321 87.7509 7.07399 88.2019 6.89266C88.6529 6.71134 89.1363 6.62161 89.6231 6.62882C90.1283 6.6219 90.6295 6.71727 91.0961 6.90905C91.5229 7.08369 91.9098 7.34111 92.2342 7.66607C92.5587 7.99103 92.8139 8.37698 92.985 8.8011C93.3435 9.68458 93.3435 10.6708 92.985 11.5542ZM91.7953 9.24906C91.6857 8.95947 91.5206 8.69349 91.3092 8.46564C91.0974 8.24099 90.842 8.06081 90.5582 7.93587C90.2584 7.80001 89.9323 7.73022 89.6024 7.73132C89.2856 7.7275 88.9717 7.78963 88.6808 7.91367C88.3899 8.03772 88.1288 8.22092 87.9142 8.45133C87.7047 8.67751 87.541 8.94138 87.4322 9.2286C87.2006 9.8406 87.2006 10.5147 87.4322 11.1267C87.5412 11.4151 87.7049 11.6803 87.9142 11.9081C88.126 12.1328 88.3814 12.3129 88.6652 12.4379C88.9644 12.5734 89.2898 12.6432 89.6189 12.6424C89.9455 12.6463 90.2693 12.5814 90.5686 12.4522C90.8486 12.3298 91.1007 12.1523 91.3092 11.9306C91.5194 11.705 91.6832 11.4409 91.7912 11.1533C92.0229 10.5421 92.0229 9.86853 91.7912 9.25724L91.7953 9.24906Z" fill="white"/>
<path d="M103.564 10.6476C103.575 11.1054 103.505 11.5616 103.357 11.9956C103.23 12.3575 103.025 12.6877 102.756 12.963C102.493 13.2262 102.171 13.4251 101.816 13.544C101.416 13.6766 100.996 13.7416 100.575 13.7362C100.159 13.7412 99.7456 13.6762 99.3521 13.544C99.0004 13.4247 98.6807 13.2282 98.4169 12.9692C98.1501 12.7001 97.9466 12.376 97.8211 12.0201C97.6743 11.5979 97.6042 11.1533 97.6142 10.7069V6.74487H98.8265V10.6578C98.8265 11.3001 98.9831 11.7883 99.2961 12.1224C99.464 12.2934 99.667 12.4269 99.8916 12.5137C100.116 12.6005 100.357 12.6386 100.597 12.6255C100.834 12.6381 101.071 12.6017 101.293 12.5185C101.516 12.4354 101.717 12.3075 101.887 12.1428C102.201 11.8224 102.358 11.3451 102.358 10.711V6.74487H103.571L103.564 10.6476Z" fill="white"/>
<path d="M113.08 6.74487H114.292V13.6278H113.271L109.441 8.73101V13.6278H108.227V6.74487H109.358L113.082 11.5046L113.08 6.74487Z" fill="white"/>
<path d="M122.011 13.6278H120.77V7.86578H118.57V6.74487H124.219V7.86578H122.011V13.6278Z" fill="white"/>
<defs>
<linearGradient id="paint0_linear_845_2503" x1="0.0326271" y1="19.5742" x2="17.8698" y2="19.5742" gradientUnits="userSpaceOnUse">
<stop stop-color="#F79632"/>
<stop offset="1" stop-color="#FFD028"/>
</linearGradient>
<linearGradient id="paint1_linear_845_2503" x1="0.815245" y1="30.5312" x2="16.353" y2="5.97843" gradientUnits="userSpaceOnUse">
<stop stop-color="#F79632"/>
<stop offset="1" stop-color="#FFD028"/>
</linearGradient>
</defs>
</svg>
