<svg width="378" height="91" viewBox="0 0 378 91" fill="none" xmlns="http://www.w3.org/2000/svg">
<rect x="0.25" y="0.25" width="377.5" height="90.5" rx="41.75" fill="#E8B707"/>
<path d="M109.8 53V36.2H119.496V38.672H112.56V44H119.496V46.472H112.56V53H109.8ZM122.323 53V41.816H124.939V43.976C125.131 43.224 125.507 42.656 126.067 42.272C126.627 41.872 127.243 41.672 127.915 41.672C128.347 41.672 128.691 41.704 128.947 41.768V44.168C128.675 44.136 128.331 44.12 127.915 44.12C126.987 44.12 126.259 44.464 125.731 45.152C125.203 45.824 124.939 46.792 124.939 48.056V53H122.323ZM140.829 46.832C140.829 47.12 140.805 47.6 140.757 48.272H132.453C132.485 49.152 132.773 49.832 133.317 50.312C133.861 50.776 134.613 51.008 135.573 51.008C136.805 51.008 137.637 50.584 138.069 49.736H140.709C140.533 50.776 139.965 51.632 139.005 52.304C138.061 52.96 136.917 53.288 135.573 53.288C133.813 53.288 132.421 52.76 131.397 51.704C130.373 50.648 129.861 49.216 129.861 47.408C129.861 45.616 130.365 44.192 131.373 43.136C132.397 42.064 133.765 41.528 135.477 41.528C137.077 41.528 138.365 42.024 139.341 43.016C140.333 43.992 140.829 45.264 140.829 46.832ZM132.453 46.28H138.261C138.245 45.416 137.989 44.752 137.493 44.288C137.013 43.824 136.325 43.592 135.429 43.592C134.517 43.592 133.797 43.84 133.269 44.336C132.741 44.832 132.469 45.48 132.453 46.28ZM153.659 46.832C153.659 47.12 153.635 47.6 153.587 48.272H145.283C145.315 49.152 145.603 49.832 146.147 50.312C146.691 50.776 147.443 51.008 148.403 51.008C149.635 51.008 150.467 50.584 150.899 49.736H153.539C153.363 50.776 152.795 51.632 151.835 52.304C150.891 52.96 149.747 53.288 148.403 53.288C146.643 53.288 145.251 52.76 144.227 51.704C143.203 50.648 142.691 49.216 142.691 47.408C142.691 45.616 143.195 44.192 144.203 43.136C145.227 42.064 146.595 41.528 148.307 41.528C149.907 41.528 151.195 42.024 152.171 43.016C153.163 43.992 153.659 45.264 153.659 46.832ZM145.283 46.28H151.091C151.075 45.416 150.819 44.752 150.323 44.288C149.843 43.824 149.155 43.592 148.259 43.592C147.347 43.592 146.627 43.84 146.099 44.336C145.571 44.832 145.299 45.48 145.283 46.28ZM162.188 53V36.2H167.876C170.532 36.2 172.604 37.024 174.092 38.672C175.596 40.304 176.348 42.28 176.348 44.6C176.348 46.92 175.596 48.904 174.092 50.552C172.604 52.184 170.532 53 167.876 53H162.188ZM164.948 50.528H167.636C169.556 50.528 171.012 49.952 172.004 48.8C173.012 47.648 173.516 46.248 173.516 44.6C173.516 42.952 173.012 41.552 172.004 40.4C171.012 39.248 169.556 38.672 167.636 38.672H164.948V50.528ZM188.055 51.632C186.999 52.736 185.567 53.288 183.759 53.288C181.951 53.288 180.511 52.736 179.439 51.632C178.383 50.512 177.855 49.104 177.855 47.408C177.855 45.712 178.383 44.312 179.439 43.208C180.511 42.088 181.951 41.528 183.759 41.528C185.567 41.528 186.999 42.088 188.055 43.208C189.127 44.312 189.663 45.712 189.663 47.408C189.663 49.104 189.127 50.512 188.055 51.632ZM181.335 49.976C181.927 50.632 182.735 50.96 183.759 50.96C184.783 50.96 185.583 50.632 186.159 49.976C186.751 49.32 187.047 48.464 187.047 47.408C187.047 46.352 186.751 45.496 186.159 44.84C185.583 44.184 184.783 43.856 183.759 43.856C182.735 43.856 181.927 44.184 181.335 44.84C180.759 45.496 180.471 46.352 180.471 47.408C180.471 48.464 180.759 49.32 181.335 49.976ZM194.211 53L190.083 41.816H192.963L195.291 49.208L197.715 41.816H200.547L202.971 49.208L205.299 41.816H208.179L204.051 53H201.843L199.131 45.032L196.419 53H194.211ZM209.911 53V41.816H212.527V43.376C213.247 42.144 214.463 41.528 216.175 41.528C218.895 41.528 220.255 43.008 220.255 45.968V53H217.639V47.168C217.639 45.952 217.455 45.08 217.087 44.552C216.719 44.024 216.087 43.76 215.191 43.76C214.343 43.76 213.687 44.032 213.223 44.576C212.759 45.104 212.527 45.864 212.527 46.856V53H209.911ZM223.351 53V36.2H225.967V53H223.351ZM238.628 51.632C237.572 52.736 236.14 53.288 234.332 53.288C232.524 53.288 231.084 52.736 230.012 51.632C228.956 50.512 228.428 49.104 228.428 47.408C228.428 45.712 228.956 44.312 230.012 43.208C231.084 42.088 232.524 41.528 234.332 41.528C236.14 41.528 237.572 42.088 238.628 43.208C239.7 44.312 240.236 45.712 240.236 47.408C240.236 49.104 239.7 50.512 238.628 51.632ZM231.908 49.976C232.5 50.632 233.308 50.96 234.332 50.96C235.356 50.96 236.156 50.632 236.732 49.976C237.324 49.32 237.62 48.464 237.62 47.408C237.62 46.352 237.324 45.496 236.732 44.84C236.156 44.184 235.356 43.856 234.332 43.856C233.308 43.856 232.5 44.184 231.908 44.84C231.332 45.496 231.044 46.352 231.044 47.408C231.044 48.464 231.332 49.32 231.908 49.976ZM247.574 53.288C245.83 53.288 244.478 52.736 243.518 51.632C242.558 50.528 242.078 49.12 242.078 47.408C242.078 45.712 242.582 44.312 243.59 43.208C244.598 42.088 245.95 41.528 247.646 41.528C248.398 41.528 249.086 41.688 249.71 42.008C250.334 42.328 250.814 42.768 251.15 43.328V41.816H253.766V53H251.15V51.488C250.83 52.032 250.326 52.472 249.638 52.808C248.966 53.128 248.278 53.288 247.574 53.288ZM247.958 50.96C249.03 50.96 249.846 50.624 250.406 49.952C250.982 49.28 251.27 48.432 251.27 47.408C251.27 46.384 250.982 45.536 250.406 44.864C249.846 44.192 249.03 43.856 247.958 43.856C246.95 43.856 246.15 44.192 245.558 44.864C244.982 45.52 244.694 46.368 244.694 47.408C244.694 48.448 244.982 49.304 245.558 49.976C246.15 50.632 246.95 50.96 247.958 50.96ZM265.294 36.2H267.91V53H265.294V51.488C264.974 52.032 264.47 52.472 263.782 52.808C263.11 53.128 262.422 53.288 261.718 53.288C259.974 53.288 258.622 52.736 257.662 51.632C256.702 50.528 256.222 49.12 256.222 47.408C256.222 45.712 256.726 44.312 257.734 43.208C258.742 42.088 260.094 41.528 261.79 41.528C262.542 41.528 263.23 41.688 263.854 42.008C264.478 42.328 264.958 42.768 265.294 43.328V36.2ZM262.102 50.96C263.174 50.96 263.99 50.624 264.55 49.952C265.126 49.28 265.414 48.432 265.414 47.408C265.414 46.384 265.126 45.536 264.55 44.864C263.99 44.192 263.174 43.856 262.102 43.856C261.094 43.856 260.294 44.192 259.702 44.864C259.126 45.52 258.838 46.368 258.838 47.408C258.838 48.448 259.126 49.304 259.702 49.976C260.294 50.632 261.094 50.96 262.102 50.96Z" fill="#0B0B0B"/>
<rect x="0.25" y="0.25" width="377.5" height="90.5" rx="41.75" stroke="#FFC400" stroke-width="0.5"/>
</svg>
