<svg width="262" height="69" viewBox="0 0 262 69" fill="none" xmlns="http://www.w3.org/2000/svg">
<rect x="0.25" y="0.25" width="261.5" height="68.5" rx="34.25" fill="#FCD340"/>
<path d="M71.35 40V27.4H78.622V29.254H73.42V33.25H78.622V35.104H73.42V40H71.35ZM80.7423 40V31.612H82.7043V33.232C82.8483 32.668 83.1303 32.242 83.5503 31.954C83.9703 31.654 84.4323 31.504 84.9363 31.504C85.2603 31.504 85.5183 31.528 85.7103 31.576V33.376C85.5063 33.352 85.2483 33.34 84.9363 33.34C84.2403 33.34 83.6943 33.598 83.2983 34.114C82.9023 34.618 82.7043 35.344 82.7043 36.292V40H80.7423ZM94.6215 35.374C94.6215 35.59 94.6035 35.95 94.5675 36.454H88.3395C88.3635 37.114 88.5795 37.624 88.9875 37.984C89.3955 38.332 89.9595 38.506 90.6795 38.506C91.6035 38.506 92.2275 38.188 92.5515 37.552H94.5315C94.3995 38.332 93.9735 38.974 93.2535 39.478C92.5455 39.97 91.6875 40.216 90.6795 40.216C89.3595 40.216 88.3155 39.82 87.5475 39.028C86.7795 38.236 86.3955 37.162 86.3955 35.806C86.3955 34.462 86.7735 33.394 87.5295 32.602C88.2975 31.798 89.3235 31.396 90.6075 31.396C91.8075 31.396 92.7735 31.768 93.5055 32.512C94.2495 33.244 94.6215 34.198 94.6215 35.374ZM88.3395 34.96H92.6955C92.6835 34.312 92.4915 33.814 92.1195 33.466C91.7595 33.118 91.2435 32.944 90.5715 32.944C89.8875 32.944 89.3475 33.13 88.9515 33.502C88.5555 33.874 88.3515 34.36 88.3395 34.96ZM104.244 35.374C104.244 35.59 104.226 35.95 104.19 36.454H97.9624C97.9864 37.114 98.2024 37.624 98.6104 37.984C99.0184 38.332 99.5824 38.506 100.302 38.506C101.226 38.506 101.85 38.188 102.174 37.552H104.154C104.022 38.332 103.596 38.974 102.876 39.478C102.168 39.97 101.31 40.216 100.302 40.216C98.9824 40.216 97.9384 39.82 97.1704 39.028C96.4024 38.236 96.0184 37.162 96.0184 35.806C96.0184 34.462 96.3964 33.394 97.1524 32.602C97.9204 31.798 98.9464 31.396 100.23 31.396C101.43 31.396 102.396 31.768 103.128 32.512C103.872 33.244 104.244 34.198 104.244 35.374ZM97.9624 34.96H102.318C102.306 34.312 102.114 33.814 101.742 33.466C101.382 33.118 100.866 32.944 100.194 32.944C99.5104 32.944 98.9704 33.13 98.5744 33.502C98.1784 33.874 97.9744 34.36 97.9624 34.96ZM110.641 40V27.4H114.907C116.899 27.4 118.453 28.018 119.569 29.254C120.697 30.478 121.261 31.96 121.261 33.7C121.261 35.44 120.697 36.928 119.569 38.164C118.453 39.388 116.899 40 114.907 40H110.641ZM112.711 38.146H114.727C116.167 38.146 117.259 37.714 118.003 36.85C118.759 35.986 119.137 34.936 119.137 33.7C119.137 32.464 118.759 31.414 118.003 30.55C117.259 29.686 116.167 29.254 114.727 29.254H112.711V38.146ZM130.041 38.974C129.249 39.802 128.175 40.216 126.819 40.216C125.463 40.216 124.383 39.802 123.579 38.974C122.787 38.134 122.391 37.078 122.391 35.806C122.391 34.534 122.787 33.484 123.579 32.656C124.383 31.816 125.463 31.396 126.819 31.396C128.175 31.396 129.249 31.816 130.041 32.656C130.845 33.484 131.247 34.534 131.247 35.806C131.247 37.078 130.845 38.134 130.041 38.974ZM125.001 37.732C125.445 38.224 126.051 38.47 126.819 38.47C127.587 38.47 128.187 38.224 128.619 37.732C129.063 37.24 129.285 36.598 129.285 35.806C129.285 35.014 129.063 34.372 128.619 33.88C128.187 33.388 127.587 33.142 126.819 33.142C126.051 33.142 125.445 33.388 125.001 33.88C124.569 34.372 124.353 35.014 124.353 35.806C124.353 36.598 124.569 37.24 125.001 37.732ZM134.658 40L131.562 31.612H133.722L135.468 37.156L137.286 31.612H139.41L141.228 37.156L142.974 31.612H145.134L142.038 40H140.382L138.348 34.024L136.314 40H134.658ZM146.433 40V31.612H148.395V32.782C148.935 31.858 149.847 31.396 151.131 31.396C153.171 31.396 154.191 32.506 154.191 34.726V40H152.229V35.626C152.229 34.714 152.091 34.06 151.815 33.664C151.539 33.268 151.065 33.07 150.393 33.07C149.757 33.07 149.265 33.274 148.917 33.682C148.569 34.078 148.395 34.648 148.395 35.392V40H146.433ZM156.513 40V27.4H158.475V40H156.513ZM167.971 38.974C167.179 39.802 166.105 40.216 164.749 40.216C163.393 40.216 162.313 39.802 161.509 38.974C160.717 38.134 160.321 37.078 160.321 35.806C160.321 34.534 160.717 33.484 161.509 32.656C162.313 31.816 163.393 31.396 164.749 31.396C166.105 31.396 167.179 31.816 167.971 32.656C168.775 33.484 169.177 34.534 169.177 35.806C169.177 37.078 168.775 38.134 167.971 38.974ZM162.931 37.732C163.375 38.224 163.981 38.47 164.749 38.47C165.517 38.47 166.117 38.224 166.549 37.732C166.993 37.24 167.215 36.598 167.215 35.806C167.215 35.014 166.993 34.372 166.549 33.88C166.117 33.388 165.517 33.142 164.749 33.142C163.981 33.142 163.375 33.388 162.931 33.88C162.499 34.372 162.283 35.014 162.283 35.806C162.283 36.598 162.499 37.24 162.931 37.732ZM174.681 40.216C173.373 40.216 172.359 39.802 171.639 38.974C170.919 38.146 170.559 37.09 170.559 35.806C170.559 34.534 170.937 33.484 171.693 32.656C172.449 31.816 173.463 31.396 174.735 31.396C175.299 31.396 175.815 31.516 176.283 31.756C176.751 31.996 177.111 32.326 177.363 32.746V31.612H179.325V40H177.363V38.866C177.123 39.274 176.745 39.604 176.229 39.856C175.725 40.096 175.209 40.216 174.681 40.216ZM174.969 38.47C175.773 38.47 176.385 38.218 176.805 37.714C177.237 37.21 177.453 36.574 177.453 35.806C177.453 35.038 177.237 34.402 176.805 33.898C176.385 33.394 175.773 33.142 174.969 33.142C174.213 33.142 173.613 33.394 173.169 33.898C172.737 34.39 172.521 35.026 172.521 35.806C172.521 36.586 172.737 37.228 173.169 37.732C173.613 38.224 174.213 38.47 174.969 38.47ZM187.97 27.4H189.932V40H187.97V38.866C187.73 39.274 187.352 39.604 186.836 39.856C186.332 40.096 185.816 40.216 185.288 40.216C183.98 40.216 182.966 39.802 182.246 38.974C181.526 38.146 181.166 37.09 181.166 35.806C181.166 34.534 181.544 33.484 182.3 32.656C183.056 31.816 184.07 31.396 185.342 31.396C185.906 31.396 186.422 31.516 186.89 31.756C187.358 31.996 187.718 32.326 187.97 32.746V27.4ZM185.576 38.47C186.38 38.47 186.992 38.218 187.412 37.714C187.844 37.21 188.06 36.574 188.06 35.806C188.06 35.038 187.844 34.402 187.412 33.898C186.992 33.394 186.38 33.142 185.576 33.142C184.82 33.142 184.22 33.394 183.776 33.898C183.344 34.39 183.128 35.026 183.128 35.806C183.128 36.586 183.344 37.228 183.776 37.732C184.22 38.224 184.82 38.47 185.576 38.47Z" fill="#0B0B0B"/>
<rect x="0.25" y="0.25" width="261.5" height="68.5" rx="34.25" stroke="#FFC400" stroke-width="0.5"/>
</svg>
