<svg width="282" height="73" viewBox="0 0 282 73" fill="none" xmlns="http://www.w3.org/2000/svg">
<rect x="0.25" y="0.25" width="281.5" height="72.5" rx="36.25" fill="#E8B707"/>
<path d="M81.35 42V29.4H88.622V31.254H83.42V35.25H88.622V37.104H83.42V42H81.35ZM90.7423 42V33.612H92.7043V35.232C92.8483 34.668 93.1303 34.242 93.5503 33.954C93.9703 33.654 94.4323 33.504 94.9363 33.504C95.2603 33.504 95.5183 33.528 95.7103 33.576V35.376C95.5063 35.352 95.2483 35.34 94.9363 35.34C94.2403 35.34 93.6943 35.598 93.2983 36.114C92.9023 36.618 92.7043 37.344 92.7043 38.292V42H90.7423ZM104.621 37.374C104.621 37.59 104.603 37.95 104.567 38.454H98.3395C98.3635 39.114 98.5795 39.624 98.9875 39.984C99.3955 40.332 99.9595 40.506 100.679 40.506C101.603 40.506 102.227 40.188 102.551 39.552H104.531C104.399 40.332 103.973 40.974 103.253 41.478C102.545 41.97 101.687 42.216 100.679 42.216C99.3595 42.216 98.3155 41.82 97.5475 41.028C96.7795 40.236 96.3955 39.162 96.3955 37.806C96.3955 36.462 96.7735 35.394 97.5295 34.602C98.2975 33.798 99.3235 33.396 100.607 33.396C101.807 33.396 102.773 33.768 103.505 34.512C104.249 35.244 104.621 36.198 104.621 37.374ZM98.3395 36.96H102.695C102.683 36.312 102.491 35.814 102.119 35.466C101.759 35.118 101.243 34.944 100.571 34.944C99.8875 34.944 99.3475 35.13 98.9515 35.502C98.5555 35.874 98.3515 36.36 98.3395 36.96ZM114.244 37.374C114.244 37.59 114.226 37.95 114.19 38.454H107.962C107.986 39.114 108.202 39.624 108.61 39.984C109.018 40.332 109.582 40.506 110.302 40.506C111.226 40.506 111.85 40.188 112.174 39.552H114.154C114.022 40.332 113.596 40.974 112.876 41.478C112.168 41.97 111.31 42.216 110.302 42.216C108.982 42.216 107.938 41.82 107.17 41.028C106.402 40.236 106.018 39.162 106.018 37.806C106.018 36.462 106.396 35.394 107.152 34.602C107.92 33.798 108.946 33.396 110.23 33.396C111.43 33.396 112.396 33.768 113.128 34.512C113.872 35.244 114.244 36.198 114.244 37.374ZM107.962 36.96H112.318C112.306 36.312 112.114 35.814 111.742 35.466C111.382 35.118 110.866 34.944 110.194 34.944C109.51 34.944 108.97 35.13 108.574 35.502C108.178 35.874 107.974 36.36 107.962 36.96ZM120.641 42V29.4H124.907C126.899 29.4 128.453 30.018 129.569 31.254C130.697 32.478 131.261 33.96 131.261 35.7C131.261 37.44 130.697 38.928 129.569 40.164C128.453 41.388 126.899 42 124.907 42H120.641ZM122.711 40.146H124.727C126.167 40.146 127.259 39.714 128.003 38.85C128.759 37.986 129.137 36.936 129.137 35.7C129.137 34.464 128.759 33.414 128.003 32.55C127.259 31.686 126.167 31.254 124.727 31.254H122.711V40.146ZM140.041 40.974C139.249 41.802 138.175 42.216 136.819 42.216C135.463 42.216 134.383 41.802 133.579 40.974C132.787 40.134 132.391 39.078 132.391 37.806C132.391 36.534 132.787 35.484 133.579 34.656C134.383 33.816 135.463 33.396 136.819 33.396C138.175 33.396 139.249 33.816 140.041 34.656C140.845 35.484 141.247 36.534 141.247 37.806C141.247 39.078 140.845 40.134 140.041 40.974ZM135.001 39.732C135.445 40.224 136.051 40.47 136.819 40.47C137.587 40.47 138.187 40.224 138.619 39.732C139.063 39.24 139.285 38.598 139.285 37.806C139.285 37.014 139.063 36.372 138.619 35.88C138.187 35.388 137.587 35.142 136.819 35.142C136.051 35.142 135.445 35.388 135.001 35.88C134.569 36.372 134.353 37.014 134.353 37.806C134.353 38.598 134.569 39.24 135.001 39.732ZM144.658 42L141.562 33.612H143.722L145.468 39.156L147.286 33.612H149.41L151.228 39.156L152.974 33.612H155.134L152.038 42H150.382L148.348 36.024L146.314 42H144.658ZM156.433 42V33.612H158.395V34.782C158.935 33.858 159.847 33.396 161.131 33.396C163.171 33.396 164.191 34.506 164.191 36.726V42H162.229V37.626C162.229 36.714 162.091 36.06 161.815 35.664C161.539 35.268 161.065 35.07 160.393 35.07C159.757 35.07 159.265 35.274 158.917 35.682C158.569 36.078 158.395 36.648 158.395 37.392V42H156.433ZM166.513 42V29.4H168.475V42H166.513ZM177.971 40.974C177.179 41.802 176.105 42.216 174.749 42.216C173.393 42.216 172.313 41.802 171.509 40.974C170.717 40.134 170.321 39.078 170.321 37.806C170.321 36.534 170.717 35.484 171.509 34.656C172.313 33.816 173.393 33.396 174.749 33.396C176.105 33.396 177.179 33.816 177.971 34.656C178.775 35.484 179.177 36.534 179.177 37.806C179.177 39.078 178.775 40.134 177.971 40.974ZM172.931 39.732C173.375 40.224 173.981 40.47 174.749 40.47C175.517 40.47 176.117 40.224 176.549 39.732C176.993 39.24 177.215 38.598 177.215 37.806C177.215 37.014 176.993 36.372 176.549 35.88C176.117 35.388 175.517 35.142 174.749 35.142C173.981 35.142 173.375 35.388 172.931 35.88C172.499 36.372 172.283 37.014 172.283 37.806C172.283 38.598 172.499 39.24 172.931 39.732ZM184.681 42.216C183.373 42.216 182.359 41.802 181.639 40.974C180.919 40.146 180.559 39.09 180.559 37.806C180.559 36.534 180.937 35.484 181.693 34.656C182.449 33.816 183.463 33.396 184.735 33.396C185.299 33.396 185.815 33.516 186.283 33.756C186.751 33.996 187.111 34.326 187.363 34.746V33.612H189.325V42H187.363V40.866C187.123 41.274 186.745 41.604 186.229 41.856C185.725 42.096 185.209 42.216 184.681 42.216ZM184.969 40.47C185.773 40.47 186.385 40.218 186.805 39.714C187.237 39.21 187.453 38.574 187.453 37.806C187.453 37.038 187.237 36.402 186.805 35.898C186.385 35.394 185.773 35.142 184.969 35.142C184.213 35.142 183.613 35.394 183.169 35.898C182.737 36.39 182.521 37.026 182.521 37.806C182.521 38.586 182.737 39.228 183.169 39.732C183.613 40.224 184.213 40.47 184.969 40.47ZM197.97 29.4H199.932V42H197.97V40.866C197.73 41.274 197.352 41.604 196.836 41.856C196.332 42.096 195.816 42.216 195.288 42.216C193.98 42.216 192.966 41.802 192.246 40.974C191.526 40.146 191.166 39.09 191.166 37.806C191.166 36.534 191.544 35.484 192.3 34.656C193.056 33.816 194.07 33.396 195.342 33.396C195.906 33.396 196.422 33.516 196.89 33.756C197.358 33.996 197.718 34.326 197.97 34.746V29.4ZM195.576 40.47C196.38 40.47 196.992 40.218 197.412 39.714C197.844 39.21 198.06 38.574 198.06 37.806C198.06 37.038 197.844 36.402 197.412 35.898C196.992 35.394 196.38 35.142 195.576 35.142C194.82 35.142 194.22 35.394 193.776 35.898C193.344 36.39 193.128 37.026 193.128 37.806C193.128 38.586 193.344 39.228 193.776 39.732C194.22 40.224 194.82 40.47 195.576 40.47Z" fill="#0B0B0B"/>
<rect x="0.25" y="0.25" width="281.5" height="72.5" rx="36.25" stroke="#FFC400" stroke-width="0.5"/>
</svg>
