<svg width="32" height="32" viewBox="0 0 32 32" fill="none" xmlns="http://www.w3.org/2000/svg">
<circle cx="16" cy="16" r="15.5" fill="#FFD028" stroke="#FFC400"/>
<line x1="9.98438" y1="22.75" x2="21.9844" y2="22.75" stroke="#0F0F0F" stroke-width="1.5"/>
<path fill-rule="evenodd" clip-rule="evenodd" d="M16.0012 8.5C16.2498 8.5 16.4883 8.5856 16.6641 8.73798C16.8399 8.89035 16.9387 9.09701 16.9387 9.3125V18.7261L20.9624 15.2372C21.0496 15.1617 21.1531 15.1018 21.267 15.0609C21.3809 15.02 21.5029 14.999 21.6262 14.999C21.7495 14.999 21.8715 15.02 21.9854 15.0609C22.0993 15.1018 22.2028 15.1617 22.2899 15.2372C22.3771 15.3128 22.4462 15.4025 22.4934 15.5012C22.5406 15.5999 22.5649 15.7057 22.5649 15.8125C22.5649 15.9193 22.5406 16.0251 22.4934 16.1238C22.4462 16.2225 22.3771 16.3122 22.2899 16.3877L16.6649 21.2627C16.5778 21.3384 16.4744 21.3984 16.3605 21.4394C16.2466 21.4804 16.1245 21.5015 16.0012 21.5015C15.8779 21.5015 15.7558 21.4804 15.6419 21.4394C15.528 21.3984 15.4245 21.3384 15.3374 21.2627L9.71243 16.3877C9.62527 16.3122 9.55613 16.2225 9.50895 16.1238C9.46178 16.0251 9.4375 15.9193 9.4375 15.8125C9.4375 15.7057 9.46178 15.5999 9.50895 15.5012C9.55613 15.4025 9.62527 15.3128 9.71243 15.2372C9.88847 15.0847 10.1272 14.999 10.3762 14.999C10.4995 14.999 10.6215 15.02 10.7354 15.0609C10.8493 15.1018 10.9528 15.1617 11.0399 15.2372L15.0637 18.7261V9.3125C15.0637 9.09701 15.1625 8.89035 15.3383 8.73798C15.5141 8.5856 15.7525 8.5 16.0012 8.5V8.5Z" fill="#0F0F0F"/>
</svg>
