<svg width="428" height="44" viewBox="0 0 428 44" fill="none" xmlns="http://www.w3.org/2000/svg">
<rect width="428" height="44" fill="white"/>
<path opacity="0.35" d="M388 15.5275H405C406.918 15.5275 408.472 17.0822 408.472 19V24C408.472 25.9178 406.918 27.4725 405 27.4725H388C386.082 27.4725 384.528 25.9178 384.528 24V19C384.528 17.0822 386.082 15.5275 388 15.5275Z" stroke="#0F0F0F" stroke-width="1.05509"/>
<path opacity="0.4" d="M410 20V24.2203C410.849 23.8629 411.401 23.0314 411.401 22.1102C411.401 21.1889 410.849 20.3574 410 20" fill="#0F0F0F"/>
<path d="M386 19C386 17.8954 386.895 17 388 17H405C406.105 17 407 17.8954 407 19V24C407 25.1046 406.105 26 405 26H388C386.895 26 386 25.1046 386 24V19Z" fill="#0F0F0F"/>
<path fill-rule="evenodd" clip-rule="evenodd" d="M368.5 18.5875C370.967 18.5876 373.339 19.5551 375.127 21.2898C375.261 21.4237 375.477 21.4221 375.609 21.286L376.896 19.9604C376.963 19.8915 377.001 19.798 377 19.7008C376.999 19.6035 376.961 19.5105 376.893 19.4423C372.201 14.8526 364.799 14.8526 360.107 19.4423C360.039 19.5105 360.001 19.6034 360 19.7007C359.999 19.7979 360.037 19.8914 360.104 19.9604L361.391 21.286C361.523 21.4223 361.739 21.424 361.873 21.2898C363.661 19.5549 366.034 18.5875 368.5 18.5875ZM368.536 22.5894C369.891 22.5893 371.198 23.1035 372.203 24.032C372.338 24.1638 372.552 24.1609 372.685 24.0255L373.97 22.7C374.038 22.6304 374.075 22.5361 374.074 22.4381C374.073 22.3401 374.034 22.2466 373.965 22.1784C370.906 19.2739 366.169 19.2739 363.109 22.1784C363.04 22.2466 363.001 22.3401 363 22.4382C362.999 22.5362 363.037 22.6305 363.105 22.7L364.39 24.0255C364.522 24.1609 364.736 24.1638 364.872 24.032C365.876 23.1041 367.182 22.5899 368.536 22.5894ZM371.15 25.1767C371.152 25.275 371.114 25.3698 371.045 25.4386L368.822 27.7289C368.756 27.7962 368.668 27.834 368.575 27.834C368.482 27.834 368.393 27.7962 368.328 27.7289L366.105 25.4386C366.036 25.3697 365.998 25.2749 366 25.1766C366.002 25.0783 366.044 24.9853 366.115 24.9194C367.535 23.6935 369.615 23.6935 371.035 24.9194C371.106 24.9853 371.148 25.0784 371.15 25.1767Z" fill="#0F0F0F"/>
<path d="M344 19C344 18.4477 344.448 18 345 18H346C346.552 18 347 18.4477 347 19V27C347 27.5523 346.552 28 346 28H345C344.448 28 344 27.5523 344 27V19Z" fill="#0F0F0F"/>
<path d="M349 17C349 16.4477 349.448 16 350 16H351C351.552 16 352 16.4477 352 17V27C352 27.5523 351.552 28 351 28H350C349.448 28 349 27.5523 349 27V17Z" fill="#0F0F0F"/>
<path d="M339 22.5C339 21.9477 339.448 21.5 340 21.5H341C341.552 21.5 342 21.9477 342 22.5V27C342 27.5523 341.552 28 341 28H340C339.448 28 339 27.5523 339 27V22.5Z" fill="#0F0F0F"/>
<path d="M334 25C334 24.4477 334.448 24 335 24H336C336.552 24 337 24.4477 337 25V27C337 27.5523 336.552 28 336 28H335C334.448 28 334 27.5523 334 27V25Z" fill="#0F0F0F"/>
<path d="M29.4663 25.229C29.4663 24.923 29.5173 24.6227 29.6193 24.328L31.7273 24.787C31.648 24.9797 31.6083 25.161 31.6083 25.331C31.6083 25.6937 31.7613 25.9827 32.0673 26.198C32.3846 26.402 32.787 26.504 33.2743 26.504C34.0223 26.504 34.6343 26.164 35.1103 25.484C35.5863 24.804 35.8696 23.8577 35.9603 22.645C35.3483 23.4723 34.436 23.886 33.2233 23.886C31.9993 23.886 30.9906 23.512 30.1973 22.764C29.4153 22.016 29.0243 21.0697 29.0243 19.925C29.0243 18.7577 29.438 17.7887 30.2653 17.018C31.104 16.2473 32.1636 15.862 33.4443 15.862C34.9403 15.862 36.085 16.338 36.8783 17.29C37.683 18.242 38.0853 19.5963 38.0853 21.353C38.0853 22.815 37.8473 24.1467 37.3713 25.348C37.0086 26.2773 36.4646 26.9913 35.7393 27.49C35.0253 27.9887 34.181 28.238 33.2063 28.238C32.039 28.238 31.121 27.9603 30.4523 27.405C29.795 26.8383 29.4663 26.113 29.4663 25.229ZM35.0933 21.455C35.524 21.0583 35.7393 20.5313 35.7393 19.874C35.7393 19.2167 35.524 18.6897 35.0933 18.293C34.6626 17.8963 34.13 17.698 33.4953 17.698C32.8833 17.698 32.345 17.8963 31.8803 18.293C31.427 18.6783 31.2003 19.2053 31.2003 19.874C31.2003 20.5427 31.427 21.0697 31.8803 21.455C32.345 21.8517 32.8833 22.05 33.4953 22.05C34.13 22.05 34.6626 21.8517 35.0933 21.455ZM39.1247 22.05V19.772H41.4027V22.05H39.1247ZM39.1247 28V25.722H41.4027V28H39.1247ZM48.1664 28V26.028H42.3694V23.954L48.1664 16.1H50.4104V23.954H51.6174V26.028H50.4104V28H48.1664ZM44.7494 23.954H48.1664V19.262L44.7494 23.954ZM54.5894 28V18.871C54.0454 19.4037 53.2124 19.67 52.0904 19.67V17.596C52.7477 17.596 53.2804 17.477 53.6884 17.239C54.1077 17.001 54.4534 16.6213 54.7254 16.1H56.8334V28H54.5894Z" fill="#0F0F0F"/>
</svg>
