<svg width="32" height="32" viewBox="0 0 32 32" fill="none" xmlns="http://www.w3.org/2000/svg">
<circle cx="16" cy="16" r="15.5" fill="#FFD644" stroke="#FFC400"/>
<line x1="9.98633" y1="22.75" x2="21.9863" y2="22.75" stroke="#0F0F0F" stroke-width="1.5"/>
<path fill-rule="evenodd" clip-rule="evenodd" d="M15.9992 8.5C16.2479 8.5 16.4863 8.5856 16.6621 8.73798C16.838 8.89035 16.9367 9.09701 16.9367 9.3125V18.7261L20.9605 15.2372C21.0476 15.1617 21.1511 15.1018 21.265 15.0609C21.3789 15.02 21.501 14.999 21.6242 14.999C21.7475 14.999 21.8696 15.02 21.9835 15.0609C22.0973 15.1018 22.2008 15.1617 22.288 15.2372C22.3751 15.3128 22.4443 15.4025 22.4915 15.5012C22.5386 15.5999 22.5629 15.7057 22.5629 15.8125C22.5629 15.9193 22.5386 16.0251 22.4915 16.1238C22.4443 16.2225 22.3751 16.3122 22.288 16.3877L16.663 21.2627C16.5759 21.3384 16.4724 21.3984 16.3585 21.4394C16.2446 21.4804 16.1225 21.5015 15.9992 21.5015C15.8759 21.5015 15.7538 21.4804 15.6399 21.4394C15.526 21.3984 15.4226 21.3384 15.3355 21.2627L9.71048 16.3877C9.62332 16.3122 9.55417 16.2225 9.507 16.1238C9.45983 16.0251 9.43555 15.9193 9.43555 15.8125C9.43555 15.7057 9.45983 15.5999 9.507 15.5012C9.55417 15.4025 9.62332 15.3128 9.71048 15.2372C9.88652 15.0847 10.1253 14.999 10.3742 14.999C10.4975 14.999 10.6196 15.02 10.7335 15.0609C10.8473 15.1018 10.9508 15.1617 11.038 15.2372L15.0617 18.7261V9.3125C15.0617 9.09701 15.1605 8.89035 15.3363 8.73798C15.5121 8.5856 15.7506 8.5 15.9992 8.5V8.5Z" fill="#0F0F0F"/>
</svg>
