<svg width="34" height="34" viewBox="0 0 34 34" fill="none" xmlns="http://www.w3.org/2000/svg">
<circle cx="17" cy="17" r="16.5" fill="#ECB801" stroke="#FFC400"/>
<line x1="10.9863" y1="24.75" x2="22.9863" y2="24.75" stroke="#0F0F0F" stroke-width="1.5"/>
<path fill-rule="evenodd" clip-rule="evenodd" d="M16.9992 10.5C17.2479 10.5 17.4863 10.5856 17.6621 10.738C17.838 10.8903 17.9367 11.097 17.9367 11.3125V20.7261L21.9605 17.2372C22.0476 17.1617 22.1511 17.1018 22.265 17.0609C22.3789 17.02 22.501 16.999 22.6242 16.999C22.7475 16.999 22.8696 17.02 22.9835 17.0609C23.0973 17.1018 23.2008 17.1617 23.288 17.2372C23.3751 17.3128 23.4443 17.4025 23.4915 17.5012C23.5386 17.5999 23.5629 17.7057 23.5629 17.8125C23.5629 17.9193 23.5386 18.0251 23.4915 18.1238C23.4443 18.2225 23.3751 18.3122 23.288 18.3877L17.663 23.2627C17.5759 23.3384 17.4724 23.3984 17.3585 23.4394C17.2446 23.4804 17.1225 23.5015 16.9992 23.5015C16.8759 23.5015 16.7538 23.4804 16.6399 23.4394C16.526 23.3984 16.4226 23.3384 16.3355 23.2627L10.7105 18.3877C10.6233 18.3122 10.5542 18.2225 10.507 18.1238C10.4598 18.0251 10.4355 17.9193 10.4355 17.8125C10.4355 17.7057 10.4598 17.5999 10.507 17.5012C10.5542 17.4025 10.6233 17.3128 10.7105 17.2372C10.8865 17.0847 11.1253 16.999 11.3742 16.999C11.4975 16.999 11.6196 17.02 11.7335 17.0609C11.8473 17.1018 11.9508 17.1617 12.038 17.2372L16.0617 20.7261V11.3125C16.0617 11.097 16.1605 10.8903 16.3363 10.738C16.5121 10.5856 16.7506 10.5 16.9992 10.5V10.5Z" fill="#0F0F0F"/>
</svg>
